<svg width="129" height="30" viewBox="0 0 129 30" fill="none" xmlns="http://www.w3.org/2000/svg">
<path d="M2.8 29.4C2.10667 29.4 1.56 29.2133 1.16 28.84C0.76 28.4667 0.56 27.9467 0.56 27.28V6.56C0.56 4.82666 1.06667 3.46666 2.08 2.48C3.09333 1.49333 4.50667 0.999998 6.32 0.999998H18.76C19.4533 0.999998 19.9867 1.16 20.36 1.48C20.7333 1.77333 20.92 2.21333 20.92 2.8C20.92 3.36 20.7333 3.8 20.36 4.12C19.9867 4.41333 19.4533 4.56 18.76 4.56H6.96C6.37333 4.56 5.92 4.74667 5.6 5.12C5.28 5.49333 5.12 6 5.12 6.64V13.32H15.72C16.4133 13.32 16.9467 13.48 17.32 13.8C17.6933 14.0933 17.88 14.5333 17.88 15.12C17.88 15.68 17.6933 16.12 17.32 16.44C16.9467 16.7333 16.4133 16.88 15.72 16.88H5.12V27.28C5.12 27.92 4.90667 28.44 4.48 28.84C4.05333 29.2133 3.49333 29.4 2.8 29.4ZM25.9316 5.92C25.0782 5.92 24.3716 5.68 23.8116 5.2C23.2782 4.69333 23.0116 4.05333 23.0116 3.28C23.0116 2.50667 23.2782 1.88 23.8116 1.4C24.3716 0.893331 25.0782 0.639998 25.9316 0.639998C26.7849 0.639998 27.4916 0.893331 28.0516 1.4C28.6116 1.88 28.8916 2.50667 28.8916 3.28C28.8916 4.05333 28.6116 4.69333 28.0516 5.2C27.4916 5.68 26.7849 5.92 25.9316 5.92ZM25.9316 29.4C25.2382 29.4 24.6916 29.2133 24.2916 28.84C23.9182 28.4667 23.7316 27.9467 23.7316 27.28V11.12C23.7316 10.4533 23.9182 9.93333 24.2916 9.56C24.6916 9.18667 25.2382 9 25.9316 9C26.6249 9 27.1716 9.18667 27.5716 9.56C27.9982 9.93333 28.2116 10.4533 28.2116 11.12V27.28C28.2116 27.9467 27.9982 28.4667 27.5716 28.84C27.1716 29.2133 26.6249 29.4 25.9316 29.4ZM48.5269 24.24C48.9269 24.56 49.1269 24.9333 49.1269 25.36C49.1269 25.8133 48.9535 26.2667 48.6069 26.72C48.0469 27.5467 47.2469 28.2 46.2069 28.68C45.1669 29.16 44.0202 29.4 42.7669 29.4C40.7669 29.4 39.1935 28.84 38.0469 27.72C36.9002 26.6 36.3269 25.0667 36.3269 23.12V12.96H34.5269C33.8069 12.96 33.2335 12.8 32.8069 12.48C32.4069 12.16 32.2069 11.7333 32.2069 11.2C32.2069 10.64 32.4069 10.2 32.8069 9.88C33.2335 9.56 33.8069 9.4 34.5269 9.4H36.3269V3.08C36.3269 2.41333 36.5269 1.89333 36.9269 1.52C37.3269 1.14667 37.8735 0.959999 38.5669 0.959999C39.2602 0.959999 39.8069 1.14667 40.2069 1.52C40.6069 1.89333 40.8069 2.41333 40.8069 3.08V9.4H45.1669C45.8602 9.4 46.4069 9.56 46.8069 9.88C47.2335 10.2 47.4469 10.64 47.4469 11.2C47.4469 11.7333 47.2469 12.16 46.8469 12.48C46.4469 12.8 45.8869 12.96 45.1669 12.96H40.8069V23.48C40.8069 24.2 41.0069 24.7733 41.4069 25.2C41.8069 25.6 42.3669 25.8 43.0869 25.8C44.0735 25.8 44.9535 25.4133 45.7269 24.64C46.3402 24.08 46.9002 23.8 47.4069 23.8C47.8335 23.8 48.2069 23.9467 48.5269 24.24ZM96.2756 29.4C95.5823 29.4 95.0223 29.2133 94.5956 28.84C94.1956 28.4667 93.9956 27.9467 93.9956 27.28V10.24C93.9956 7.22667 94.849 4.86667 96.5556 3.16C98.289 1.45333 100.649 0.599998 103.636 0.599998C105.156 0.599998 106.582 0.986665 107.916 1.76C109.276 2.53333 110.382 3.6 111.236 4.96C112.089 3.57333 113.182 2.50666 114.516 1.76C115.849 0.986665 117.316 0.599998 118.916 0.599998C121.929 0.599998 124.276 1.45333 125.956 3.16C127.662 4.86667 128.516 7.22667 128.516 10.24V27.28C128.516 27.92 128.302 28.44 127.876 28.84C127.476 29.2133 126.929 29.4 126.236 29.4C125.542 29.4 124.982 29.2133 124.556 28.84C124.156 28.4667 123.956 27.9467 123.956 27.28V10.24C123.956 8.18667 123.542 6.68 122.716 5.72C121.916 4.76 120.596 4.28 118.756 4.28C117.076 4.28 115.782 4.8 114.876 5.84C113.969 6.88 113.516 8.34667 113.516 10.24V27.28C113.516 27.9467 113.302 28.4667 112.876 28.84C112.476 29.2133 111.929 29.4 111.236 29.4C110.542 29.4 109.996 29.2133 109.596 28.84C109.222 28.4667 109.036 27.9467 109.036 27.28V10.24C109.036 8.37333 108.569 6.92 107.636 5.88C106.702 4.81333 105.422 4.28 103.796 4.28C101.929 4.28 100.582 4.76 99.7556 5.72C98.9556 6.68 98.5556 8.18667 98.5556 10.24V27.28C98.5556 27.92 98.3423 28.44 97.9156 28.84C97.5156 29.2133 96.969 29.4 96.2756 29.4Z" fill="#1F1F1F"/>
<path d="M54.9047 29.36C54.2114 29.36 53.6647 29.1733 53.2647 28.8C52.8647 28.4267 52.6647 27.9067 52.6647 27.24V12.68C52.6647 8.89333 53.7447 5.93333 55.9047 3.8C58.0647 1.66666 61.0647 0.599998 64.9047 0.599998C67.4114 0.599998 69.5847 1.09333 71.4247 2.08C73.2647 3.04 74.6647 4.42667 75.6247 6.24C76.6114 8.05333 77.1047 10.2 77.1047 12.68V27.24C77.1047 27.9067 76.9047 28.4267 76.5047 28.8C76.1047 29.1733 75.558 29.36 74.8647 29.36C74.1714 29.36 73.6114 29.1733 73.1847 28.8C72.758 28.4 72.5447 27.88 72.5447 27.24V19.88H57.2247V27.24C57.2247 27.88 57.0114 28.4 56.5847 28.8C56.158 29.1733 55.598 29.36 54.9047 29.36ZM72.5447 16.32V12.56C72.5447 9.84 71.8914 7.77333 70.5847 6.36C69.3047 4.94667 67.4114 4.24 64.9047 4.24C62.3714 4.24 60.4514 4.94667 59.1447 6.36C57.8647 7.74667 57.2247 9.81333 57.2247 12.56V16.32H72.5447ZM85.4853 29.4C84.792 29.4 84.232 29.2133 83.8053 28.84C83.4053 28.4667 83.2053 27.9467 83.2053 27.28V2.72C83.2053 2.05333 83.4053 1.53333 83.8053 1.16C84.232 0.786665 84.792 0.599998 85.4853 0.599998C86.152 0.599998 86.6986 0.799998 87.1253 1.2C87.552 1.57333 87.7653 2.08 87.7653 2.72V27.28C87.7653 27.92 87.552 28.44 87.1253 28.84C86.6986 29.2133 86.152 29.4 85.4853 29.4Z" fill="#276F54"/>
</svg>
