<?xml version="1.0" encoding="utf-8"?>
<!-- Generator: Adobe Illustrator 27.5.0, SVG Export Plug-In . SVG Version: 6.00 Build 0)  -->
<svg version="1.1" xmlns="http://www.w3.org/2000/svg" xmlns:xlink="http://www.w3.org/1999/xlink" x="0px" y="0px"
	 viewBox="0 0 750 500" style="enable-background:new 0 0 750 500;" xml:space="preserve">
<g id="Background_Simple">
	<g>
		<path style="fill:#92E3A9;" d="M677.274,175.467c-27.779-34.755-65.948-65.13-106.008-88.602
			c-40.533-23.75-88.653-41.632-139.671-44.43c-50.698-2.781-101.556,4.409-147.497,21.574
			c-33.341,12.457-63.133,29.78-85.238,53.16c-3.538,3.742-5.729,7.551-8.113,11.839c-0.415,0.752-0.819,1.508-1.21,2.268
			c-5.871,11.407-10.422,23.172-13.525,35.226c-1.766,6.859-2.51,14.264-5.948,20.784c-10.151,19.249-42.428,24.798-62.839,35.321
			c-48.862,25.191-93.802,68.831-84.301,117.411c0.012,0.059,0.023,0.117,0.035,0.176c8.653,43.477,32.45,47.995,32.45,47.995
			h636.745c0,0,30.287-36.702,28.845-105.589C720.196,244.263,703.043,207.707,677.274,175.467z"/>
		<path style="opacity:0.7;fill:#FFFFFF;" d="M677.274,175.467c-27.779-34.755-65.948-65.13-106.008-88.602
			c-40.533-23.75-88.653-41.632-139.671-44.43c-50.698-2.781-101.556,4.409-147.497,21.574
			c-33.341,12.457-63.133,29.78-85.238,53.16c-3.538,3.742-5.729,7.551-8.113,11.839c-0.415,0.752-0.819,1.508-1.21,2.268
			c-5.871,11.407-10.422,23.172-13.525,35.226c-1.766,6.859-2.51,14.264-5.948,20.784c-10.151,19.249-42.428,24.798-62.839,35.321
			c-48.862,25.191-93.802,68.831-84.301,117.411c0.012,0.059,0.023,0.117,0.035,0.176c8.653,43.477,32.45,47.995,32.45,47.995
			h636.745c0,0,30.287-36.702,28.845-105.589C720.196,244.263,703.043,207.707,677.274,175.467z"/>
	</g>
</g>
<g id="Floor">
	
		<line style="fill:none;stroke:#263238;stroke-linecap:round;stroke-linejoin:round;stroke-miterlimit:10;" x1="38.803" y1="388.189" x2="709.566" y2="388.189"/>
</g>
<g id="Character_5">
	<g>
		<path style="fill:#E5E5E5;stroke:#263238;stroke-linecap:round;stroke-linejoin:round;stroke-miterlimit:10;" d="M700.114,254.499
			c0-2.436,0.562-15.18-0.562-25.488c-1.125-10.308-2.624-23.801-3.748-26.612c-1.124-2.811-1.499-13.681-2.061-18.554
			c-0.562-4.873,0.375-16.117,0.375-21.552c0-5.435-3.561-13.119-10.495-15.93s-17.617-5.06-19.116-8.059
			c-1.499-2.999-2.436-10.682-2.436-10.682l-8.018,0.745l-8.018-0.745c0,0-0.937,7.684-2.436,10.682
			c-1.499,2.999-12.182,5.247-19.116,8.059s-10.495,10.495-10.495,15.93c0,5.435,0.937,16.68,0.375,21.552
			c-0.562,4.873-0.937,15.743-2.062,18.554c-1.125,2.811-2.624,16.305-3.748,26.612c-1.124,10.308-0.562,23.052-0.562,25.488
			c0,2.436-1.312,7.684-0.75,9.933c0.562,2.249,1.499,5.81,1.499,9.933c0,4.123-1.312,6.934-0.187,7.309
			c1.125,0.375,2.062-2.249,2.999-4.311c0.937-2.061,1.312-6.934,1.312-6.934s-0.375,5.06,1.125,4.311
			c1.499-0.75,1.125-3.186,1.312-6.56c0.187-3.373,1.499-4.498,1.499-7.309c0-2.811-2.249-10.495-2.249-10.495
			s9.183-27.175,9.745-34.109c0.562-6.934,0-11.807,0.375-13.119c0.375-1.312,3.186-20.803,3.186-20.803s2.624,10.495,3.186,13.306
			c0.562,2.811-0.75,25.488-1.874,31.485c-1.124,5.997-4.873,21.178-3.936,37.482c0.937,16.305,7.497,34.109,9.183,38.982
			c1.687,4.873,0.562,8.246-0.188,15.742c-0.75,7.497-1.312,12.557,1.499,19.866c2.811,7.309,9.183,31.023,9.371,31.586
			s0.75,8.059,0.75,9.745s-1.687,8.246-3.561,11.432c-1.874,3.186-3.186,5.81-2.624,9.183c0.562,3.373,4.31,1.687,6.934-0.75
			c2.624-2.436,4.123-2.624,4.873-8.434c0.415-3.215,1.604-4.448,2.583-5.355c0.98,0.907,2.169,2.14,2.583,5.355
			c0.75,5.81,2.249,5.997,4.873,8.434c2.624,2.436,6.372,4.123,6.934,0.75c0.562-3.374-0.75-5.997-2.624-9.183
			c-1.874-3.186-3.561-9.745-3.561-11.432s0.562-9.183,0.75-9.745c0.187-0.562,6.559-24.276,9.371-31.586
			c2.811-7.309,2.249-12.369,1.499-19.866c-0.75-7.496-1.874-10.87-0.187-15.742s8.246-22.677,9.183-38.982
			c0.937-16.305-2.811-31.485-3.936-37.482c-1.124-5.997-2.436-28.674-1.874-31.485c0.562-2.811,3.186-13.306,3.186-13.306
			s2.811,19.491,3.186,20.803c0.375,1.312-0.187,6.185,0.375,13.119c0.562,6.934,9.745,34.109,9.745,34.109
			s-2.249,7.684-2.249,10.495c0,2.811,1.312,3.936,1.499,7.309c0.187,3.373-0.187,5.81,1.312,6.56
			c1.499,0.75,1.125-4.311,1.125-4.311s0.375,4.873,1.312,6.934c0.937,2.062,1.874,4.685,2.999,4.311
			c1.125-0.375-0.187-3.186-0.187-7.309c0-4.123,0.937-7.684,1.499-9.933C701.426,262.183,700.114,256.935,700.114,254.499z"/>
		
			<line style="fill:none;stroke:#263238;stroke-linecap:round;stroke-linejoin:round;stroke-miterlimit:10;" x1="612.861" y1="270.429" x2="612.674" y2="262.932"/>
		
			<line style="fill:none;stroke:#263238;stroke-linecap:round;stroke-linejoin:round;stroke-miterlimit:10;" x1="612.861" y1="270.429" x2="612.674" y2="262.932"/>
		
			<line style="fill:none;stroke:#263238;stroke-linecap:round;stroke-linejoin:round;stroke-miterlimit:10;" x1="695.209" y1="270.429" x2="695.021" y2="262.932"/>
		<path style="fill:#92E3A9;stroke:#263238;stroke-linecap:round;stroke-linejoin:round;stroke-miterlimit:10;" d="M671.107,159.94
			c-4.187,0-17.113,11.209-17.113,11.209s-12.926-11.209-17.113-11.209c-4.187,0-10.377,8.22-10.741,9.341
			c-0.364,1.121,1.653,13.065,1.653,13.065l-0.001,0.438c0.04-0.279,0.063-0.438,0.063-0.438s2.624,10.495,3.186,13.306
			c0.562,2.811-0.75,25.488-1.874,31.485c-0.116,0.619-0.265,1.358-0.429,2.163c1.788,1.111,4.045,2.641,6.141,4.432
			c4.369,3.736,11.106,11.022,14.565,14.011c3.459,2.989,4.551,3.736,4.551,3.736s1.092-0.747,4.551-3.736
			c3.459-2.989,10.195-10.275,14.565-14.011c2.135-1.826,4.44-3.38,6.243-4.496c-0.158-0.779-0.303-1.497-0.416-2.099
			c-1.124-5.997-2.436-28.674-1.874-31.485c0.516-2.579,2.765-11.618,3.133-13.095l0-0.211c0,0,2.017-11.944,1.653-13.065
			C681.484,168.16,675.294,159.94,671.107,159.94z"/>
		
			<line style="fill:none;stroke:#263238;stroke-linecap:round;stroke-linejoin:round;stroke-miterlimit:10;" x1="653.994" y1="378.454" x2="653.994" y2="384.178"/>
		
			<line style="fill:none;stroke:#263238;stroke-linecap:round;stroke-linejoin:round;stroke-miterlimit:10;" x1="653.994" y1="251.48" x2="653.994" y2="374.393"/>
		
			<line style="fill:none;stroke:#263238;stroke-linecap:round;stroke-linejoin:round;stroke-miterlimit:10;" x1="681.848" y1="169.281" x2="684.922" y2="162.659"/>
		
			<line style="fill:none;stroke:#263238;stroke-linecap:round;stroke-linejoin:round;stroke-miterlimit:10;" x1="626.139" y1="169.281" x2="622.364" y2="163.324"/>
		<path style="fill:#263238;stroke:#263238;stroke-linecap:round;stroke-linejoin:round;stroke-miterlimit:10;" d="M682.106,122.936
			c-0.75,0-3.561-1.125-2.811-6.747c0.75-5.622,0.562-17.617-4.498-24.926c-5.06-7.309-13.681-9.558-13.681-9.558
			c-1.874-0.562-6.185-0.562-6.185-0.562s-4.31,0-6.185,0.562c0,0-8.621,2.249-13.681,9.558c-5.06,7.309-5.247,19.303-4.498,24.926
			c0.75,5.622-2.062,6.747-2.811,6.747c-0.75,0,0.562,2.811,7.497,5.997c6.934,3.186,19.678,1.125,19.678,1.125
			s12.744,2.062,19.678-1.125C681.543,125.747,682.855,122.936,682.106,122.936z"/>
		<path style="fill:#E5E5E5;stroke:#263238;stroke-linecap:round;stroke-linejoin:round;stroke-miterlimit:10;" d="M641.455,114.256
			c0,0-3.155-4.071-4.275-1.425s2.036,8.142,2.951,8.549c0.916,0.407,1.832,0.611,1.832,0.611L641.455,114.256z"/>
		<path style="fill:#E5E5E5;stroke:#263238;stroke-linecap:round;stroke-linejoin:round;stroke-miterlimit:10;" d="M666.732,114.476
			c0,0,3.155-4.071,4.275-1.425c1.119,2.646-2.036,8.142-2.952,8.549c-0.916,0.407-1.832,0.611-1.832,0.611L666.732,114.476z"/>
		<path style="fill:#E5E5E5;stroke:#263238;stroke-linecap:round;stroke-linejoin:round;stroke-miterlimit:10;" d="M668.222,109.269
			c0,0-1.323,13.435-1.934,16.895c-0.611,3.46-5.089,8.244-7.43,9.363c-2.341,1.12-5.191,2.036-9.567-1.323
			c-4.376-3.359-5.903-5.598-6.717-8.753c-0.814-3.155-2.137-17.709-2.137-17.709s-0.161-6,3.359-10.381
			C648.782,91.153,668.222,89.932,668.222,109.269z"/>
		<path style="fill:#FFFFFF;stroke:#263238;stroke-linecap:round;stroke-linejoin:round;stroke-miterlimit:10;" d="M643.795,94.55
			c-3.519,4.381-3.359,10.381-3.359,10.381s0.246,2.702,0.59,6.029l0.427,0.485c0,0-1.704-11.373,3.356-13.809
			c5.06-2.436,8.059,0.187,11.245-0.375c3.186-0.562,7.684-1.499,9.558,2.624c1.874,4.123,2.061,10.12,2.061,10.12l0.337-1.462
			c0.129-1.273,0.209-2.085,0.209-2.085C668.222,87.12,648.782,88.342,643.795,94.55z"/>
		<path style="fill:#263238;stroke:#263238;stroke-linecap:round;stroke-linejoin:round;stroke-miterlimit:10;" d="M643.795,97.361
			c-3.519,4.381-3.359,10.381-3.359,10.381s0.246,2.702,0.59,6.029l0.427,0.485c0,0-1.704-11.373,3.356-13.809
			c5.06-2.436,8.059,0.187,11.245-0.375c3.186-0.562,7.684-1.499,9.558,2.624c1.874,4.123,2.061,10.12,2.061,10.12l0.337-1.462
			c0.129-1.273,0.209-2.085,0.209-2.085C668.222,89.932,648.782,91.153,643.795,97.361z"/>
		<g>
			<path style="fill:#263238;" d="M649.504,113.204c0,1.035-0.519,1.874-1.16,1.874c-0.641,0-1.16-0.839-1.16-1.874
				s0.519-1.874,1.16-1.874C648.985,111.33,649.504,112.169,649.504,113.204z"/>
			<path style="fill:#263238;" d="M661.731,113.204c0,1.035-0.519,1.874-1.16,1.874c-0.641,0-1.16-0.839-1.16-1.874
				s0.519-1.874,1.16-1.874C661.211,111.33,661.731,112.169,661.731,113.204z"/>
			<path style="fill:none;stroke:#263238;stroke-linecap:round;stroke-linejoin:round;stroke-miterlimit:10;" d="M650.62,125.342
				c0,0,3.882,3.614,8.835,0"/>
			<path style="fill:none;stroke:#263238;stroke-linecap:round;stroke-linejoin:round;stroke-miterlimit:10;" d="M652.198,120.157
				c0,0,1.894,2.105,4.946,0"/>
			<path style="fill:none;stroke:#263238;stroke-linecap:round;stroke-linejoin:round;stroke-miterlimit:10;" d="M644.685,110.081
				c0,0,1.014-4.177,5.89-1.785"/>
			<path style="fill:none;stroke:#263238;stroke-linecap:round;stroke-linejoin:round;stroke-miterlimit:10;" d="M657.715,108.474
				c0,0,4.6-3.186,6.426,1.606"/>
		</g>
	</g>
</g>
<g id="Character_4">
	<g>
		<path style="fill:#263238;stroke:#263238;stroke-linecap:round;stroke-linejoin:round;stroke-miterlimit:10;" d="M553.884,119.215
			c-0.322-3.701-4.022-10.136-4.022-10.136s2.574,0.804,3.218-0.804c0.644-1.609-10.458-15.928-10.458-15.928
			c-11.423-10.78-21.756-8.688-21.756-8.688s-9.332-2.092-20.755,8.688c0,0-11.102,14.319-10.458,15.928
			c0.644,1.609,3.218,0.804,3.218,0.804s-3.701,6.436-4.022,10.136c-0.322,3.701,2.896,3.379,2.896,3.379s1.931,5.792,3.379,7.723
			c1.448,1.931,5.309,0.161,5.309,0.161s0.643,3.54,3.54,4.827c2.896,1.287,4.666-0.483,4.666-0.483s3.861,3.218,5.47,3.861
			s3.379-0.161,3.379-0.161s2.253,1.287,3.379-0.161c0.237-0.305,0.764-0.305,1.001,0c1.126,1.448,3.379,0.161,3.379,0.161
			s1.77,0.805,3.379,0.161s5.47-3.861,5.47-3.861s1.77,1.77,4.666,0.483c2.896-1.287,3.54-4.827,3.54-4.827s3.861,1.77,5.309-0.161
			c1.448-1.931,3.379-7.723,3.379-7.723S554.206,122.916,553.884,119.215z"/>
		<path style="fill:#C4C4C4;stroke:#263238;stroke-linecap:round;stroke-linejoin:round;stroke-miterlimit:10;" d="M581.457,183.99
			c-8.464-8.385-20.338-19.422-24.835-24.896c-4.497-5.474-8.407-4.106-15.445-6.256c-7.039-2.151-8.212-2.737-10.167-5.865
			c-1.955-3.128-0.587-13.686-0.587-13.686l-9.58,0.782l-9.58-0.782c0,0,1.369,10.558-0.587,13.686
			c-1.955,3.128-3.128,3.715-10.167,5.865c-7.039,2.151-10.949,0.782-15.445,6.256c-4.497,5.474-23.093,21.682-25.823,24.896
			c-3.37,3.968-6.872,8.924-6.089,9.706c0.782,0.782,5.016,4.461,7.753,4.07c2.737-0.391,36.173-24.699,36.173-24.699
			s-0.499,7.964,1.662,15.609c1.097,3.882-0.296,11.705-2.261,15.044c-3.973,6.751-8.219,14.121-9.89,21.849
			c-1.877,8.681-2.815,21.115-3.05,25.573c-0.235,4.458-0.549,10.19,1.616,25.318c2.383,16.646,5.187,29.464,5.187,29.464
			s0.195,0.587-0.978,4.888c-1.173,4.301-6.843,10.753-5.474,23.071c1.369,12.317,1.564,40.862,1.173,45.555
			c-0.391,4.692-1.955,5.474-2.346,6.843c-0.391,1.368-8.994,7.82-8.603,12.708c0.391,4.888,8.603,4.106,12.122-1.173
			c3.519-5.279,3.715-8.211,4.692-9.189c0.978-0.978,1.369-0.391,2.542-6.256c1.173-5.865,2.737-15.837,6.256-29.131
			c3.519-13.295,7.234-21.702,8.603-31.087c1.369-9.385,1.955-17.401,1.955-17.401l8.212-46.532h2.346h2.346l8.212,46.532
			c0,0,0.587,8.016,1.955,17.401c1.369,9.385,5.083,17.792,8.602,31.087c3.519,13.295,5.083,23.266,6.256,29.131
			c1.173,5.865,1.564,5.279,2.542,6.256c0.978,0.978,1.173,3.91,4.692,9.189c3.519,5.279,11.731,6.061,12.122,1.173
			c0.391-4.888-8.212-11.34-8.603-12.708c-0.391-1.369-1.955-2.151-2.346-6.843c-0.391-4.692-0.195-33.237,1.173-45.555
			c1.369-12.317-4.301-18.769-5.474-23.071s-0.977-4.888-0.977-4.888s2.739-13.126,5.16-29.767
			c2.419-16.628,1.879-20.558,1.644-25.016c-0.235-4.458-1.173-16.892-3.05-25.574c-1.358-6.28-4.401-12.014-7.356-17.661
			c-2.533-4.841-6.464-13.328-4.795-19.232c2.16-7.645,1.662-15.608,1.662-15.608s34.288,27.231,37.025,27.622
			c2.737,0.391,5.808-4.451,6.59-5.233C589.005,194.674,585.155,187.654,581.457,183.99z"/>
		<g>
			<path style="fill:#C4C4C4;stroke:#263238;stroke-linecap:round;stroke-linejoin:round;stroke-miterlimit:10;" d="
				M485.988,214.536c0,0-3.132,1.785-3.763,3.023c-0.631,1.238-0.894,2.976-1.656,3.785c-0.762,0.809-4.041-0.526-3.893,1.297
				c0.23,2.847,5.587,1.496,5.587,1.496s1.675-3.208,3.01-5.922C486.607,215.5,485.988,214.536,485.988,214.536z"/>
			<path style="fill:#C4C4C4;stroke:#263238;stroke-linecap:round;stroke-linejoin:round;stroke-miterlimit:10;" d="
				M476.783,226.541c0,0-1.028-3.494-0.103-3.597c0.925-0.103,1.028,0.308,1.028,0.308s0.925,1.028,1.541,1.439
				c0.616,0.411,2.775,0.617,2.775,0.617s1.233,0.925,0.103,1.541c-1.13,0.617-1.439,0.822-2.261,0.617
				C479.044,227.261,477.194,227.261,476.783,226.541z"/>
			<path style="fill:#C4C4C4;stroke:#263238;stroke-linecap:round;stroke-linejoin:round;stroke-miterlimit:10;" d="
				M476.186,227.337c0,0-1.028-3.494-0.103-3.597c0.925-0.103,1.028,0.308,1.028,0.308s0.925,1.028,1.541,1.439
				c0.616,0.411,2.775,0.617,2.775,0.617s1.233,0.925,0.103,1.541c-1.13,0.617-1.439,0.822-2.261,0.617
				C478.447,228.056,476.597,228.056,476.186,227.337z"/>
			<path style="fill:#C4C4C4;stroke:#263238;stroke-linecap:round;stroke-linejoin:round;stroke-miterlimit:10;" d="M475.775,228.57
				c0,0-1.028-3.494-0.103-3.597c0.925-0.103,1.028,0.308,1.028,0.308s0.925,1.028,1.541,1.439c0.617,0.411,2.775,0.617,2.775,0.617
				s1.233,0.925,0.103,1.541c-1.13,0.617-1.439,0.822-2.261,0.617C478.036,229.29,476.186,229.29,475.775,228.57z"/>
			<path style="fill:#C4C4C4;stroke:#263238;stroke-linecap:round;stroke-linejoin:round;stroke-miterlimit:10;" d="M459.241,183.99
				c-1.745,1.853-7.094,7.871-6.721,11.621c0.115,1.154,4.703,7.24,10.642,11.007c6.545,4.15,19.636,10.517,19.636,10.517
				s-1.563,5.699-1.563,6.694s-0.995,4.575-0.995,4.575s-0.715,0.029-1.583,0.132l-2.447-0.96c0,0-1.669,0.276-0.147,1.823
				c0.976,0.992,2.309,1.773,3.513,2.46c1.249,0.713,1.792,0.324,2.255,0.324c0.995,0,3.78-2.188,3.78-3.183
				c0-0.995,3.201-8.552,3.779-10.94c0.375-1.547,0.677-4.064-1.71-5.655c-2.037-1.358-17.524-17.967-20.757-22.204"/>
		</g>
		<g>
			<path style="fill:#C4C4C4;stroke:#263238;stroke-linecap:round;stroke-linejoin:round;stroke-miterlimit:10;" d="M554.71,214.536
				c0,0,3.132,1.785,3.763,3.023c0.631,1.238,0.894,2.976,1.656,3.785c0.762,0.809,4.041-0.526,3.893,1.297
				c-0.23,2.847-5.587,1.496-5.587,1.496s-1.675-3.208-3.01-5.922C554.091,215.5,554.71,214.536,554.71,214.536z"/>
			<path style="fill:#C4C4C4;stroke:#263238;stroke-linecap:round;stroke-linejoin:round;stroke-miterlimit:10;" d="
				M563.915,226.541c0,0,1.028-3.494,0.103-3.597c-0.925-0.103-1.028,0.308-1.028,0.308s-0.925,1.028-1.541,1.439
				c-0.616,0.411-2.774,0.617-2.774,0.617s-1.233,0.925-0.103,1.541c1.13,0.617,1.439,0.822,2.261,0.617
				C561.654,227.261,563.504,227.261,563.915,226.541z"/>
			<path style="fill:#C4C4C4;stroke:#263238;stroke-linecap:round;stroke-linejoin:round;stroke-miterlimit:10;" d="
				M564.512,227.337c0,0,1.028-3.494,0.103-3.597c-0.925-0.103-1.028,0.308-1.028,0.308s-0.925,1.028-1.541,1.439
				c-0.617,0.411-2.774,0.617-2.774,0.617s-1.233,0.925-0.103,1.541c1.13,0.617,1.439,0.822,2.261,0.617
				C562.251,228.056,564.101,228.056,564.512,227.337z"/>
			<path style="fill:#C4C4C4;stroke:#263238;stroke-linecap:round;stroke-linejoin:round;stroke-miterlimit:10;" d="M564.923,228.57
				c0,0,1.028-3.494,0.103-3.597c-0.925-0.103-1.028,0.308-1.028,0.308s-0.925,1.028-1.541,1.439
				c-0.617,0.411-2.775,0.617-2.775,0.617s-1.233,0.925-0.103,1.541c1.13,0.617,1.439,0.822,2.261,0.617
				C562.662,229.29,564.512,229.29,564.923,228.57z"/>
			<path style="fill:#C4C4C4;stroke:#263238;stroke-linecap:round;stroke-linejoin:round;stroke-miterlimit:10;" d="M581.457,183.99
				c1.745,1.853,7.094,7.871,6.721,11.621c-0.115,1.154-4.703,7.24-10.642,11.007c-6.545,4.15-19.636,10.517-19.636,10.517
				s1.563,5.699,1.563,6.694s0.995,4.575,0.995,4.575s0.715,0.029,1.583,0.132l2.447-0.96c0,0,1.669,0.276,0.147,1.823
				c-0.976,0.992-2.31,1.773-3.514,2.46c-1.249,0.713-1.792,0.324-2.255,0.324c-0.995,0-3.779-2.188-3.779-3.183
				c0-0.995-3.201-8.552-3.779-10.94c-0.375-1.547-0.677-4.064,1.71-5.655c2.037-1.358,17.525-17.967,20.757-22.204"/>
		</g>
		<path style="fill:#92E3A9;stroke:#263238;stroke-linecap:round;stroke-linejoin:round;stroke-miterlimit:10;" d="M518.497,258.219
			h2.346h2.346c0,0,19.495-24.917,33.164-25.47c-0.361-2.508-0.778-4.967-1.256-7.182c-1.358-6.281-4.401-12.014-7.356-17.661
			c-2.533-4.841-6.464-13.328-4.795-19.232c1.563-5.529,1.733-11.209,1.708-13.938l-0.469-1.67c0,0-6.228-6.607-10.699-7.724
			c-4.471-1.118-12.854,14.81-12.854,14.81s-8.383-15.928-12.854-14.81c-4.471,1.118-10.699,7.724-10.699,7.724
			s-0.499,7.964,1.662,15.609c1.097,3.882-0.296,11.705-2.261,15.044c-3.973,6.751-8.219,14.121-9.89,21.849
			c-0.486,2.247-0.908,4.747-1.272,7.293C485.317,232.862,495.839,232.909,518.497,258.219z"/>
		<g>
			<path style="fill:#C4C4C4;stroke:#263238;stroke-linecap:round;stroke-linejoin:round;stroke-miterlimit:10;" d="
				M508.651,118.119c0,0-3.155-4.071-4.275-1.425c-1.12,2.646,2.036,8.142,2.952,8.549c0.916,0.407,1.832,0.611,1.832,0.611
				L508.651,118.119z"/>
			<path style="fill:#C4C4C4;stroke:#263238;stroke-linecap:round;stroke-linejoin:round;stroke-miterlimit:10;" d="
				M533.928,118.339c0,0,3.155-4.071,4.275-1.425c1.12,2.646-2.035,8.142-2.951,8.549c-0.916,0.407-1.832,0.611-1.832,0.611
				L533.928,118.339z"/>
			<path style="fill:#C4C4C4;stroke:#263238;stroke-linecap:round;stroke-linejoin:round;stroke-miterlimit:10;" d="
				M535.418,113.132c0,0-1.323,13.435-1.934,16.895c-0.611,3.46-5.089,8.244-7.43,9.363c-2.341,1.12-5.191,2.036-9.567-1.323
				c-4.376-3.359-5.903-5.598-6.717-8.753c-0.814-3.155-2.137-17.709-2.137-17.709s-0.161-6,3.359-10.381
				C515.979,95.016,535.418,93.794,535.418,113.132z"/>
			<path style="fill:#263238;stroke:#263238;stroke-linecap:round;stroke-linejoin:round;stroke-miterlimit:10;" d="
				M508.243,116.802l16.411-13.676c0,0-1.287,2.735-0.322,2.735c0.965,0,3.701-2.252,3.701-2.252s0,4.505,0.483,4.827
				c0.483,0.322,2.735-1.448,2.735-1.448l4.022,9.653c0,0,2.574-3.379,1.931-7.884c-0.644-4.505-4.666-11.102-12.067-13.998
				c-7.401-2.896-16.733,2.574-18.342,8.849C505.186,109.884,506.795,115.998,508.243,116.802z"/>
			<g>
				<ellipse style="fill:#263238;" cx="515.515" cy="117.929" rx="1.184" ry="1.912"/>
				<ellipse style="fill:#263238;" cx="527.989" cy="117.929" rx="1.184" ry="1.912"/>
				<path style="fill:none;stroke:#263238;stroke-linecap:round;stroke-linejoin:round;stroke-miterlimit:10;" d="M518.884,124.029
					c0,0-0.91,1.275-0.182,2.003c0.728,0.728,2.914,1.821,4.006,1.821c1.093,0,3.278-2.003,3.278-2.003
					c0.544-0.051,0.074-1.595-0.674-2.088"/>
				<path style="fill:none;stroke:#263238;stroke-linecap:round;stroke-linejoin:round;stroke-miterlimit:10;" d="M517.837,130.311
					c0,0,3.961,3.688,9.014,0"/>
				<path style="fill:none;stroke:#263238;stroke-linecap:round;stroke-linejoin:round;stroke-miterlimit:10;" d="M511.782,114.742
					c0,0,1.275-2.185,6.009-1.821"/>
				<path style="fill:none;stroke:#263238;stroke-linecap:round;stroke-linejoin:round;stroke-miterlimit:10;" d="M525.075,113.103
					c0,0,3.642-0.728,6.555,1.639"/>
			</g>
		</g>
	</g>
</g>
<g id="Character_3">
	<g>
		<path style="fill:#263238;stroke:#263238;stroke-linecap:round;stroke-linejoin:round;stroke-miterlimit:10;" d="M398.02,123.715
			c-2.212-2.413,4.424-5.027,3.82-13.874c-0.603-8.847-13.673-15.885-13.673-15.885c-5.856-4.229-11.577-3.59-13.551-3.191
			c-1.973-0.399-7.694-1.038-13.55,3.191c0,0-13.07,7.038-13.673,15.885c-0.603,8.847,6.032,11.461,3.82,13.874
			c-2.212,2.413-11.663,5.027-10.456,11.663c1.206,6.636,8.847,5.831,8.445,8.445c-0.402,2.614-2.413,4.826-3.418,3.016
			c-1.005-1.81-2.815,1.408-1.206,5.027c1.609,3.619,10.858,7.239,19.303,6.636c6.419-0.459,9.465-2.194,10.735-3.619
			c1.271,1.425,4.316,3.16,10.735,3.619c8.445,0.603,17.695-3.016,19.303-6.636c1.609-3.619-0.201-6.837-1.206-5.027
			c-1.005,1.81-3.016-0.402-3.418-3.016c-0.402-2.614,7.239-1.81,8.445-8.445C409.682,128.742,400.231,126.128,398.02,123.715z"/>
		<path style="fill:#E5E5E5;stroke:#263238;stroke-linecap:round;stroke-linejoin:round;stroke-miterlimit:10;" d="M457.922,273.125
			c-2.896-3.668-6.757-12.548-7.529-14.286c-0.772-1.737-9.46-24.711-11.39-29.923c-1.931-5.212-9.653-19.884-10.232-21.622
			c-0.579-1.737-5.985-15.637-6.371-16.989c-0.386-1.351-0.965-10.425-3.475-19.112c-2.51-8.687-11.888-13.9-17.486-16.023
			c-5.599-2.124-15.804-6.578-16.624-11.993c-0.82-5.415-1.313-9.025-1.313-9.025l-13.266,0.985L364,134.152
			c0,0-0.492,3.61-1.313,9.025c-0.82,5.415-6.89,9.87-12.489,11.993c-5.599,2.124-19.112,7.336-21.622,16.023
			c-2.51,8.687-3.089,17.761-3.475,19.112c-0.386,1.351-5.792,15.251-6.371,16.989c-0.579,1.738-8.301,16.41-10.232,21.622
			c-1.93,5.212-10.618,28.186-11.39,29.923c-0.772,1.737-4.633,10.618-7.529,14.286c-2.896,3.668,1.158,2.896,3.668,1.737
			s8.301-9.653,8.301-9.653s-3.668,5.792-2.51,6.371c1.158,0.579,3.089-1.737,4.633-4.054c1.544-2.317,3.089-3.475,4.054-7.143
			c0.965-3.668-0.386-6.564,0.772-8.687c1.158-2.123,17.182-18.919,19.885-23.745c2.703-4.826,4.247-6.178,4.247-6.178l0.772,6.178
			c0,0-5.598,12.162-3.668,29.73c1.931,17.568,16.603,38.611,16.796,39.383c0.193,0.772,1.158,9.073,0.193,16.023
			c-0.965,6.95-3.089,12.935-0.386,20.657s11.004,26.448,12.741,31.468c1.737,5.019,2.124,10.425,1.544,12.935
			c-0.579,2.51-4.826,6.178-6.371,10.232c-1.544,4.054-0.965,9.653,0.965,10.618c1.93,0.965,7.336-0.965,9.653-4.247
			c2.317-3.282,2.317-7.722,3.282-10.618c0.965-2.896,2.124-4.826,2.317-6.757c0.193-1.93-0.386-3.668-0.386-5.985
			c0-2.317,1.931-36.101,1.931-36.101l0.965-17.568l0.772-3.668l0.772,3.668l0.965,17.568c0,0,1.931,33.784,1.931,36.101
			c0,2.317-0.579,4.054-0.386,5.985c0.193,1.931,1.351,3.861,2.317,6.757c0.965,2.896,0.965,7.336,3.282,10.618
			c2.317,3.282,7.722,5.212,9.653,4.247c1.931-0.965,2.51-6.564,0.965-10.618c-1.544-4.054-5.792-7.722-6.371-10.232
			c-0.579-2.51-0.193-7.915,1.544-12.935c1.737-5.019,10.039-23.745,12.741-31.468c2.703-7.722,0.579-13.707-0.386-20.657
			c-0.965-6.95,0-15.251,0.193-16.023c0.193-0.772,14.865-21.815,16.796-39.383c1.93-17.568-3.668-29.73-3.668-29.73l0.772-6.178
			c0,0,1.544,1.351,4.247,6.178c2.703,4.826,18.726,21.622,19.884,23.745c1.158,2.124-0.193,5.019,0.772,8.687
			c0.965,3.668,2.51,4.826,4.054,7.143c1.544,2.317,3.475,4.633,4.633,4.054c1.158-0.579-2.51-6.371-2.51-6.371
			s5.792,8.494,8.301,9.653C456.764,276.021,460.818,276.793,457.922,273.125z"/>
		<g>
			<path style="fill:#92E3A9;stroke:#263238;stroke-linecap:round;stroke-linejoin:round;stroke-miterlimit:10;" d="
				M414.263,227.951c0,0,0.666-4.75,0.735-6.178c0,0,0.273-3.587-1.745-11.361c-2.017-7.774-6.052-14.134-6.052-14.134
				s2.858-4.417,0.672-15.547c-2.185-11.131-11.6-15.548-11.6-15.548s-6.22,1.943-11.095,5.124
				c-4.875,3.18-11.431,10.424-11.431,10.424s-6.556-7.244-11.432-10.424c-4.875-3.18-11.095-5.124-11.095-5.124
				s-9.414,4.417-11.6,15.548c-2.186,11.13,0.672,15.547,0.672,15.547s-4.035,6.36-6.052,14.134
				c-2.017,7.774-1.745,11.361-1.745,11.361c0.069,1.428,0.735,6.178,0.735,6.178s-2.336,5.34-3.38,14.049
				c6.452,0.367,18.779,1.706,27.926,6.575c0.292,0.156,0.574,0.306,0.856,0.457c5.007,3.336,9.341,5.763,12.069,7.199
				c1.906,1.004,4.184,1.004,6.09,0c2.728-1.436,7.062-3.863,12.069-7.199c0.282-0.151,0.564-0.301,0.856-0.457
				c9.146-4.869,21.474-6.208,27.926-6.575C416.599,233.291,414.263,227.951,414.263,227.951z"/>
			<path style="fill:none;stroke:#263238;stroke-linecap:round;stroke-linejoin:round;stroke-miterlimit:10;" d="M335.616,231.606
				c0,0,7.408,5.556,14.353,8.797"/>
			<path style="fill:none;stroke:#263238;stroke-linecap:round;stroke-linejoin:round;stroke-miterlimit:10;" d="M396.479,239.572
				c-0.926,0.514-1.784,0.958-2.524,1.295"/>
			<path style="fill:none;stroke:#263238;stroke-linecap:round;stroke-linejoin:round;stroke-miterlimit:10;" d="M409.696,231.143
				c0,0-5.64,3.923-10.674,6.952"/>
			<path style="fill:#263238;" d="M344.935,196.315c0,0,17.448-0.623,26.795-4.05C371.729,192.265,356.463,200.989,344.935,196.315z
				"/>
			<path style="fill:#263238;" d="M401.64,196.315c0,0-17.448-0.623-26.795-4.05C374.845,192.265,390.112,200.989,401.64,196.315z"
				/>
		</g>
		
			<line style="fill:none;stroke:#263238;stroke-linecap:round;stroke-linejoin:round;stroke-miterlimit:10;" x1="373.792" y1="305.035" x2="373.792" y2="310.013"/>
		
			<line style="fill:none;stroke:#263238;stroke-linecap:round;stroke-linejoin:round;stroke-miterlimit:10;" x1="373.792" y1="257.598" x2="373.792" y2="299.724"/>
		<path style="fill:none;stroke:#263238;stroke-linecap:round;stroke-linejoin:round;stroke-miterlimit:10;" d="M388.175,310.589
			c0,0,7.479-2.014,8.055-9.781"/>
		<path style="fill:none;stroke:#263238;stroke-linecap:round;stroke-linejoin:round;stroke-miterlimit:10;" d="M359.697,310.589
			c0,0-7.479-2.014-8.055-9.781"/>
		<g>
			<g>
				<path style="fill:#E5E5E5;stroke:#263238;stroke-linecap:round;stroke-linejoin:round;stroke-miterlimit:10;" d="
					M359.368,119.364c0,0-3.519-4.541-4.768-1.589c-1.249,2.952,2.271,9.082,3.292,9.536c1.022,0.454,2.044,0.681,2.044,0.681
					L359.368,119.364z"/>
				<path style="fill:#E5E5E5;stroke:#263238;stroke-linecap:round;stroke-linejoin:round;stroke-miterlimit:10;" d="
					M387.564,119.609c0,0,3.519-4.541,4.768-1.589c1.249,2.952-2.271,9.082-3.292,9.536c-1.022,0.454-2.043,0.681-2.043,0.681
					L387.564,119.609z"/>
				<path style="fill:#E5E5E5;stroke:#263238;stroke-linecap:round;stroke-linejoin:round;stroke-miterlimit:10;" d="
					M389.225,113.801c0,0-0.442,14.986-1.123,18.846c-0.681,3.86-6.71,9.196-9.322,10.445c-2.611,1.249-5.79,2.271-10.672-1.476
					c-4.882-3.747-7.619-6.244-8.527-9.763c-0.908-3.519-1.35-19.754-1.35-19.754s-0.179-6.693,3.746-11.58
					C367.542,93.593,389.225,92.231,389.225,113.801z"/>
				<g>
					<path style="fill:#263238;" d="M368.676,120.83c0,1.071-0.537,1.939-1.2,1.939c-0.663,0-1.2-0.868-1.2-1.939
						s0.538-1.939,1.2-1.939C368.139,118.891,368.676,119.759,368.676,120.83z"/>
					<path style="fill:#263238;" d="M381.326,120.83c0,1.071-0.538,1.939-1.2,1.939c-0.663,0-1.2-0.868-1.2-1.939
						s0.537-1.939,1.2-1.939C380.789,118.891,381.326,119.759,381.326,120.83z"/>
					<path style="fill:none;stroke:#263238;stroke-linecap:round;stroke-linejoin:round;stroke-miterlimit:10;" d="M369.83,133.388
						c0,0,4.017,3.74,9.141,0"/>
					<path style="fill:none;stroke:#263238;stroke-width:2;stroke-linecap:round;stroke-linejoin:round;stroke-miterlimit:10;" d="
						M361.955,117.571c0,0,1.951-3.345,7.83-1.82"/>
					<path style="fill:none;stroke:#263238;stroke-width:2;stroke-linecap:round;stroke-linejoin:round;stroke-miterlimit:10;" d="
						M377.171,115.936c0,0,3.878-2.407,8.059,1.775"/>
				</g>
				<path style="fill:none;stroke:#263238;stroke-linecap:round;stroke-linejoin:round;stroke-miterlimit:10;" d="M372.367,126.74
					c0,0,1.4,1.517,3.384-0.233"/>
			</g>
			<path style="fill:#263238;stroke:#263238;stroke-linecap:round;stroke-linejoin:round;stroke-miterlimit:10;" d="
				M359.256,117.682l3.82-8.445l0.201,4.625h21.717l0.402-5.027l4.022,9.049c0,0,2.815-3.016,1.005-10.054
				c-1.81-7.038-9.451-12.668-15.483-13.472c-6.032-0.804-14.679,3.82-16.488,8.445
				C356.642,107.427,356.843,113.661,359.256,117.682z"/>
		</g>
	</g>
</g>
<g id="Character_2">
	<g>
		<path style="fill:#263238;stroke:#263238;stroke-linecap:round;stroke-linejoin:round;stroke-miterlimit:10;" d="M229.732,87.867
			c0,0-11.605-0.464-16.479,11.605c-4.874,12.069-2.089,20.657-1.393,25.299c0.696,4.642-1.393,3.714-3.482,14.622
			s0.232,19.264,0.232,19.264h48.742c0,0,2.785-7.195,0.232-19.729c-2.553-12.533-3.946-10.445-3.714-17.872
			c0.232-7.427,5.178-13.006-1.625-23.21C243.89,85.314,229.732,87.867,229.732,87.867z"/>
		<path style="fill:#E5E5E5;stroke:#263238;stroke-linecap:round;stroke-linejoin:round;stroke-miterlimit:10;" d="M290.507,184.12
			c-2.933-4.301-16.423-19.551-20.92-25.026c-4.497-5.474-8.407-4.106-15.446-6.256c-7.038-2.151-8.212-2.737-10.167-5.865
			s-0.587-13.686-0.587-13.686l-9.58,0.782l-9.58-0.782c0,0,1.369,10.558-0.587,13.686c-1.955,3.128-3.128,3.715-10.167,5.865
			c-7.038,2.151-10.949,0.782-15.445,6.256c-4.497,5.474-17.987,20.724-20.92,25.026c-2.933,4.301-8.521,11.55-7.739,12.332
			c0.782,0.782,5.016,4.461,7.753,4.07c2.737-0.391,28.726-23.636,28.726-23.636s-0.586,8.798,1.955,17.792
			c2.542,8.994,3.324,16.032,2.933,18.183c-0.391,2.151-3.91,6.256-5.474,13.49c-1.564,7.234-2.346,17.596-2.542,21.311
			c-0.195,3.715-2.933,12.904-2.737,29.718c0.195,16.814,3.324,28.545,3.324,28.545s0.195,0.587-0.978,4.888
			s-6.843,10.753-5.474,23.071c1.369,12.317,1.564,40.862,1.173,45.555c-0.391,4.692-1.955,5.474-2.346,6.843
			c-0.391,1.368-8.994,7.82-8.603,12.708c0.391,4.888,8.603,4.106,12.122-1.173c3.519-5.279,3.715-8.211,4.692-9.189
			c0.977-0.978,1.368-0.391,2.542-6.256c1.173-5.865,2.737-15.837,6.256-29.131c3.519-13.295,7.234-21.702,8.603-31.087
			c1.369-9.385,1.955-17.401,1.955-17.401l8.212-46.532h2.346h2.346l8.212,46.532c0,0,0.587,8.016,1.955,17.401
			c1.369,9.385,5.083,17.792,8.602,31.087c3.519,13.295,5.083,23.266,6.257,29.131c1.173,5.865,1.564,5.279,2.542,6.256
			s1.173,3.91,4.692,9.189c3.519,5.279,11.731,6.061,12.122,1.173c0.391-4.888-8.212-11.34-8.603-12.708
			c-0.391-1.369-1.955-2.151-2.346-6.843c-0.391-4.692-0.196-33.237,1.173-45.555c1.369-12.317-4.301-18.769-5.474-23.071
			c-1.173-4.301-0.978-4.888-0.978-4.888s3.128-11.731,3.324-28.545c0.195-16.814-2.542-26.003-2.737-29.718
			c-0.195-3.715-0.978-14.077-2.542-21.311c-1.564-7.234-5.083-11.34-5.474-13.49c-0.391-2.151,0.391-9.189,2.933-18.183
			c2.542-8.994,1.955-17.792,1.955-17.792s26.784,24.02,29.521,24.411c2.737,0.391,5.808-4.451,6.59-5.233
			C298.659,195.282,293.439,188.421,290.507,184.12z"/>
		<path style="fill:#92E3A9;stroke:#263238;stroke-linecap:round;stroke-linejoin:round;stroke-miterlimit:10;" d="M262.353,226.35
			c-1.564-7.234-5.083-11.34-5.474-13.49c-0.391-2.151,0.391-9.189,2.933-18.183c0.91-3.22,1.415-6.408,1.693-9.182
			c-0.156-1.17-0.245-1.836-0.245-1.836s-6.05-14.149-11.533-15.7s-16.071,9.691-16.071,9.691s-10.588-11.242-16.071-9.691
			c-5.483,1.551-11.533,15.7-11.533,15.7s-0.022,0.167-0.063,0.467c0.24,3.065,0.752,6.786,1.816,10.551
			c2.542,8.994,3.324,16.032,2.933,18.183c-0.391,2.151-3.91,6.256-5.474,13.49c-0.709,3.28-1.256,7.2-1.662,10.855
			c7.834,5.96,27.094,21.013,27.094,21.013l0.671,0.541l0.096-0.541h2.346h2.346l0.057,0.326l0.404-0.326
			c0,0,19.742-15.43,27.376-21.227C263.588,233.398,263.048,229.566,262.353,226.35z"/>
		<g>
			<path style="fill:#E5E5E5;stroke:#263238;stroke-linecap:round;stroke-linejoin:round;stroke-miterlimit:10;" d="M179.3,192.304
				c0,0,2.405,2.233,6.012,10.306c3.607,8.073,11.646,14.244,14.566,16.305c2.92,2.061,2.92,2.061,2.92,2.061
				s5.668-7.901,6.871-7.901c1.202,0,3.435,0.859,4.638,1.202c1.202,0.344,4.664,1.68,4.41,2.357
				c-0.254,0.677-1.863,0.169-1.863,0.169s2.455,1.185,1.947,1.778c-0.508,0.593-2.286,0.677-2.286,0.677s1.439,1.693,0.508,1.947
				c-0.931,0.254-2.455-0.085-2.455-0.085s0.762,0.931,0.339,1.185c-0.423,0.254-2.201-0.085-2.963-0.339
				c-0.762-0.254-2.201-1.016-2.963-0.931c-0.762,0.085-2.37,4.233-3.979,5.757c-1.609,1.524-3.386,1.524-4.402,0.847
				c-1.016-0.677-15.645-10.455-17.677-12.572c-2.032-2.117-8.079-6.546-10.534-10.609c-2.292-3.793-5.043-6.83-3.181-9.624
				c1.863-2.794,4.656-5.588,4.656-5.588"/>
			<path style="fill:#FFFFFF;stroke:#263238;stroke-linecap:round;stroke-linejoin:round;stroke-miterlimit:10;" d="
				M209.669,213.076c0,0,2.021-0.843,3.037-1.436c1.016-0.593,1.778-2.201,1.778-0.847c0,1.355-0.254,2.032-0.847,2.455
				c-0.593,0.423-0.593,0.423-0.593,0.423L209.669,213.076z"/>
			<path style="fill:none;stroke:#263238;stroke-linecap:round;stroke-linejoin:round;stroke-miterlimit:10;" d="M216.854,216.804
				c0,0-5.08-1.862-6.18-2.032"/>
			<path style="fill:none;stroke:#263238;stroke-linecap:round;stroke-linejoin:round;stroke-miterlimit:10;" d="M216.515,219.259
				c0,0-5.672-2.54-6.434-2.624"/>
			<path style="fill:none;stroke:#263238;stroke-linecap:round;stroke-linejoin:round;stroke-miterlimit:10;" d="M214.568,221.122
				c0,0-3.471-1.947-5.08-2.37"/>
		</g>
		<g>
			<path style="fill:#E5E5E5;stroke:#263238;stroke-linecap:round;stroke-linejoin:round;stroke-miterlimit:10;" d="
				M287.902,192.304c0,0-2.405,2.233-6.012,10.306c-3.607,8.073-11.646,14.244-14.566,16.305c-2.92,2.061-2.92,2.061-2.92,2.061
				s-5.668-7.901-6.871-7.901c-1.202,0-3.435,0.859-4.638,1.202c-1.202,0.344-4.664,1.68-4.41,2.357
				c0.254,0.677,1.863,0.169,1.863,0.169s-2.455,1.185-1.947,1.778c0.508,0.593,2.286,0.677,2.286,0.677s-1.439,1.693-0.508,1.947
				c0.931,0.254,2.455-0.085,2.455-0.085s-0.762,0.931-0.339,1.185c0.423,0.254,2.201-0.085,2.963-0.339
				c0.762-0.254,2.201-1.016,2.963-0.931c0.762,0.085,2.37,4.233,3.979,5.757c1.609,1.524,3.386,1.524,4.402,0.847
				c1.016-0.677,15.645-10.455,17.677-12.572s8.079-6.546,10.534-10.609c2.292-3.793,5.043-6.83,3.181-9.624
				c-1.863-2.794-4.656-5.588-4.656-5.588"/>
			<path style="fill:#FFFFFF;stroke:#263238;stroke-linecap:round;stroke-linejoin:round;stroke-miterlimit:10;" d="
				M257.533,213.076c0,0-2.021-0.843-3.036-1.436c-1.016-0.593-1.778-2.201-1.778-0.847c0,1.355,0.254,2.032,0.847,2.455
				c0.593,0.423,0.593,0.423,0.593,0.423L257.533,213.076z"/>
			<path style="fill:none;stroke:#263238;stroke-linecap:round;stroke-linejoin:round;stroke-miterlimit:10;" d="M250.348,216.804
				c0,0,5.079-1.862,6.18-2.032"/>
			<path style="fill:none;stroke:#263238;stroke-linecap:round;stroke-linejoin:round;stroke-miterlimit:10;" d="M250.687,219.259
				c0,0,5.672-2.54,6.434-2.624"/>
			<path style="fill:none;stroke:#263238;stroke-linecap:round;stroke-linejoin:round;stroke-miterlimit:10;" d="M252.634,221.122
				c0,0,3.471-1.947,5.08-2.37"/>
		</g>
		<path style="fill:#E5E5E5;stroke:#263238;stroke-linecap:round;stroke-linejoin:round;stroke-miterlimit:10;" d="M245.693,118.339
			c0,0,3.155-4.071,4.275-1.425c1.12,2.646-2.035,8.142-2.951,8.549c-0.916,0.407-1.832,0.611-1.832,0.611L245.693,118.339z"/>
		<path style="fill:#E5E5E5;stroke:#263238;stroke-linecap:round;stroke-linejoin:round;stroke-miterlimit:10;" d="M247.183,113.132
			c0,0-1.323,13.435-1.934,16.895c-0.611,3.46-5.089,8.244-7.43,9.363c-2.341,1.12-5.191,2.036-9.567-1.323
			c-4.376-3.359-5.903-5.598-6.717-8.753c-0.814-3.155-2.137-17.709-2.137-17.709s-0.161-6,3.359-10.381
			C227.743,95.016,247.183,93.794,247.183,113.132z"/>
		<g>
			<path style="fill:#E5E5E5;stroke:#263238;stroke-linecap:round;stroke-linejoin:round;stroke-miterlimit:10;" d="
				M220.416,118.119c0,0-3.155-4.071-4.275-1.425c-1.12,2.646,2.036,8.142,2.951,8.549c0.916,0.407,1.832,0.611,1.832,0.611
				L220.416,118.119z"/>
			<path style="fill:#263238;stroke:#263238;stroke-linecap:round;stroke-linejoin:round;stroke-miterlimit:10;" d="
				M220.416,118.119c0,0,14.654-7.738,18.6-16.326c0,0,1.161,6.267,3.017,9.516c1.857,3.249,4.41,5.57,4.41,5.57
				s3.482-2.321,1.625-8.588c-1.857-6.267-4.874-12.069-11.605-13.23c-6.731-1.16-16.015,2.785-18.336,8.588
				C215.806,109.453,220.416,118.119,220.416,118.119z"/>
			<path style="fill:#FFFFFF;stroke:#263238;stroke-linecap:round;stroke-linejoin:round;stroke-miterlimit:10;" d="M230.196,95.526
				c0,0-0.928-4.178,2.321-4.178c3.249,0,3.946,3.714,3.946,3.714S232.053,94.366,230.196,95.526z"/>
			<g>
				<path style="fill:#263238;" d="M228.031,118.857c0,1.109-0.557,2.008-1.243,2.008c-0.686,0-1.243-0.899-1.243-2.008
					s0.557-2.008,1.243-2.008C227.474,116.85,228.031,117.748,228.031,118.857z"/>
				<path style="fill:#263238;" d="M241.13,118.857c0,1.109-0.556,2.008-1.243,2.008c-0.687,0-1.243-0.899-1.243-2.008
					s0.557-2.008,1.243-2.008C240.574,116.85,241.13,117.748,241.13,118.857z"/>
				<path style="fill:none;stroke:#263238;stroke-linecap:round;stroke-linejoin:round;stroke-miterlimit:10;" d="M231.751,125.21
					c0,0-0.579,1.081-0.116,1.699c0.463,0.618,1.852,1.545,2.546,1.545s2.083-1.699,2.083-1.699
					c0.346-0.043,0.047-1.353-0.429-1.771"/>
				<path style="fill:none;stroke:#263238;stroke-linecap:round;stroke-linejoin:round;stroke-miterlimit:10;" d="M229.226,130.336
					c0,0,4.16,3.872,9.466,0"/>
				<path style="fill:none;stroke:#263238;stroke-linecap:round;stroke-linejoin:round;stroke-miterlimit:10;" d="M222.867,115.511
					c0,0,1.339-2.295,6.311-1.912"/>
				<path style="fill:none;stroke:#263238;stroke-linecap:round;stroke-linejoin:round;stroke-miterlimit:10;" d="M236.828,113.79
					c0,0,3.825-0.765,6.885,1.721"/>
			</g>
		</g>
	</g>
</g>
<g id="Character_1">
	<g>
		<path style="fill:#E5E5E5;stroke:#263238;stroke-linecap:round;stroke-linejoin:round;stroke-miterlimit:10;" d="M132.089,210.588
			c0,0-1.059,8.941-0.941,14.117c0.118,5.176,2.353,22.588,3.294,27.529c0.941,4.941,0.824,17.882,0.824,17.882
			s-4.588,6.235-4.588,7.294s-0.47,5.412-0.941,6.588c-0.471,1.176-1.529,2.823-0.823,3.176c0.706,0.353,2.353-0.824,2.588-1.647
			c0.235-0.823,1.529-2.823,1.529-2.823s-0.118,6.235-0.235,7.412c-0.118,1.176-1.059,3.529-1.882,4.118
			c-0.824,0.588-2.118,2.47-0.706,2.235c1.412-0.235,3.765-2.353,4.706-3.059c0.941-0.706,1.294-2,1.294-3.647
			c0-1.647,0.824-4.941,1.647-6.941s2.353-10.47,2.118-12.47s4.235-30.705,4.118-36.47c0,0,0.941-6.47,0.353-14.588
			c-0.588-8.118-2.118-15.294-2.118-15.294"/>
		<g>
			<path style="fill:#E5E5E5;stroke:#263238;stroke-linecap:round;stroke-linejoin:round;stroke-miterlimit:10;" d="
				M132.388,214.098l-2.208-35.534c0,0-8.633,15.86-10.439,19.273c-1.807,3.413,4.417,13.25,8.633,25.095
				c4.216,11.845,6.223,26.902,3.011,40.754c-3.212,13.852-15.458,33.125-15.659,34.932c-0.201,1.807,0.201,1.606,2.008,7.83
				c1.807,6.224,5.822,15.86,6.625,25.295c0.803,9.436-5.621,34.129-4.417,40.955c1.204,6.826,4.818,12.246,6.023,17.265
				c1.204,5.019,1.204,10.64-2.008,12.648c-3.212,2.008-5.22-0.401-6.826-3.413c-1.606-3.011-0.402-9.636-1.606-15.659
				c-1.205-6.023-1.807-11.845-2.811-17.466c-1.004-5.621-5.22-20.678-5.22-20.678s0.402,6.224-0.201,9.636
				c-0.602,3.413-1.004,16.864,0,21.28c1.004,4.417,2.409,7.227-0.401,10.038c-2.811,2.811-1.807,4.417-3.413,8.03
				c-1.606,3.614-4.015,5.22-8.231,7.026c-4.216,1.807-8.231,1.807-5.42-4.417c2.811-6.224,8.833-13.852,9.235-14.856
				c0.402-1.004,0.602-2.409-0.402-7.227c-1.004-4.818-2.409-18.47-7.629-31.519c-5.22-13.049-2.208-30.917-1.606-38.746
				c0.602-7.829-3.922-14.657-6.958-20.533c-3.036-5.876-9.891-19.488-9.793-34.765s2.938-21.936,6.365-30.946
				c3.428-9.01,9.108-16.648,8.618-20.076c-0.49-3.428-3.134-8.912-5.876-13.514c-2.742-4.603-4.407-9.401-4.407-9.401
				s-20.95,22.639-24.965,25.969c-4.015,3.33-9.401-4.015-9.793-5.19c-0.392-1.175,18.991-23.325,19.677-25.381
				c0.685-2.057,2.35-7.639,6.757-12.339c4.407-4.701,12.731-3.623,15.473-4.701c2.742-1.077,10.674-4.407,12.633-10.087
				c1.959-5.68,1.665-10.772,1.665-10.772l14.694,0.49c0,0,0.401,13.652,3.212,16.261c2.811,2.61,15.86,7.027,18.269,7.83
				c2.409,0.803,8.432,2.811,9.235,10.439c0.803,7.629-2.008,16.462-1.405,17.667c0.602,1.205-0.602,27.705-0.602,27.705"/>
			
				<line style="fill:#FFFFFF;stroke:#263238;stroke-linecap:round;stroke-linejoin:round;stroke-miterlimit:10;" x1="77.376" y1="175.405" x2="75.092" y2="170.797"/>
			
				<line style="fill:#FFFFFF;stroke:#263238;stroke-linecap:round;stroke-linejoin:round;stroke-miterlimit:10;" x1="130.179" y1="178.564" x2="133.861" y2="170.989"/>
		</g>
		<path style="fill:#92E3A9;stroke:#263238;stroke-linecap:round;stroke-linejoin:round;stroke-miterlimit:10;" d="M132.298,239.329
			c-0.766-5.816-2.145-11.395-3.926-16.397c-4.216-11.845-10.439-21.682-8.633-25.095c1.146-2.164,5.034-9.33,7.728-14.286
			l0.02-0.191c0,0-6.527-16.146-11.165-18.036c-4.638-1.89-12.024,9.447-12.024,9.447s-9.276-12.024-14.257-8.417
			c-4.981,3.607-9.791,15.116-9.791,15.116l-0.113,0.323c0.493,0.979,1.041,1.999,1.645,3.013
			c2.742,4.603,5.386,10.087,5.876,13.514c0.49,3.427-5.19,11.066-8.618,20.076c-1.835,4.822-3.496,8.982-4.663,14.139
			c2.005-0.288,4.53-0.359,7.592,0.122c8.76,1.374,20.956,19.753,20.956,19.753s8.589-14.085,17.005-16.661
			C126.277,233.806,130.57,237.428,132.298,239.329z"/>
		<path style="fill:none;stroke:#263238;stroke-linecap:round;stroke-linejoin:round;stroke-miterlimit:10;" d="M104.828,330.572
			c0.37,3.247,0.629,5.472,0.674,5.833"/>
		<path style="fill:none;stroke:#263238;stroke-linecap:round;stroke-linejoin:round;stroke-miterlimit:10;" d="M102.925,252.411
			c0,0-2.233,36.415-1.546,45.347c0.43,5.586,1.867,18.763,2.926,28.188"/>
		<g>
			<path style="fill:#E5E5E5;stroke:#263238;stroke-linecap:round;stroke-linejoin:round;stroke-miterlimit:10;" d="M52.974,192.304
				c0,0,2.405,2.233,6.012,10.306c3.607,8.073,11.646,14.244,14.566,16.305c2.92,2.061,2.92,2.061,2.92,2.061
				s5.668-7.901,6.871-7.901c1.202,0,3.435,0.859,4.638,1.202c1.202,0.344,4.664,1.68,4.41,2.357
				c-0.254,0.677-1.863,0.169-1.863,0.169s2.455,1.185,1.947,1.778c-0.508,0.593-2.286,0.677-2.286,0.677s1.439,1.693,0.508,1.947
				c-0.931,0.254-2.455-0.085-2.455-0.085s0.762,0.931,0.339,1.185c-0.423,0.254-2.201-0.085-2.963-0.339
				c-0.762-0.254-2.201-1.016-2.963-0.931c-0.762,0.085-2.37,4.233-3.979,5.757c-1.609,1.524-3.386,1.524-4.402,0.847
				c-1.016-0.677-15.645-10.455-17.677-12.572c-2.032-2.117-8.079-6.546-10.534-10.609c-2.292-3.793-5.043-6.83-3.181-9.624
				c1.862-2.794,4.656-5.588,4.656-5.588"/>
			<path style="fill:#E5E5E5;stroke:#263238;stroke-linecap:round;stroke-linejoin:round;stroke-miterlimit:10;" d="M83.343,213.076
				c0,0,2.021-0.843,3.037-1.436c1.016-0.593,1.778-2.201,1.778-0.847c0,1.355-0.254,2.032-0.847,2.455
				c-0.593,0.423-0.593,0.423-0.593,0.423L83.343,213.076z"/>
			<path style="fill:none;stroke:#263238;stroke-linecap:round;stroke-linejoin:round;stroke-miterlimit:10;" d="M90.528,216.804
				c0,0-5.08-1.862-6.18-2.032"/>
			<path style="fill:none;stroke:#263238;stroke-linecap:round;stroke-linejoin:round;stroke-miterlimit:10;" d="M90.189,219.259
				c0,0-5.672-2.54-6.434-2.624"/>
			<path style="fill:none;stroke:#263238;stroke-linecap:round;stroke-linejoin:round;stroke-miterlimit:10;" d="M88.242,221.122
				c0,0-3.471-1.947-5.08-2.37"/>
		</g>
		<path style="fill:#E5E5E5;stroke:#263238;stroke-linecap:round;stroke-linejoin:round;stroke-miterlimit:10;" d="M93.752,118.119
			c0,0-3.155-4.071-4.275-1.425c-1.119,2.646,2.036,8.142,2.951,8.549c0.916,0.407,1.832,0.611,1.832,0.611L93.752,118.119z"/>
		<path style="fill:#E5E5E5;stroke:#263238;stroke-linecap:round;stroke-linejoin:round;stroke-miterlimit:10;" d="M119.029,118.339
			c0,0,3.155-4.071,4.275-1.425c1.119,2.646-2.035,8.142-2.951,8.549c-0.916,0.407-1.832,0.611-1.832,0.611L119.029,118.339z"/>
		<path style="fill:#E5E5E5;stroke:#263238;stroke-linecap:round;stroke-linejoin:round;stroke-miterlimit:10;" d="M120.519,113.132
			c0,0-1.323,13.435-1.934,16.895c-0.611,3.46-5.089,8.244-7.43,9.363c-2.341,1.12-5.191,2.036-9.567-1.323
			c-4.376-3.359-5.903-5.598-6.717-8.753c-0.814-3.155-2.137-17.709-2.137-17.709s-0.161-6,3.359-10.381
			C101.08,95.016,120.519,93.794,120.519,113.132z"/>
		<path style="fill:#263238;stroke:#263238;stroke-linecap:round;stroke-linejoin:round;stroke-miterlimit:10;" d="M97.619,104.582
			c0,0,0.916,3.969,7.328,8.244c6.412,4.275,14.656,4.173,14.656,4.173l-0.509-1.934c0,0,4.58,2.544,5.801,2.035
			c1.221-0.509,0.407-4.987,0.407-4.987s2.239,4.071,2.748,3.257c0.509-0.814,2.341-7.837-0.203-13.638
			c-2.544-5.801-15.674-17.709-21.882-16.284c-6.208,1.425-12.009,8.753-12.009,8.753s-3.359-0.102-4.885,4.071
			c-1.527,4.173-0.611,8.346,0.814,10.178c1.425,1.832,2.137,4.173,2.341,6.514c0.203,2.341,0.814,4.173,1.527,3.155
			c0.712-1.018,0.305-1.934,0.712-2.748C94.871,114.557,99.044,111.809,97.619,104.582z"/>
		<g>
			<path style="fill:#263238;" d="M101.672,118.826c0,1.117-0.56,2.022-1.251,2.022c-0.691,0-1.251-0.905-1.251-2.022
				s0.56-2.021,1.251-2.021C101.111,116.804,101.672,117.709,101.672,118.826z"/>
			<path style="fill:#263238;" d="M114.86,118.826c0,1.117-0.56,2.022-1.251,2.022c-0.691,0-1.251-0.905-1.251-2.022
				s0.56-2.021,1.251-2.021C114.299,116.804,114.86,117.709,114.86,118.826z"/>
			<path style="fill:none;stroke:#263238;stroke-linecap:round;stroke-linejoin:round;stroke-miterlimit:10;" d="M102.717,130.18
				c0,0,4.188,3.899,9.53,0"/>
			<path style="fill:none;stroke:#263238;stroke-linecap:round;stroke-linejoin:round;stroke-miterlimit:10;" d="M110.03,117.671
				c0,0-1.372,3.259-0.686,6.346c0.686,3.087,0.172,3.773-1.543,3.43c-1.715-0.343-2.401-1.372-2.401-1.372"/>
			<path style="fill:none;stroke:#263238;stroke-linecap:round;stroke-linejoin:round;stroke-miterlimit:10;" d="M96.473,115.456
				c0,0,1.348-2.31,6.353-1.925"/>
			<path style="fill:none;stroke:#263238;stroke-linecap:round;stroke-linejoin:round;stroke-miterlimit:10;" d="M110.528,113.724
				c0,0,3.851-0.77,6.931,1.733"/>
		</g>
	</g>
</g>
<g id="Shape_5">
	<polygon style="fill:#263238;" points="654.685,455.85 679.464,412.933 629.907,412.933 	"/>
</g>
<g id="Shape_4">
	<polygon style="fill:#263238;" points="522.471,412.933 497.693,455.85 547.25,455.85 	"/>
</g>
<g id="Shape_3">
	<circle style="fill:#263238;" cx="375.034" cy="435.887" r="22.954"/>
</g>
<g id="Shape_2">
	<rect x="221.452" y="412.58" style="fill:#263238;" width="25.916" height="42.685"/>
</g>
<g id="Shape_1">
	<polygon style="fill:#263238;" points="127.004,412.933 93.203,412.933 105.586,434.382 93.203,455.83 127.004,455.83 
		114.621,434.382 	"/>
</g>
</svg>
