<?xml version="1.0" encoding="utf-8"?>
<!-- Generator: Adobe Illustrator 27.5.0, SVG Export Plug-In . SVG Version: 6.00 Build 0)  -->
<svg version="1.1" xmlns="http://www.w3.org/2000/svg" xmlns:xlink="http://www.w3.org/1999/xlink" x="0px" y="0px"
	 viewBox="0 0 500 500" style="enable-background:new 0 0 500 500;" xml:space="preserve">
<g id="Background_Simple">
	<g>
		<path style="fill:#92E3A9;" d="M477.917,183.34c-1.965-6.318-4.29-12.502-7.022-18.509
			c-15.686-34.497-36.605-67.029-64.893-92.575C361.977,32.499,299.087,9.418,239.239,14.223
			C168.218,19.926,124.84,68.28,97.045,130.527c-3.883,8.695-7.418,17.546-10.647,26.505c-10.549,29.275-17.165,59.95-28.682,88.863
			c-11.797,29.614-35.929,52.435-43.69,83.935c-4.38,17.779-4.379,36.752,0.804,54.388c14.436,49.123,64.455,69.544,111.503,73.973
			c136.057,12.808,164.102-34.108,222.067-30.888c52.272,2.903,99.6-39.186,121.622-83.523
			C494.376,294.748,493.93,234.837,477.917,183.34z"/>
		<path style="opacity:0.8;fill:#FFFFFF;" d="M477.917,183.34c-1.965-6.318-4.29-12.502-7.022-18.509
			c-15.686-34.497-36.605-67.029-64.893-92.575C361.977,32.499,299.087,9.418,239.239,14.223
			C168.218,19.926,124.84,68.28,97.045,130.527c-3.883,8.695-7.418,17.546-10.647,26.505c-10.549,29.275-17.165,59.95-28.682,88.863
			c-11.797,29.614-35.929,52.435-43.69,83.935c-4.38,17.779-4.379,36.752,0.804,54.388c14.436,49.123,64.455,69.544,111.503,73.973
			c136.057,12.808,164.102-34.108,222.067-30.888c52.272,2.903,99.6-39.186,121.622-83.523
			C494.376,294.748,493.93,234.837,477.917,183.34z"/>
	</g>
</g>
<g id="Clouds">
	<g>
		<path style="fill:none;stroke:#263238;stroke-linecap:round;stroke-linejoin:round;stroke-miterlimit:10;" d="M261.514,19.279
			c-2.97-2.393-6.771-4.336-11.626-5.265c-14.152-2.706-21.089,14.441-26.472,19.055c-5.383,4.614-12.304-8.459-20.763-3.845
			c-8.459,4.614-9.997,12.304-13.073,13.842c-3.076,1.538-8.459-3.845-15.38-0.769c-6.921,3.076-10.766,12.304-10.766,12.304
			h139.957c0,0-3.499-15.882-9.997-19.994c-11.896-7.527-16.149,6.921-21.532,3.076c0,0-1.172-9.151-7.958-16.212"/>
		
			<line style="fill:none;stroke:#263238;stroke-linecap:round;stroke-linejoin:round;stroke-miterlimit:10;" x1="152.948" y1="49.84" x2="200.996" y2="49.84"/>
		
			<line style="fill:none;stroke:#263238;stroke-linecap:round;stroke-linejoin:round;stroke-miterlimit:10;" x1="210.62" y1="59.534" x2="182.451" y2="59.534"/>
		
			<line style="fill:none;stroke:#263238;stroke-linecap:round;stroke-linejoin:round;stroke-miterlimit:10;" x1="215.748" y1="59.534" x2="213.136" y2="59.534"/>
	</g>
	<g>
		<path style="fill:none;stroke:#263238;stroke-linecap:round;stroke-linejoin:round;stroke-miterlimit:10;" d="M103.102,179.641
			c-1.743-1.404-3.974-2.545-6.823-3.09c-8.306-1.588-12.377,8.475-15.536,11.183c-3.159,2.708-7.221-4.964-12.185-2.257
			c-4.964,2.708-5.867,7.221-7.672,8.124c-1.805,0.903-4.964-2.257-9.026-0.451c-4.062,1.805-6.318,7.221-6.318,7.221h82.138
			c0,0-2.053-9.321-5.867-11.734c-6.981-4.417-9.478,4.062-12.637,1.805c0,0-0.688-5.37-4.671-9.514"/>
		
			<line style="fill:none;stroke:#263238;stroke-linecap:round;stroke-linejoin:round;stroke-miterlimit:10;" x1="39.387" y1="197.576" x2="67.585" y2="197.576"/>
		
			<line style="fill:none;stroke:#263238;stroke-linecap:round;stroke-linejoin:round;stroke-miterlimit:10;" x1="73.233" y1="203.265" x2="56.702" y2="203.265"/>
		
			<line style="fill:none;stroke:#263238;stroke-linecap:round;stroke-linejoin:round;stroke-miterlimit:10;" x1="76.243" y1="203.265" x2="74.71" y2="203.265"/>
	</g>
</g>
<g id="Mountain">
	<g>
		
			<line style="fill:none;stroke:#263238;stroke-linecap:round;stroke-linejoin:round;stroke-miterlimit:10;" x1="459.25" y1="310" x2="464.282" y2="314.183"/>
		<polyline style="fill:none;stroke:#263238;stroke-linecap:round;stroke-linejoin:round;stroke-miterlimit:10;" points="
			34.089,290.354 132.061,219.481 207.669,269.123 332.921,204.97 455.501,306.883 		"/>
		
			<line style="fill:none;stroke:#263238;stroke-linecap:round;stroke-linejoin:round;stroke-miterlimit:10;" x1="24.375" y1="297.381" x2="29.101" y2="293.962"/>
		<polygon style="fill:none;stroke:#263238;stroke-linecap:round;stroke-linejoin:round;stroke-miterlimit:10;" points="
			96.887,244.788 118.081,236.671 114.023,245.69 123.493,242.984 122.14,265.982 137.472,245.239 144.236,249.297 146.04,242.533 
			154.157,248.846 155.509,240.279 165.43,241.631 132.061,219.481 		"/>
		<polygon style="fill:none;stroke:#263238;stroke-linecap:round;stroke-linejoin:round;stroke-miterlimit:10;" points="
			288.587,228.193 316.949,220.058 309.473,231.051 320.906,223.356 320.686,233.03 327.722,226.654 338.275,251.498 
			340.473,229.292 342.892,230.831 342.892,225.115 350.807,233.469 351.906,229.512 366.417,237.867 363.559,230.831 
			332.921,204.97 		"/>
	</g>
</g>
<g id="Trees">
	<g>
		<path style="fill:#92E3A9;" d="M404.26,127.834c-42.959,0.07-77.761,33.145-77.761,73.939c0,0.205,0.001,0.408,0.003,0.612
			c0.191,22.191,18.646,40.02,40.831,39.466c3.446-0.086,7.121,0.091,10.796,0.684c7.353,1.186,13.044,5.499,16.903,10.484
			c2.132,2.754,5.336,4.493,8.819,4.506c0.136,0.001,0.273,0.001,0.41,0.001c0.137,0,0.273,0,0.41-0.001
			c3.483-0.013,6.687-1.752,8.819-4.506c3.859-4.985,9.55-9.298,16.903-10.484c3.675-0.593,7.35-0.77,10.796-0.684
			c22.185,0.554,40.641-17.275,40.831-39.466c0.002-0.203,0.003-0.407,0.003-0.612C482.021,160.979,447.218,127.904,404.26,127.834z
			"/>
		<path style="opacity:0.3;fill:#FFFFFF;" d="M404.26,127.834c-42.959,0.07-77.761,33.145-77.761,73.939
			c0,0.205,0.001,0.408,0.003,0.612c0.191,22.191,18.646,40.02,40.831,39.466c3.446-0.086,7.121,0.091,10.796,0.684
			c7.353,1.186,13.044,5.499,16.903,10.484c2.132,2.754,5.336,4.493,8.819,4.506c0.136,0.001,0.273,0.001,0.41,0.001
			c0.137,0,0.273,0,0.41-0.001c3.483-0.013,6.687-1.752,8.819-4.506c3.859-4.985,9.55-9.298,16.903-10.484
			c3.675-0.593,7.35-0.77,10.796-0.684c22.185,0.554,40.641-17.275,40.831-39.466c0.002-0.203,0.003-0.407,0.003-0.612
			C482.021,160.979,447.218,127.904,404.26,127.834z"/>
		<g>
			<path style="fill:#FFFFFF;" d="M390.794,192.796c0,0-1.538-4.394-4.833-5.931c-3.295-1.538-5.492-1.977-5.492-1.977
				S382.227,193.894,390.794,192.796z"/>
			<path style="fill:#FFFFFF;" d="M394.773,181.118c0,0-0.253-4.648-2.99-7.042c-2.736-2.395-4.724-3.428-4.724-3.428
				S386.239,179.787,394.773,181.118z"/>
			<path style="fill:#FFFFFF;" d="M431.387,216.708c0,0-2.948-3.602-6.57-3.92c-3.622-0.318-5.837,0.021-5.837,0.021
				S423.712,220.671,431.387,216.708z"/>
			<path style="fill:#FFFFFF;" d="M446.958,225.337c0,0-2.948-3.602-6.57-3.92c-3.622-0.318-5.837,0.021-5.837,0.021
				S439.283,229.3,446.958,225.337z"/>
			<path style="fill:#FFFFFF;" d="M373.859,215.607c0,0,2.948-3.602,6.57-3.92c3.622-0.318,5.837,0.021,5.837,0.021
				S381.534,219.57,373.859,215.607z"/>
			<path style="fill:#FFFFFF;" d="M352.135,222.175c0,0,2.948-3.602,6.57-3.92c3.622-0.318,5.837,0.021,5.837,0.021
				S359.81,226.137,352.135,222.175z"/>
			<path style="fill:#FFFFFF;" d="M381.813,177.164c0,0-0.253-4.648-2.99-7.042c-2.736-2.395-4.724-3.428-4.724-3.428
				S373.279,175.833,381.813,177.164z"/>
			<path style="fill:#FFFFFF;" d="M369.116,161.652c0,0-0.253-4.648-2.99-7.043c-2.736-2.395-4.724-3.428-4.724-3.428
				S360.582,160.321,369.116,161.652z"/>
			<path style="fill:#FFFFFF;" d="M424.868,179.8c0,0,0.253-4.648,2.99-7.042c2.736-2.395,4.724-3.428,4.724-3.428
				S433.402,178.469,424.868,179.8z"/>
			<path style="fill:#FFFFFF;" d="M440.529,171.212c0,0,0.253-4.648,2.99-7.042s4.724-3.428,4.724-3.428
				S449.063,169.88,440.529,171.212z"/>
			<path style="fill:#FFFFFF;" d="M403.433,173.821c0,0,2.684-3.803,2.023-7.378c-0.661-3.576-1.579-5.619-1.579-5.619
				S397.565,167.484,403.433,173.821z"/>
			<path style="fill:#FFFFFF;" d="M406.423,191.319c0,0,0.436-4.634-1.917-7.407c-2.353-2.772-4.166-4.088-4.166-4.088
				S398.179,188.742,406.423,191.319z"/>
			<path style="fill:#FFFFFF;" d="M395.366,170.149c0,0,1.39-4.442-0.335-7.643c-1.725-3.201-3.225-4.865-3.225-4.865
				S387.838,165.915,395.366,170.149z"/>
			<path style="fill:#FFFFFF;" d="M395.366,152.467c0,0,1.39-4.442-0.335-7.643c-1.725-3.201-3.225-4.865-3.225-4.865
				S387.838,148.233,395.366,152.467z"/>
			<path style="fill:#FFFFFF;" d="M398.881,204.637c0,0,1.39-4.442-0.335-7.643c-1.725-3.201-3.225-4.865-3.225-4.865
				S391.353,200.403,398.881,204.637z"/>
			<path style="fill:#FFFFFF;" d="M409.293,199.42c0,0,3.932-2.492,4.684-6.049c0.753-3.558,0.684-5.797,0.684-5.797
				S406.286,191.324,409.293,199.42z"/>
			<path style="fill:#FFFFFF;" d="M409.761,170.149c0,0-1.39-4.442,0.335-7.643c1.725-3.201,3.225-4.865,3.225-4.865
				S417.289,165.915,409.761,170.149z"/>
			<path style="fill:#FFFFFF;" d="M424.394,155.18c0,0-1.39-4.442,0.335-7.643c1.725-3.201,3.225-4.865,3.225-4.865
				S431.922,150.945,424.394,155.18z"/>
			<path style="fill:#FFFFFF;" d="M415.242,181.317c0,0,3.922-2.507,4.661-6.067c0.739-3.56,0.661-5.799,0.661-5.799
				S412.204,173.232,415.242,181.317z"/>
			<path style="fill:#FFFFFF;" d="M425.82,193.484c0,0,4.506-1.168,6.311-4.324c1.806-3.156,2.426-5.309,2.426-5.309
				S425.436,184.855,425.82,193.484z"/>
			<path style="fill:#FFFFFF;" d="M426.832,204.35c0,0,4.227,1.949,7.623,0.65c3.396-1.299,5.239-2.573,5.239-2.573
				S431.999,197.429,426.832,204.35z"/>
			<path style="fill:#FFFFFF;" d="M432.763,194.465c0,0,4.227,1.949,7.623,0.65c3.396-1.299,5.239-2.572,5.239-2.572
				S437.93,187.543,432.763,194.465z"/>
			<path style="fill:#FFFFFF;" d="M451.46,195.385c0,0,4.227,1.949,7.623,0.65c3.396-1.299,5.239-2.572,5.239-2.572
				S456.627,188.464,451.46,195.385z"/>
			<path style="fill:#FFFFFF;" d="M373.589,200.779c0,0,2.84,3.688,6.451,4.114c3.611,0.425,5.835,0.152,5.835,0.152
				S381.378,197.046,373.589,200.779z"/>
			<path style="fill:#FFFFFF;" d="M364.363,188.038c0,0,2.84,3.688,6.451,4.113c3.611,0.425,5.835,0.153,5.835,0.153
				S372.152,184.305,364.363,188.038z"/>
			<path style="fill:#FFFFFF;" d="M342.64,185.512c0,0,2.84,3.688,6.451,4.113c3.611,0.425,5.835,0.152,5.835,0.152
				S350.429,181.779,342.64,185.512z"/>
		</g>
		<polygon style="fill:#A3A3A3;" points="431.158,218.702 413.957,222.421 434.484,196.847 406.452,222.978 406.28,224.789 
			405.027,197.322 403.048,240.706 375.408,214.939 395.935,240.513 378.733,236.794 400.478,246.174 402.674,248.91 
			398.851,392.453 411.203,392.453 406.591,231.6 409.414,228.082 		"/>
	</g>
	<g>
		<path style="fill:#92E3A9;" d="M270.624,183.646c-42.959,0.07-77.761,33.145-77.761,73.939c0,0.205,0.001,0.408,0.003,0.612
			c0.191,22.191,18.646,40.02,40.831,39.466c3.446-0.086,7.121,0.091,10.796,0.684c7.352,1.186,13.044,5.499,16.903,10.484
			c2.132,2.754,5.336,4.493,8.819,4.506c0.136,0,0.273,0.001,0.41,0.001c0.137,0,0.273,0,0.41-0.001
			c3.483-0.013,6.687-1.752,8.819-4.506c3.859-4.985,9.55-9.298,16.903-10.484c3.675-0.593,7.35-0.77,10.796-0.684
			c22.185,0.554,40.641-17.275,40.831-39.466c0.002-0.203,0.003-0.407,0.003-0.612C348.385,216.791,313.582,183.716,270.624,183.646
			z"/>
		<path style="opacity:0.5;fill:#FFFFFF;" d="M270.624,183.646c-42.959,0.07-77.761,33.145-77.761,73.939
			c0,0.205,0.001,0.408,0.003,0.612c0.191,22.191,18.646,40.02,40.831,39.466c3.446-0.086,7.121,0.091,10.796,0.684
			c7.352,1.186,13.044,5.499,16.903,10.484c2.132,2.754,5.336,4.493,8.819,4.506c0.136,0,0.273,0.001,0.41,0.001
			c0.137,0,0.273,0,0.41-0.001c3.483-0.013,6.687-1.752,8.819-4.506c3.859-4.985,9.55-9.298,16.903-10.484
			c3.675-0.593,7.35-0.77,10.796-0.684c22.185,0.554,40.641-17.275,40.831-39.466c0.002-0.203,0.003-0.407,0.003-0.612
			C348.385,216.791,313.582,183.716,270.624,183.646z"/>
		<g>
			<path style="fill:#FFFFFF;" d="M257.158,248.608c0,0-1.538-4.393-4.833-5.931c-3.295-1.538-5.492-1.977-5.492-1.977
				S248.59,249.706,257.158,248.608z"/>
			<path style="fill:#FFFFFF;" d="M261.137,236.93c0,0-0.253-4.648-2.99-7.042c-2.736-2.395-4.724-3.428-4.724-3.428
				S252.603,235.599,261.137,236.93z"/>
			<path style="fill:#FFFFFF;" d="M297.75,272.52c0,0-2.948-3.602-6.57-3.92c-3.622-0.318-5.837,0.021-5.837,0.021
				S290.076,276.483,297.75,272.52z"/>
			<path style="fill:#FFFFFF;" d="M313.322,281.15c0,0-2.948-3.602-6.57-3.92c-3.622-0.318-5.837,0.021-5.837,0.021
				S305.647,285.113,313.322,281.15z"/>
			<path style="fill:#FFFFFF;" d="M240.223,271.42c0,0,2.948-3.602,6.57-3.92c3.622-0.318,5.837,0.021,5.837,0.021
				S247.897,275.382,240.223,271.42z"/>
			<path style="fill:#FFFFFF;" d="M218.499,277.987c0,0,2.948-3.602,6.57-3.92c3.622-0.318,5.837,0.021,5.837,0.021
				S226.174,281.95,218.499,277.987z"/>
			<path style="fill:#FFFFFF;" d="M248.176,232.976c0,0-0.253-4.648-2.99-7.042c-2.736-2.395-4.724-3.428-4.724-3.428
				S239.642,231.645,248.176,232.976z"/>
			<path style="fill:#FFFFFF;" d="M235.479,217.464c0,0-0.253-4.648-2.99-7.043c-2.736-2.395-4.724-3.428-4.724-3.428
				S226.945,216.133,235.479,217.464z"/>
			<path style="fill:#FFFFFF;" d="M291.232,235.612c0,0,0.253-4.648,2.99-7.042c2.736-2.395,4.724-3.428,4.724-3.428
				S299.766,234.281,291.232,235.612z"/>
			<path style="fill:#FFFFFF;" d="M306.893,227.024c0,0,0.253-4.648,2.99-7.042s4.724-3.428,4.724-3.428
				S315.427,225.693,306.893,227.024z"/>
			<path style="fill:#FFFFFF;" d="M269.797,229.633c0,0,2.684-3.803,2.023-7.378c-0.661-3.576-1.579-5.619-1.579-5.619
				S263.928,223.296,269.797,229.633z"/>
			<path style="fill:#FFFFFF;" d="M272.786,247.132c0,0,0.436-4.634-1.917-7.407c-2.353-2.772-4.166-4.088-4.166-4.088
				S264.543,244.555,272.786,247.132z"/>
			<path style="fill:#FFFFFF;" d="M261.73,225.962c0,0,1.39-4.442-0.335-7.643c-1.725-3.201-3.225-4.865-3.225-4.865
				S254.202,221.727,261.73,225.962z"/>
			<path style="fill:#FFFFFF;" d="M261.73,208.279c0,0,1.39-4.442-0.335-7.643c-1.725-3.201-3.225-4.865-3.225-4.865
				S254.202,204.045,261.73,208.279z"/>
			<path style="fill:#FFFFFF;" d="M265.245,260.45c0,0,1.39-4.442-0.335-7.643c-1.725-3.201-3.225-4.865-3.225-4.865
				S257.717,256.215,265.245,260.45z"/>
			<path style="fill:#FFFFFF;" d="M275.657,255.233c0,0,3.932-2.492,4.684-6.049c0.753-3.557,0.684-5.797,0.684-5.797
				S272.65,247.136,275.657,255.233z"/>
			<path style="fill:#FFFFFF;" d="M276.125,225.962c0,0-1.39-4.442,0.335-7.643c1.725-3.201,3.225-4.865,3.225-4.865
				S283.653,221.727,276.125,225.962z"/>
			<path style="fill:#FFFFFF;" d="M290.758,210.992c0,0-1.39-4.442,0.335-7.643c1.725-3.201,3.225-4.865,3.225-4.865
				S298.286,206.758,290.758,210.992z"/>
			<path style="fill:#FFFFFF;" d="M281.606,237.13c0,0,3.922-2.507,4.661-6.067c0.739-3.56,0.661-5.799,0.661-5.799
				S278.567,229.045,281.606,237.13z"/>
			<path style="fill:#FFFFFF;" d="M292.184,249.296c0,0,4.506-1.168,6.311-4.324c1.806-3.156,2.426-5.309,2.426-5.309
				S291.8,240.667,292.184,249.296z"/>
			<path style="fill:#FFFFFF;" d="M293.195,260.162c0,0,4.227,1.949,7.623,0.65c3.396-1.299,5.239-2.573,5.239-2.573
				S298.363,253.241,293.195,260.162z"/>
			<path style="fill:#FFFFFF;" d="M299.127,250.277c0,0,4.227,1.95,7.623,0.65c3.396-1.299,5.239-2.573,5.239-2.573
				S304.294,243.356,299.127,250.277z"/>
			<path style="fill:#FFFFFF;" d="M317.823,251.198c0,0,4.227,1.949,7.623,0.65c3.396-1.299,5.239-2.573,5.239-2.573
				S322.991,244.277,317.823,251.198z"/>
			<path style="fill:#FFFFFF;" d="M239.953,256.592c0,0,2.84,3.688,6.451,4.113c3.611,0.425,5.835,0.152,5.835,0.152
				S247.742,252.859,239.953,256.592z"/>
			<path style="fill:#FFFFFF;" d="M230.727,243.851c0,0,2.84,3.688,6.451,4.113c3.611,0.425,5.835,0.152,5.835,0.152
				S238.516,240.118,230.727,243.851z"/>
			<path style="fill:#FFFFFF;" d="M209.004,241.325c0,0,2.84,3.688,6.451,4.113c3.611,0.425,5.835,0.152,5.835,0.152
				S216.792,237.592,209.004,241.325z"/>
		</g>
		<polygon style="fill:#A3A3A3;" points="245.097,292.607 266.842,301.987 269.038,304.723 266.764,390.097 275.899,390.097 
			272.954,287.412 275.778,283.895 297.522,274.515 280.321,278.234 300.848,252.659 272.816,278.791 272.644,280.601 
			271.391,253.134 269.412,296.518 241.771,270.751 262.298,296.326 		"/>
	</g>
	<g>
		<path style="fill:#92E3A9;" d="M372.271,18.621c-60.688,0.099-109.855,46.825-109.855,104.455c0,0.289,0.001,0.577,0.004,0.864
			c0.27,31.35,26.342,56.537,57.683,55.755c4.868-0.121,10.06,0.128,15.252,0.966c10.387,1.676,18.428,7.768,23.879,14.81
			c3.012,3.891,7.538,6.348,12.458,6.366c0.193,0.001,0.386,0.001,0.579,0.001c0.193,0,0.386-0.001,0.579-0.001
			c4.92-0.018,9.447-2.475,12.458-6.366c5.451-7.042,13.492-13.135,23.879-14.81c5.192-0.837,10.384-1.087,15.252-0.966
			c31.341,0.782,57.414-24.405,57.683-55.755c0.003-0.287,0.004-0.575,0.004-0.864C482.126,65.446,432.959,18.719,372.271,18.621z"
			/>
		<path style="opacity:0.3;fill:#FFFFFF;" d="M372.271,18.621c-60.688,0.099-109.855,46.825-109.855,104.455
			c0,0.289,0.001,0.577,0.004,0.864c0.27,31.35,26.342,56.537,57.683,55.755c4.868-0.121,10.06,0.128,15.252,0.966
			c10.387,1.676,18.428,7.768,23.879,14.81c3.012,3.891,7.538,6.348,12.458,6.366c0.193,0.001,0.386,0.001,0.579,0.001
			c0.193,0,0.386-0.001,0.579-0.001c4.92-0.018,9.447-2.475,12.458-6.366c5.451-7.042,13.492-13.135,23.879-14.81
			c5.192-0.837,10.384-1.087,15.252-0.966c31.341,0.782,57.414-24.405,57.683-55.755c0.003-0.287,0.004-0.575,0.004-0.864
			C482.126,65.446,432.959,18.719,372.271,18.621z"/>
		<g>
			<path style="fill:#FFFFFF;" d="M353.247,110.393c0,0-2.172-6.207-6.827-8.379c-4.655-2.172-7.758-2.793-7.758-2.793
				S341.144,111.945,353.247,110.393z"/>
			<path style="fill:#FFFFFF;" d="M358.869,93.896c0,0-0.358-6.566-4.223-9.949c-3.866-3.383-6.673-4.843-6.673-4.843
				S346.813,92.016,358.869,93.896z"/>
			<path style="fill:#FFFFFF;" d="M410.594,144.174c0,0-4.165-5.089-9.282-5.538c-5.117-0.449-8.246,0.029-8.246,0.029
				S399.751,149.773,410.594,144.174z"/>
			<path style="fill:#FFFFFF;" d="M432.592,156.366c0,0-4.165-5.089-9.282-5.538c-5.117-0.449-8.246,0.029-8.246,0.029
				S421.749,161.964,432.592,156.366z"/>
			<path style="fill:#FFFFFF;" d="M329.323,142.62c0,0,4.165-5.089,9.282-5.538c5.117-0.449,8.246,0.03,8.246,0.03
				S340.166,148.218,329.323,142.62z"/>
			<path style="fill:#FFFFFF;" d="M298.634,151.898c0,0,4.165-5.089,9.282-5.538c5.117-0.449,8.246,0.029,8.246,0.029
				S309.476,157.496,298.634,151.898z"/>
			<path style="fill:#FFFFFF;" d="M340.56,88.311c0,0-0.358-6.566-4.224-9.949c-3.866-3.383-6.673-4.843-6.673-4.843
				S328.503,86.43,340.56,88.311z"/>
			<path style="fill:#FFFFFF;" d="M322.622,66.396c0,0-0.358-6.566-4.223-9.949c-3.866-3.383-6.673-4.843-6.673-4.843
				S310.566,64.516,322.622,66.396z"/>
			<path style="fill:#FFFFFF;" d="M401.385,92.034c0,0,0.358-6.566,4.223-9.949c3.866-3.383,6.674-4.843,6.674-4.843
				S413.441,90.154,401.385,92.034z"/>
			<path style="fill:#FFFFFF;" d="M423.51,79.901c0,0,0.358-6.566,4.224-9.949c3.866-3.383,6.673-4.843,6.673-4.843
				S435.566,78.021,423.51,79.901z"/>
			<path style="fill:#FFFFFF;" d="M371.104,83.588c0,0,3.792-5.372,2.858-10.424c-0.934-5.051-2.231-7.938-2.231-7.938
				S362.813,74.635,371.104,83.588z"/>
			<path style="fill:#FFFFFF;" d="M375.327,108.308c0,0,0.616-6.547-2.708-10.464c-3.324-3.917-5.885-5.776-5.885-5.776
				S363.68,104.668,375.327,108.308z"/>
			<path style="fill:#FFFFFF;" d="M359.707,78.4c0,0,1.964-6.276-0.474-10.798c-2.437-4.522-4.556-6.873-4.556-6.873
				S349.072,72.418,359.707,78.4z"/>
			<path style="fill:#FFFFFF;" d="M359.707,53.421c0,0,1.964-6.276-0.474-10.798c-2.437-4.522-4.556-6.873-4.556-6.873
				S349.072,47.439,359.707,53.421z"/>
			<path style="fill:#FFFFFF;" d="M364.672,127.123c0,0,1.964-6.276-0.474-10.798c-2.437-4.522-4.556-6.873-4.556-6.873
				S354.037,121.14,364.672,127.123z"/>
			<path style="fill:#FFFFFF;" d="M379.382,119.752c0,0,5.555-3.52,6.618-8.546c1.063-5.026,0.966-8.189,0.966-8.189
				S375.134,108.314,379.382,119.752z"/>
			<path style="fill:#FFFFFF;" d="M380.043,78.4c0,0-1.964-6.276,0.473-10.798c2.437-4.522,4.556-6.873,4.556-6.873
				S390.678,72.418,380.043,78.4z"/>
			<path style="fill:#FFFFFF;" d="M400.715,57.253c0,0-1.964-6.276,0.474-10.798c2.437-4.522,4.556-6.873,4.556-6.873
				S411.35,51.271,400.715,57.253z"/>
			<path style="fill:#FFFFFF;" d="M387.787,94.178c0,0,5.541-3.541,6.584-8.571c1.044-5.03,0.934-8.193,0.934-8.193
				S383.493,82.756,387.787,94.178z"/>
			<path style="fill:#FFFFFF;" d="M402.73,111.365c0,0,6.365-1.65,8.916-6.109c2.551-4.459,3.427-7.5,3.427-7.5
				S402.187,99.175,402.73,111.365z"/>
			<path style="fill:#FFFFFF;" d="M404.159,126.716c0,0,5.971,2.754,10.769,0.919c4.798-1.835,7.402-3.634,7.402-3.634
				S411.459,116.939,404.159,126.716z"/>
			<path style="fill:#FFFFFF;" d="M412.538,112.751c0,0,5.971,2.754,10.769,0.919c4.798-1.835,7.402-3.634,7.402-3.634
				S419.837,102.974,412.538,112.751z"/>
			<path style="fill:#FFFFFF;" d="M438.951,114.052c0,0,5.971,2.754,10.769,0.919c4.798-1.835,7.402-3.634,7.402-3.634
				S446.251,104.275,438.951,114.052z"/>
			<path style="fill:#FFFFFF;" d="M328.943,121.672c0,0,4.012,5.21,9.113,5.811c5.102,0.601,8.243,0.215,8.243,0.215
				S339.946,116.398,328.943,121.672z"/>
			<path style="fill:#FFFFFF;" d="M315.909,103.673c0,0,4.012,5.211,9.113,5.811c5.102,0.601,8.243,0.215,8.243,0.215
				S326.912,98.399,315.909,103.673z"/>
			<path style="fill:#FFFFFF;" d="M285.219,100.104c0,0,4.012,5.211,9.113,5.811c5.102,0.601,8.243,0.215,8.243,0.215
				S296.223,94.83,285.219,100.104z"/>
		</g>
		<polygon style="fill:#A3A3A3;" points="410.271,146.992 385.971,152.246 414.97,116.117 375.369,153.033 375.125,155.591 
			373.355,116.788 370.559,178.077 331.511,141.676 360.51,177.805 336.21,172.551 366.929,185.803 370.031,189.667 
			364.629,392.453 382.081,392.453 375.564,165.213 379.552,160.244 		"/>
	</g>
	<g>
		<path style="fill:#92E3A9;" d="M202.854,69.027c-52.505,0.085-95.042,40.511-95.042,90.371c0,0.25,0.001,0.499,0.003,0.748
			c0.233,27.123,22.79,48.913,49.905,48.237c4.212-0.105,8.703,0.111,13.195,0.836c8.987,1.45,15.943,6.721,20.659,12.813
			c2.606,3.366,6.521,5.492,10.778,5.507c0.167,0.001,0.334,0.001,0.501,0.001c0.167,0,0.334-0.001,0.501-0.001
			c4.257-0.015,8.173-2.141,10.779-5.507c4.716-6.093,11.673-11.364,20.659-12.813c4.492-0.725,8.984-0.941,13.195-0.836
			c27.115,0.677,49.672-21.114,49.905-48.237c0.002-0.249,0.003-0.498,0.003-0.748C297.896,109.538,255.359,69.112,202.854,69.027z"
			/>
		<path style="opacity:0.3;fill:#FFFFFF;" d="M202.854,69.027c-52.505,0.085-95.042,40.511-95.042,90.371
			c0,0.25,0.001,0.499,0.003,0.748c0.233,27.123,22.79,48.913,49.905,48.237c4.212-0.105,8.703,0.111,13.195,0.836
			c8.987,1.45,15.943,6.721,20.659,12.813c2.606,3.366,6.521,5.492,10.778,5.507c0.167,0.001,0.334,0.001,0.501,0.001
			c0.167,0,0.334-0.001,0.501-0.001c4.257-0.015,8.173-2.141,10.779-5.507c4.716-6.093,11.673-11.364,20.659-12.813
			c4.492-0.725,8.984-0.941,13.195-0.836c27.115,0.677,49.672-21.114,49.905-48.237c0.002-0.249,0.003-0.498,0.003-0.748
			C297.896,109.538,255.359,69.112,202.854,69.027z"/>
		<g>
			<path style="fill:#FFFFFF;" d="M186.395,148.425c0,0-1.879-5.37-5.907-7.249c-4.027-1.879-6.712-2.416-6.712-2.416
				S175.924,149.768,186.395,148.425z"/>
			<path style="fill:#FFFFFF;" d="M191.259,134.152c0,0-0.309-5.681-3.654-8.607c-3.345-2.927-5.774-4.19-5.774-4.19
				S180.828,132.525,191.259,134.152z"/>
			<path style="fill:#FFFFFF;" d="M236.009,177.651c0,0-3.603-4.403-8.03-4.791c-4.427-0.388-7.134,0.025-7.134,0.025
				S226.629,182.495,236.009,177.651z"/>
			<path style="fill:#FFFFFF;" d="M255.041,188.199c0,0-3.603-4.403-8.03-4.791c-4.427-0.388-7.134,0.026-7.134,0.026
				S245.661,193.042,255.041,188.199z"/>
			<path style="fill:#FFFFFF;" d="M165.697,176.306c0,0,3.603-4.403,8.03-4.791c4.427-0.389,7.134,0.025,7.134,0.025
				S175.077,181.15,165.697,176.306z"/>
			<path style="fill:#FFFFFF;" d="M139.146,184.333c0,0,3.603-4.403,8.03-4.791c4.427-0.389,7.134,0.025,7.134,0.025
				S148.526,189.177,139.146,184.333z"/>
			<path style="fill:#FFFFFF;" d="M175.418,129.32c0,0-0.309-5.681-3.654-8.608c-3.345-2.927-5.774-4.19-5.774-4.19
				S164.988,127.693,175.418,129.32z"/>
			<path style="fill:#FFFFFF;" d="M159.899,110.36c0,0-0.309-5.681-3.654-8.608c-3.345-2.927-5.773-4.19-5.773-4.19
				S149.469,108.733,159.899,110.36z"/>
			<path style="fill:#FFFFFF;" d="M228.042,132.542c0,0,0.309-5.681,3.654-8.607c3.344-2.927,5.774-4.19,5.774-4.19
				S238.473,130.915,228.042,132.542z"/>
			<path style="fill:#FFFFFF;" d="M247.184,122.045c0,0,0.309-5.681,3.654-8.607c3.344-2.927,5.774-4.19,5.774-4.19
				S257.614,120.418,247.184,122.045z"/>
			<path style="fill:#FFFFFF;" d="M201.844,125.234c0,0,3.281-4.648,2.472-9.018c-0.808-4.37-1.93-6.868-1.93-6.868
				S194.671,117.488,201.844,125.234z"/>
			<path style="fill:#FFFFFF;" d="M205.497,146.621c0,0,0.533-5.664-2.343-9.053c-2.876-3.389-5.091-4.997-5.091-4.997
				S195.421,143.471,205.497,146.621z"/>
			<path style="fill:#FFFFFF;" d="M191.984,120.746c0,0,1.699-5.43-0.41-9.342c-2.108-3.912-3.941-5.946-3.941-5.946
				S182.783,115.571,191.984,120.746z"/>
			<path style="fill:#FFFFFF;" d="M191.984,99.134c0,0,1.699-5.429-0.41-9.342c-2.108-3.912-3.941-5.946-3.941-5.946
				S182.783,93.959,191.984,99.134z"/>
			<path style="fill:#FFFFFF;" d="M196.28,162.899c0,0,1.699-5.43-0.41-9.342c-2.108-3.912-3.941-5.946-3.941-5.946
				S187.079,157.723,196.28,162.899z"/>
			<path style="fill:#FFFFFF;" d="M209.006,156.522c0,0,4.806-3.045,5.725-7.393c0.92-4.348,0.836-7.085,0.836-7.085
				S205.33,146.626,209.006,156.522z"/>
			<path style="fill:#FFFFFF;" d="M209.578,120.746c0,0-1.699-5.43,0.41-9.342s3.941-5.946,3.941-5.946
				S218.779,115.571,209.578,120.746z"/>
			<path style="fill:#FFFFFF;" d="M227.463,102.45c0,0-1.699-5.43,0.41-9.342c2.108-3.912,3.941-5.946,3.941-5.946
				S236.664,97.275,227.463,102.45z"/>
			<path style="fill:#FFFFFF;" d="M216.277,134.396c0,0,4.794-3.064,5.697-7.415c0.903-4.352,0.808-7.088,0.808-7.088
				S212.563,124.514,216.277,134.396z"/>
			<path style="fill:#FFFFFF;" d="M229.206,149.266c0,0,5.507-1.428,7.714-5.285c2.207-3.858,2.965-6.489,2.965-6.489
				S228.736,138.72,229.206,149.266z"/>
			<path style="fill:#FFFFFF;" d="M230.442,162.547c0,0,5.166,2.383,9.317,0.795c4.151-1.588,6.404-3.144,6.404-3.144
				S236.758,154.088,230.442,162.547z"/>
			<path style="fill:#FFFFFF;" d="M237.691,150.465c0,0,5.166,2.383,9.317,0.795c4.151-1.588,6.404-3.144,6.404-3.144
				S244.007,142.006,237.691,150.465z"/>
			<path style="fill:#FFFFFF;" d="M260.543,151.591c0,0,5.166,2.383,9.317,0.795c4.151-1.588,6.404-3.144,6.404-3.144
				S266.859,143.131,260.543,151.591z"/>
			<path style="fill:#FFFFFF;" d="M165.368,158.183c0,0,3.471,4.508,7.885,5.028c4.414,0.52,7.131,0.186,7.131,0.186
				S174.888,153.62,165.368,158.183z"/>
			<path style="fill:#FFFFFF;" d="M154.091,142.611c0,0,3.471,4.508,7.884,5.027c4.414,0.52,7.132,0.186,7.132,0.186
				S163.611,138.048,154.091,142.611z"/>
			<path style="fill:#FFFFFF;" d="M127.54,139.524c0,0,3.471,4.508,7.884,5.027c4.414,0.52,7.132,0.186,7.132,0.186
				S137.06,134.961,127.54,139.524z"/>
		</g>
		<polygon style="fill:#A3A3A3;" points="235.73,180.089 214.707,184.635 239.795,153.377 205.534,185.315 205.323,187.528 
			203.792,153.957 201.373,206.982 167.59,175.49 192.679,206.748 171.655,202.202 198.232,213.667 200.916,217.01 196.243,392.453 
			211.341,392.453 205.703,195.853 209.153,191.554 		"/>
	</g>
</g>
<g id="Plants_2">
	<path style="fill:#A3A3A3;" d="M479.442,392.004l-9.107-1.301c0,0-6.505-6.134-5.948-3.531c0.558,2.602,1.859,3.717,1.859,3.717
		s-9.479-4.647-7.992-2.788c1.487,1.859,2.23,2.602,2.23,2.602s-5.018-3.717-5.204-2.416c-0.186,1.301-0.186,1.301-0.186,1.301
		h-7.063c0,0,2.23-0.372,1.115-1.673c-1.115-1.301-3.16,0.929-3.16,0.929s3.903-4.832,0.929-4.461
		c-2.974,0.372-3.903,3.903-3.903,3.903s-0.743-6.134-2.602-5.762c-1.859,0.372-0.929,5.948-0.929,5.948s-3.16-4.089-3.346-2.602
		c-0.186,1.487,0.558,2.602,0.558,2.602s-3.903-4.461-5.204-3.346c-1.301,1.115-0.186,3.346-0.186,3.346s-6.134-2.788-5.948-1.487
		c0.186,1.301-0.352,2.808-0.352,2.808h-24.369l-1.047,0.206h-12.501c0,0,2.333-1.361,2.917-2.528
		c0.583-1.167-3.111-0.194-3.111-0.194s2.722-2.139,2.139-3.694c-0.583-1.556-4.861,4.083-4.861,4.083s-0.583-5.056-2.139-4.861
		c-1.556,0.195-0.389,7-0.389,7s-1.167-0.389-1.556-1.555c-0.389-1.167-2.528,1.167-2.528,1.167s0,0-0.778-0.583
		c-0.778-0.583-10.306,0.583-10.306,0.583s0.972-0.778-0.194-1.361c-1.167-0.583-9.333,0.972-9.333,0.972s0.972-0.194,0.389-1.75
		c-0.392-1.046-2.949-0.475-4.586,0.012c0.236-0.22,0.226-0.55-0.291-0.946c-0.511-0.423-1.158-0.326-1.706-0.095
		c-0.069-0.167-0.142-0.345-0.228-0.552c0.064-0.092,0.126-0.185,0.191-0.275c0.365-0.095,1.054-0.039,1.901,0.313
		c1.006,0.377,2.196,0.025,1.263-0.981c-0.734-0.85-2.085-0.316-2.638-0.014c0.34-0.417,0.703-0.813,1.086-1.19
		c0.376-0.027,1.04,0.148,1.808,0.633c0.926,0.542,2.156,0.395,1.405-0.753c-0.581-0.956-1.992-0.664-2.589-0.461
		c0.399-0.35,0.814-0.681,1.249-0.987c0.373,0.031,1.004,0.314,1.688,0.928c0.822,0.689,2.061,0.749,1.515-0.509
		c-0.421-1.057-1.901-0.984-2.505-0.881c0.458-0.284,0.935-0.538,1.424-0.771c0.363,0.092,0.94,0.475,1.515,1.196
		c0.696,0.816,1.918,1.081,1.592-0.251c-0.236-1.111-1.713-1.287-2.332-1.285c0.394-0.16,0.794-0.31,1.204-0.435
		c0.469,0.017,1.853,0.118,2.402,0.195c0.337,0.02,1.456,0.036,1.695-0.592c0.099-0.247,0.038-0.558-0.154-0.791
		c-0.268-0.324-0.736-0.448-1.283-0.343c-0.926,0.151-2.411,1.012-2.803,1.331c-0.417,0.13-0.825,0.283-1.227,0.449
		c0.423-0.373,1.684-1.469,1.468-2.554c-0.34-1.371-1.935-0.253-1.9,0.88c-0.006,0.967-0.123,1.663-0.292,1.995
		c-0.516,0.246-1.017,0.518-1.499,0.821c0.351-0.436,1.399-1.724,1-2.757c-0.566-1.293-1.934,0.069-1.708,1.179
		c0.158,0.954,0.161,1.659,0.051,2.014c-0.47,0.331-0.918,0.691-1.347,1.073c0.265-0.473,1.104-1.937,0.53-2.898
		c-0.773-1.181-1.89,0.388-1.483,1.444c0.319,0.924,0.439,1.625,0.385,1.989c-0.408,0.403-0.792,0.83-1.152,1.278
		c0.183-0.511,0.772-2.102,0.043-2.953c-0.959-1.035-1.802,0.701-1.225,1.677c0.465,0.853,0.699,1.523,0.708,1.895
		c-0.044,0.061-0.086,0.124-0.129,0.186c-0.139-0.174-0.339-0.283-0.595-0.328c0.163-0.372,0.104-0.697-0.28-0.789
		c-0.088-0.201-0.199-0.387-0.369-0.528c-0.092-0.071-0.179-0.117-0.263-0.153c0.803-0.527,1.161-1.45-0.093-1.451
		c-1.122-0.04-1.651,1.313-1.806,1.923c-0.074-0.533-0.117-1.069-0.133-1.606c0.237-0.294,0.816-0.661,1.695-0.894
		c1.027-0.31,1.757-1.31,0.404-1.542c-1.096-0.225-1.842,1.008-2.1,1.583c0.015-0.53,0.055-1.06,0.127-1.586
		c0.277-0.252,0.913-0.522,1.828-0.605c1.065-0.133,1.952-1.001,0.658-1.456c-1.052-0.408-2.007,0.713-2.349,1.232
		c0.103-0.527,0.241-1.048,0.403-1.563c0.314-0.204,0.988-0.366,1.907-0.296c1.072,0.046,2.098-0.67,0.9-1.338
		c-0.967-0.578-2.099,0.371-2.528,0.83c0.15-0.397,0.313-0.79,0.499-1.174c0.332-0.333,1.347-1.277,1.777-1.627
		c0.244-0.234,1.017-1.042,0.72-1.645c-0.114-0.241-0.383-0.408-0.685-0.426c-0.42-0.024-0.829,0.234-1.124,0.707
		c-0.52,0.781-0.899,2.455-0.932,2.96c-0.189,0.395-0.354,0.797-0.506,1.205c0.015-0.564,0.07-2.234-0.873-2.813
		c-1.236-0.684-1.503,1.246-0.648,1.991c0.704,0.663,1.135,1.222,1.264,1.572c-0.171,0.546-0.312,1.098-0.419,1.657
		c-0.081-0.554-0.311-2.198-1.34-2.609c-1.333-0.466-1.265,1.464-0.299,2.054c0.807,0.533,1.325,1.011,1.51,1.333
		c-0.078,0.57-0.119,1.143-0.13,1.717c-0.167-0.516-0.668-2.128-1.763-2.36c-1.391-0.237-1.002,1.648,0.049,2.069
		c0.894,0.395,1.489,0.784,1.72,1.072c0.018,0.573,0.069,1.145,0.152,1.714c-0.25-0.482-1.016-1.996-2.134-2.041
		c-1.411-0.001-0.712,1.797,0.395,2.039c0.941,0.24,1.591,0.524,1.871,0.771c0.044,0.218,0.089,0.436,0.142,0.652
		c-0.141,0.056-0.281,0.116-0.422,0.177c-0.467-0.465-1.08-0.9-1.724-0.816c-1.043,0.176-0.746,1.158-0.054,1.664
		c-1.287,0.671-2.279,1.293-2.279,1.293s1.361-1.555,0.778-2.917c-0.583-1.361-2.722,1.75-2.722,1.75l-4.892,0.489
		c0.26-0.561,0.499-1.128,0.72-1.702c0.641-0.363,1.963-0.677,3.746-0.827c2.168-0.109,4.069-3.301,1.411-3.749
		c-2.055-0.269-3.957,2.228-4.645,3.142c0.341-1.052,0.612-2.122,0.827-3.201c0.56-0.461,1.816-0.991,3.563-1.435
		c2.115-0.462,3.449-3.896,0.754-3.893c-2.12,0.085-3.585,2.953-4.074,3.896c0.161-1.097,0.258-2.201,0.292-3.308
		c0.468-0.545,1.623-1.277,3.281-2.009c2.007-0.804,2.75-4.402,0.094-3.95c-2.074,0.44-3.04,3.495-3.365,4.504
		c-0.023-1.107-0.104-2.212-0.254-3.31c0.379-0.614,1.389-1.521,2.888-2.511c1.845-1.126,1.974-4.809-0.57-3.92
		c-1.945,0.775-2.399,3.892-2.557,4.979c-0.205-1.078-0.479-2.144-0.809-3.196c0.272-0.671,1.114-1.736,2.422-2.967
		c1.631-1.422,1.121-5.105-1.238-3.8c-1.782,1.095-1.696,4.264-1.666,5.37c-0.288-0.772-0.601-1.535-0.958-2.284
		c-0.067-0.974-0.797-4.18-1.786-5.665c-0.563-0.902-1.345-1.396-2.145-1.349c-0.576,0.033-1.089,0.352-1.307,0.812
		c-0.568,1.15,0.908,2.694,1.374,3.14c0.821,0.669,2.759,2.472,3.393,3.107c0.355,0.734,0.665,1.484,0.952,2.241
		c-0.818-0.876-2.979-2.688-4.825-1.585c-2.287,1.275-0.329,2.641,1.717,2.553c1.713-0.13,3.012,0.159,3.632,0.534
		c0.313,0.993,0.579,1.998,0.779,3.015c-0.654-0.991-2.477-3.13-4.485-2.351c-2.47,0.869-0.777,2.526,1.255,2.78
		c1.705,0.156,2.935,0.652,3.485,1.123c0.141,1.013,0.218,2.033,0.247,3.054c-0.499-1.106-1.928-3.442-4.008-3.015
		c-2.581,0.442-1.189,2.352,0.772,2.943c1.641,0.434,2.765,1.122,3.236,1.677c-0.029,1.033-0.111,2.063-0.253,3.088
		c-0.303-1.176-1.32-3.741-3.448-3.665c-2.391,0.003-1.718,1.769-0.188,2.775c-0.157,0.068-0.319,0.156-0.491,0.288
		c-0.321,0.267-0.549,0.609-0.718,0.989c-0.841,0.196-0.851,0.993-0.38,1.813c-0.047,1.094,0.137,2.169,0.239,2.739
		c-0.539-0.966-1.139-1.892-1.783-2.784c0.043-0.723,0.51-2.005,1.373-3.588c1.1-1.864-0.507-5.178-2.339-3.202
		c-1.38,1.611-0.276,4.637,0.082,5.636c-0.694-0.865-1.437-1.687-2.225-2.464c-0.08-0.714,0.169-2.059,0.761-3.772
		c0.777-2.017-1.354-5.011-2.831-2.757c-1.088,1.819,0.493,4.606,1.011,5.531c-0.826-0.736-1.691-1.429-2.599-2.066
		c-0.192-0.696-0.169-2.053,0.126-3.826c0.431-2.118-2.181-4.719-3.26-2.25c-0.756,1.953,1.219,4.407,1.908,5.262
		c-0.93-0.583-1.897-1.108-2.893-1.582c-0.307-0.656-0.514-1.998-0.526-3.793c0.068-2.163-2.978-4.296-3.627-1.679
		c-0.41,2.051,1.971,4.144,2.801,4.875c-0.761-0.315-1.534-0.604-2.326-0.852c-0.759-0.614-3.605-2.26-5.367-2.547
		c-1.044-0.202-1.938,0.036-2.449,0.654c-0.368,0.445-0.483,1.038-0.294,1.51c0.457,1.199,2.592,1.168,3.236,1.13
		c1.047-0.146,3.685-0.34,4.584-0.372c0.78,0.239,1.54,0.523,2.29,0.828c-1.199,0.003-3.997,0.354-4.445,2.457
		c-0.622,2.543,1.711,2.038,3.04,0.479c1.07-1.343,2.166-2.099,2.863-2.298c0.941,0.447,1.858,0.935,2.739,1.482
		c-1.171-0.195-3.979-0.315-4.775,1.686c-1.044,2.402,1.322,2.288,2.891,0.972c1.274-1.143,2.475-1.706,3.194-1.789
		c0.838,0.587,1.638,1.224,2.406,1.897c-1.15-0.387-3.834-0.93-4.936,0.885c-1.433,2.192,0.914,2.472,2.682,1.437
		c1.435-0.907,2.704-1.262,3.431-1.23c0.737,0.724,1.436,1.485,2.091,2.287c-1.068-0.578-3.639-1.578-5.032,0.033
		c-1.78,1.921,0.491,2.593,2.411,1.874c1.58-0.656,2.901-0.786,3.611-0.624c0.619,0.854,1.197,1.741,1.718,2.665
		c-0.934-0.753-3.358-2.257-5.025-0.879c-1.506,1.155-0.795,2.026,0.477,2.278c-0.901,0.59-1.598,1.134-1.598,1.134
		s-1.944-1.944-3.306-2.333c-1.361-0.389-4.083,1.361-4.083,1.361s1.556-2.333,0.778-4.667c-0.778-2.333-3.5,3.305-3.5,3.305
		s-0.389-3.5-3.306-3.889c-2.917-0.389,0.778,4.083,0.778,4.083s-3.111-1.75-6.417-1.75c-3.305,0,2.139,2.917,2.139,2.917
		s-3.903-0.323-6.802,0.217c0.562-0.892,1.023-1.982-0.229-1.815c-2.074,0.276-2.35,2.765-2.35,2.765s-1.936-4.009-2.489-2.35
		c-0.553,1.659,0.553,3.318,0.553,3.318s-1.936-1.244-2.903-0.968s-2.35,1.659-2.35,1.659s-0.496-0.387-1.136-0.807
		c0.904-0.179,1.41-0.799,0.339-1.62c-1.185-0.98-2.909,0.089-3.573,0.625c0.37-0.657,0.781-1.287,1.221-1.895
		c0.505-0.116,1.445-0.023,2.568,0.444c1.365,0.511,2.98,0.034,1.714-1.332c-0.99-1.146-2.818-0.435-3.578-0.024
		c0.465-0.57,0.962-1.111,1.487-1.626c0.517-0.023,1.419,0.23,2.439,0.875c1.257,0.736,2.926,0.537,1.907-1.022
		c-0.784-1.29-2.692-0.905-3.51-0.629c0.541-0.474,1.102-0.923,1.691-1.336c0.506,0.043,1.362,0.426,2.291,1.259
		c1.116,0.936,2.798,1.016,2.056-0.691c-0.566-1.423-2.562-1.338-3.395-1.199c0.62-0.384,1.266-0.728,1.927-1.043
		c0.493,0.125,1.277,0.645,2.056,1.624c0.945,1.108,2.603,1.467,2.161-0.341c-0.319-1.496-2.308-1.745-3.16-1.747
		c0.534-0.217,1.074-0.418,1.628-0.588c0.637,0.023,2.515,0.16,3.26,0.264c0.458,0.027,1.976,0.049,2.301-0.803
		c0.134-0.336,0.052-0.758-0.209-1.074c-0.363-0.44-0.999-0.608-1.741-0.465c-1.257,0.205-3.273,1.374-3.805,1.807
		c-0.566,0.177-1.12,0.384-1.665,0.61c0.59-0.52,2.283-2.008,1.992-3.467c-0.462-1.86-2.627-0.344-2.579,1.194
		c-0.008,1.277-0.155,2.231-0.374,2.697c-0.708,0.337-1.396,0.71-2.057,1.125c0.49-0.608,1.894-2.353,1.357-3.742
		c-0.768-1.755-2.624,0.094-2.318,1.6c0.209,1.26,0.226,2.226,0.089,2.72c-0.645,0.453-1.26,0.945-1.848,1.469
		c0.368-0.658,1.492-2.639,0.718-3.933c-1.05-1.602-2.565,0.526-2.013,1.96c0.421,1.218,0.598,2.174,0.541,2.682
		c-0.56,0.553-1.089,1.137-1.582,1.752c0.254-0.711,1.04-2.862,0.058-4.008c-1.302-1.405-2.445,0.952-1.663,2.277
		c0.631,1.158,0.948,2.067,0.962,2.572c-0.452,0.628-0.874,1.279-1.253,1.958c0.073-0.408,0.205-1.181,0.169-1.965
		c0.32-0.568,0.306-1.105-0.261-1.253c-0.12-0.277-0.285-0.528-0.519-0.722c-0.122-0.094-0.237-0.156-0.349-0.205
		c1.088-0.715,1.566-1.971-0.134-1.973c-1.513-0.054-2.236,1.77-2.452,2.606c-0.101-0.729-0.16-1.462-0.18-2.196
		c0.335-0.394,1.134-0.883,2.301-1.192c1.395-0.421,2.384-1.779,0.549-2.093c-1.479-0.304-2.495,1.357-2.85,2.144
		c0.021-0.726,0.076-1.451,0.176-2.172c0.391-0.334,1.266-0.688,2.478-0.798c1.445-0.181,2.649-1.359,0.892-1.977
		c-1.428-0.554-2.724,0.967-3.189,1.672c0.142-0.723,0.331-1.438,0.554-2.144c0.441-0.267,1.365-0.472,2.582-0.38
		c1.455,0.062,2.847-0.909,1.221-1.816c-1.313-0.784-2.849,0.504-3.431,1.127c0.204-0.538,0.424-1.072,0.677-1.593
		c0.45-0.451,1.829-1.734,2.412-2.209c0.331-0.317,1.38-1.415,0.977-2.232c-0.155-0.327-0.52-0.554-0.929-0.577
		c-0.569-0.033-1.126,0.318-1.526,0.959c-0.705,1.06-1.22,3.333-1.265,4.017c-0.256,0.535-0.48,1.082-0.686,1.635
		c0.021-0.786,0.082-3.04-1.185-3.819c-1.677-0.928-2.039,1.691-0.88,2.702c0.956,0.899,1.54,1.659,1.715,2.133
		c-0.231,0.74-0.424,1.49-0.568,2.249c-0.112-0.773-0.435-2.989-1.818-3.541c-1.809-0.632-1.717,1.987-0.405,2.787
		c1.066,0.704,1.784,1.349,2.054,1.786c-0.107,0.781-0.165,1.566-0.181,2.354c-0.232-0.718-0.919-2.89-2.393-3.203
		c-1.889-0.321-1.36,2.238,0.067,2.809c1.179,0.521,2,1.042,2.333,1.429c0.024,0.787,0.093,1.572,0.207,2.352
		c-0.348-0.67-1.39-2.71-2.897-2.77c-1.916-0.002-0.967,2.439,0.536,2.768c1.242,0.316,2.136,0.693,2.534,1.021
		c0.153,0.767,0.345,1.528,0.588,2.276c-0.488-0.65-1.841-2.425-3.302-2.234c-1.89,0.319-0.538,2.588,1.003,2.666
		c1.268,0.106,2.208,0.33,2.664,0.588c0.157,0.408,0.328,0.811,0.512,1.21l-3.478-0.348c0,0-1.521-2.212-1.936-1.244
		c-0.415,0.968,0.553,2.074,0.553,2.074s-0.705-0.442-1.62-0.919c0.492-0.36,0.703-1.058-0.038-1.183
		c-0.458-0.06-0.893,0.25-1.226,0.58c-0.101-0.043-0.201-0.086-0.302-0.126c0.036-0.147,0.052-0.297,0.083-0.446
		c0.186-0.179,0.658-0.389,1.35-0.565c0.788-0.172,1.285-1.451,0.281-1.45c-0.814,0.033-1.367,1.163-1.531,1.478
		c0.061-0.408,0.095-0.817,0.109-1.228c0.153-0.206,0.583-0.491,1.236-0.779c0.747-0.299,1.024-1.64,0.035-1.471
		c-0.786,0.167-1.143,1.337-1.258,1.691c-0.008-0.412-0.034-0.823-0.09-1.232c0.131-0.229,0.5-0.569,1.075-0.949
		c0.687-0.419,0.735-1.791-0.212-1.46c-0.764,0.305-0.91,1.577-0.961,1.911c-0.076-0.409-0.174-0.813-0.298-1.212
		c0.08-0.246,0.39-0.655,0.907-1.14c0.607-0.53,0.418-1.902-0.461-1.416c-0.688,0.423-0.628,1.669-0.62,2.035
		c-0.105-0.284-0.226-0.561-0.356-0.836c0.001-0.286-0.28-1.577-0.667-2.159c-0.21-0.336-0.501-0.52-0.799-0.503
		c-0.215,0.012-0.406,0.131-0.487,0.302c-0.211,0.428,0.338,1.003,0.512,1.169c0.29,0.236,0.948,0.847,1.218,1.112
		c0.14,0.286,0.275,0.572,0.388,0.868c-0.311-0.329-1.103-0.985-1.785-0.578c-0.852,0.475-0.123,0.984,0.639,0.951
		c0.632-0.048,1.102,0.058,1.335,0.196c0.113,0.357,0.204,0.717,0.278,1.082c-0.267-0.385-0.922-1.11-1.641-0.831
		c-0.92,0.324-0.289,0.941,0.467,1.035c0.648,0.059,1.1,0.25,1.298,0.428c0.051,0.368,0.072,0.738,0.083,1.108
		c-0.193-0.419-0.72-1.26-1.484-1.103c-0.961,0.165-0.443,0.876,0.288,1.096c0.61,0.161,1.018,0.415,1.195,0.621
		c-0.01,0.382-0.035,0.763-0.087,1.142c-0.115-0.442-0.493-1.381-1.281-1.353c-0.897,0.001-0.633,0.665-0.055,1.039
		c-0.064,0.026-0.127,0.048-0.198,0.102c-0.12,0.1-0.199,0.232-0.262,0.375c-0.273,0.065-0.315,0.297-0.199,0.561
		c-0.187,0.033-0.331,0.113-0.43,0.243c-0.027-0.039-0.057-0.076-0.085-0.115c-0.004-0.258,0.163-0.747,0.504-1.374
		c0.41-0.694-0.189-1.929-0.871-1.193c-0.53,0.619-0.078,1.793,0.041,2.128c-0.257-0.322-0.534-0.626-0.826-0.916
		c-0.047-0.252,0.038-0.761,0.27-1.436c0.289-0.751-0.504-1.866-1.054-1.027c-0.413,0.69,0.202,1.748,0.383,2.072
		c-0.307-0.275-0.626-0.535-0.964-0.773c-0.078-0.251-0.077-0.754,0.036-1.434c0.16-0.789-0.812-1.758-1.214-0.838
		c-0.297,0.767,0.536,1.74,0.747,2.005c-0.351-0.223-0.714-0.426-1.09-0.606c-0.126-0.226-0.214-0.732-0.219-1.44
		c0.025-0.806-1.109-1.6-1.351-0.625c-0.158,0.792,0.795,1.596,1.069,1.839c-0.279-0.117-0.565-0.216-0.855-0.308
		c-0.209-0.196-1.346-0.868-2.036-0.981c-0.389-0.075-0.722,0.013-0.912,0.244c-0.137,0.166-0.18,0.387-0.11,0.563
		c0.17,0.446,0.965,0.435,1.205,0.421c0.37-0.052,1.265-0.118,1.643-0.135c0.305,0.091,0.607,0.188,0.9,0.306
		c-0.453,0.003-1.473,0.138-1.638,0.914c-0.232,0.947,0.637,0.759,1.132,0.179c0.395-0.495,0.792-0.767,1.052-0.845
		c0.338,0.16,0.664,0.338,0.981,0.532c-0.464-0.066-1.44-0.079-1.725,0.637c-0.389,0.895,0.492,0.852,1.077,0.362
		c0.485-0.435,0.931-0.636,1.197-0.66c0.304,0.213,0.589,0.45,0.868,0.693c-0.438-0.143-1.413-0.33-1.818,0.336
		c-0.534,0.816,0.34,0.921,0.999,0.535c0.534-0.337,0.997-0.464,1.268-0.453c0.273,0.268,0.535,0.545,0.777,0.841
		c-0.402-0.216-1.348-0.579-1.863,0.018c-0.663,0.715,0.183,0.966,0.898,0.698c0.58-0.241,1.058-0.287,1.325-0.231
		c0.052,0.072,0.108,0.141,0.159,0.214c-0.06,0.144-0.111,0.27-0.159,0.386c-0.39-0.164-0.848-0.237-1.211,0.064
		c-0.368,0.282-0.375,0.516-0.207,0.673c-1.163-0.346-2.982-0.752-3.26-0.008c-0.415,1.106,0.276,1.244,0.276,1.244
		s-5.807-1.106-6.636-0.691c-0.83,0.415-0.138,0.968-0.138,0.968s-6.775-0.83-7.328-0.415c-0.553,0.415-0.553,0.415-0.553,0.415
		s-1.521-1.659-1.797-0.83c-0.259,0.776-0.993,1.065-1.088,1.099l-0.016-0.009c0.01-0.057,0.1-0.604,0.179-1.322l5.58-1.302
		c0,0,1.71-2.687-1.954-3.664c-3.664-0.977-9.525-0.488-9.525-0.488s6.839-3.664,2.687-3.664c-4.152,0-8.06,2.198-8.06,2.198
		s4.641-5.618,0.977-5.129c-3.664,0.488-4.152,4.885-4.152,4.885s-3.419-7.083-4.396-4.152c-0.977,2.931,0.977,5.862,0.977,5.862
		s-3.419-2.198-5.129-1.71c-1.71,0.488-4.152,2.931-4.152,2.931s-0.875-0.684-2.008-1.425c1.598-0.316,2.49-1.411,0.599-2.861
		c-2.093-1.732-5.139,0.157-6.312,1.104c0.654-1.16,1.38-2.274,2.158-3.348c0.892-0.204,2.552-0.04,4.536,0.783
		c2.412,0.903,5.265,0.06,3.029-2.353c-1.749-2.024-4.979-0.768-6.321-0.042c0.822-1.007,1.7-1.963,2.626-2.873
		c0.913-0.04,2.507,0.406,4.31,1.545c2.221,1.299,5.169,0.948,3.369-1.805c-1.385-2.28-4.755-1.598-6.2-1.112
		c0.966-0.846,1.97-1.646,3.023-2.383c0.903,0.104,2.412,0.811,4.012,2.248c1.971,1.653,4.943,1.796,3.632-1.221
		c-1-2.514-4.526-2.363-5.998-2.118c1.107-0.686,2.26-1.3,3.441-1.861c0.875,0.25,2.251,1.199,3.596,2.886
		c1.669,1.958,4.599,2.592,3.818-0.602c-0.563-2.642-4.077-3.082-5.583-3.086c0.943-0.383,1.898-0.74,2.877-1.04
		c1.13,0.041,4.443,0.284,5.758,0.467c0.808,0.048,3.491,0.086,4.064-1.419c0.237-0.594,0.092-1.338-0.37-1.897
		c-0.642-0.777-1.764-1.075-3.076-0.821c-2.213,0.36-5.787,2.428-6.741,3.199c-0.994,0.311-1.965,0.675-2.921,1.07
		c1.043-0.919,4.033-3.548,3.519-6.124c-0.816-3.286-4.641-0.607-4.556,2.109c-0.015,2.255-0.275,3.941-0.66,4.765
		c-1.25,0.595-2.465,1.254-3.633,1.987c0.866-1.074,3.346-4.157,2.397-6.61c-1.356-3.101-4.636,0.165-4.095,2.826
		c0.37,2.226,0.399,3.931,0.158,4.805c-1.14,0.8-2.226,1.67-3.264,2.595c0.65-1.162,2.636-4.663,1.269-6.948
		c-1.855-2.831-4.531,0.93-3.555,3.463c0.743,2.152,1.056,3.842,0.955,4.738c-0.99,0.977-1.923,2.009-2.795,3.096
		c0.449-1.256,1.837-5.056,0.103-7.08c-2.301-2.482-4.32,1.681-2.938,4.022c1.084,1.988,1.671,3.598,1.725,4.507
		c-0.809,1.121-1.563,2.284-2.239,3.497c0.128-0.716,0.359-2.066,0.3-3.441c0.592-1.029,0.579-2.031-0.477-2.277
		c-0.212-0.477-0.498-0.908-0.902-1.242c-0.216-0.166-0.419-0.276-0.617-0.362c1.922-1.263,2.767-3.482-0.236-3.485
		c-2.674-0.096-3.951,3.126-4.332,4.603c-0.178-1.288-0.282-2.582-0.318-3.879c0.592-0.697,2.004-1.561,4.065-2.106
		c2.464-0.743,4.212-3.142,0.97-3.697c-2.613-0.537-4.407,2.397-5.034,3.787c0.037-1.283,0.134-2.564,0.311-3.837
		c0.691-0.591,2.236-1.215,4.377-1.41c2.552-0.319,4.679-2.4,1.576-3.492c-2.523-0.978-4.812,1.709-5.634,2.953
		c0.251-1.278,0.585-2.54,0.978-3.788c0.779-0.471,2.411-0.834,4.562-0.671c2.57,0.11,5.029-1.606,2.157-3.208
		c-2.319-1.386-5.033,0.89-6.061,1.991c0.361-0.951,0.749-1.894,1.196-2.815c0.799-0.8,3.232-3.063,4.261-3.901
		c0.585-0.56,2.439-2.499,1.726-3.944c-0.273-0.578-0.918-0.978-1.642-1.02c-1.006-0.059-1.988,0.561-2.695,1.695
		c-1.242,1.866-2.159,5.893-2.243,7.116c-0.448,0.94-0.842,1.899-1.204,2.868c0.037-1.389,0.145-5.37-2.093-6.746
		c-2.963-1.639-3.603,2.987-1.555,4.774c1.643,1.545,2.701,2.883,3.042,3.726c-0.415,1.321-0.759,2.66-1.016,4.014
		c-0.198-1.365-0.769-5.28-3.212-6.254c-3.195-1.117-3.034,3.51-0.716,4.924c1.883,1.244,3.152,2.383,3.628,3.155
		c-0.189,1.379-0.291,2.767-0.32,4.158c-0.409-1.267-1.623-5.105-4.227-5.658c-3.336-0.567-2.402,3.953,0.118,4.962
		c2.083,0.92,3.534,1.84,4.122,2.524c0.042,1.39,0.164,2.776,0.366,4.155c-0.614-1.184-2.455-4.787-5.118-4.893
		c-3.385-0.003-1.708,4.309,0.948,4.89c2.195,0.559,3.773,1.224,4.476,1.803c0.27,1.356,0.61,2.699,1.039,4.021
		c-0.863-1.147-3.252-4.284-5.834-3.946c-3.339,0.563-0.95,4.572,1.772,4.709c2.239,0.188,3.9,0.583,4.705,1.039
		c0.277,0.721,0.579,1.434,0.905,2.138l-6.145-0.614c0,0-2.687-3.908-3.419-2.198c-0.733,1.71,0.977,3.664,0.977,3.664
		s-1.246-0.781-2.862-1.624c0.869-0.636,1.242-1.869-0.068-2.09c-0.809-0.106-1.58,0.44-2.167,1.024
		c-0.177-0.076-0.352-0.151-0.528-0.221c0.069-0.279,0.128-0.561,0.184-0.842c0.368-0.303,1.195-0.652,2.345-0.944
		c1.391-0.304,2.269-2.563,0.496-2.562c-1.395,0.056-2.359,1.943-2.681,2.563c0.106-0.722,0.17-1.448,0.192-2.176
		c0.308-0.358,1.068-0.841,2.159-1.322c1.32-0.529,1.81-2.897,0.062-2.599c-1.364,0.29-2,2.3-2.214,2.964
		c-0.015-0.728-0.068-1.456-0.167-2.178c0.249-0.404,0.914-1.001,1.9-1.652c1.214-0.741,1.299-3.164-0.375-2.58
		c-1.28,0.51-1.579,2.561-1.683,3.276c-0.134-0.702-0.312-1.396-0.526-2.081c0.162-0.439,0.703-1.142,1.587-1.974
		c1.073-0.936,0.738-3.359-0.814-2.501c-1.172,0.721-1.116,2.806-1.096,3.534c-0.19-0.511-0.398-1.017-0.635-1.513
		c-0.041-0.633-0.518-2.737-1.171-3.718c-0.37-0.594-0.885-0.918-1.412-0.888c-0.379,0.022-0.717,0.232-0.86,0.534
		c-0.373,0.757,0.597,1.773,0.904,2.066c0.54,0.44,1.816,1.626,2.232,2.044c0.234,0.483,0.437,0.976,0.626,1.474
		c-0.538-0.577-1.96-1.768-3.175-1.043c-1.505,0.839-0.216,1.738,1.13,1.68c1.127-0.086,1.982,0.104,2.39,0.351
		c0.206,0.653,0.381,1.315,0.512,1.984c-0.43-0.652-1.63-2.06-2.951-1.547c-1.625,0.572-0.511,1.662,0.826,1.829
		c1.122,0.102,1.931,0.429,2.293,0.739c0.092,0.667,0.143,1.338,0.163,2.01c-0.329-0.728-1.268-2.265-2.637-1.984
		c-1.699,0.291-0.783,1.547,0.508,1.937c1.08,0.286,1.819,0.739,2.129,1.103c-0.019,0.68-0.073,1.358-0.167,2.032
		c-0.199-0.774-0.868-2.461-2.269-2.411c-1.575,0.002-1.125,1.161-0.116,1.823c-0.106,0.045-0.215,0.103-0.331,0.192
		c-0.216,0.18-0.369,0.411-0.48,0.668c-0.466,0.122-0.536,0.525-0.335,0.986c-0.322,0.057-0.573,0.193-0.747,0.412
		c-0.054-0.078-0.107-0.156-0.162-0.233c0.012-0.468,0.306-1.309,0.89-2.38c0.724-1.226-0.334-3.407-1.539-2.107
		c-0.908,1.06-0.181,3.051,0.054,3.709c-0.457-0.569-0.946-1.11-1.464-1.622c-0.053-0.47,0.111-1.355,0.5-2.482
		c0.511-1.327-0.891-3.297-1.862-1.814c-0.716,1.197,0.324,3.031,0.665,3.64c-0.544-0.485-1.113-0.941-1.71-1.36
		c-0.126-0.458-0.111-1.351,0.083-2.517c0.283-1.394-1.435-3.105-2.145-1.481c-0.497,1.285,0.802,2.9,1.256,3.462
		c-0.612-0.384-1.248-0.729-1.903-1.041c-0.202-0.432-0.338-1.315-0.346-2.496c0.044-1.423-1.959-2.827-2.386-1.105
		c-0.27,1.35,1.297,2.727,1.843,3.208c-0.504-0.208-1.016-0.4-1.541-0.564c-0.492-0.4-2.358-1.483-3.521-1.672
		c-0.687-0.133-1.275,0.023-1.611,0.43c-0.242,0.293-0.318,0.683-0.194,0.994c0.3,0.789,1.705,0.768,2.129,0.743
		c0.69-0.096,2.427-0.223,3.017-0.245c0.513,0.157,1.013,0.344,1.507,0.545c-0.789,0.002-2.63,0.233-2.925,1.617
		c-0.409,1.673,1.126,1.341,2,0.315c0.722-0.906,1.447-1.387,1.903-1.503c0.612,0.292,1.21,0.61,1.783,0.965
		c-0.771-0.128-2.618-0.207-3.142,1.11c-0.687,1.58,0.87,1.506,1.902,0.64c0.86-0.771,1.652-1.126,2.12-1.165
		c0.545,0.382,1.065,0.798,1.565,1.236c-0.757-0.255-2.523-0.612-3.248,0.583c-0.943,1.442,0.601,1.626,1.765,0.946
		c0.944-0.597,1.779-0.83,2.258-0.809c0.485,0.476,0.945,0.977,1.376,1.505c-0.703-0.38-2.395-1.038-3.311,0.022
		c-1.171,1.264,0.323,1.706,1.587,1.233c1.039-0.431,1.909-0.517,2.376-0.41c0.086,0.119,0.169,0.242,0.252,0.363
		c-0.106,0.257-0.2,0.485-0.286,0.693c-0.688-0.29-1.501-0.411-2.142,0.12c-0.644,0.494-0.669,0.908-0.38,1.184
		c-2.056-0.61-5.254-1.321-5.745-0.01c-0.733,1.954,0.488,2.198,0.488,2.198s-10.258-1.954-11.724-1.221
		c-1.466,0.733-0.244,1.71-0.244,1.71s-11.968-1.465-12.945-0.733c-0.977,0.733-0.977,0.733-0.977,0.733s-2.687-2.931-3.175-1.465
		c-0.489,1.465-1.954,1.954-1.954,1.954s1.465-8.548-0.488-8.793c-1.954-0.244-2.687,6.106-2.687,6.106s-5.373-7.083-6.106-5.129
		c-0.733,1.954,2.687,4.641,2.687,4.641s-4.641-1.221-3.908,0.244c0.733,1.466,3.664,3.175,3.664,3.175h-15.702l-1.316-0.259
		h-30.609c0,0-0.675-1.892-0.442-3.527c0.233-1.634-7.471,1.868-7.471,1.868s1.401-2.802-0.234-4.202
		c-1.634-1.401-6.537,4.202-6.537,4.202s0.934-1.401,0.701-3.269c-0.234-1.868-4.203,3.269-4.203,3.269s1.167-7.004-1.167-7.471
		c-2.335-0.467-3.269,7.237-3.269,7.237s-1.167-4.436-4.903-4.903c-3.735-0.467,1.167,5.603,1.167,5.603s-2.568-2.802-3.969-1.167
		c-1.401,1.634,1.401,2.101,1.401,2.101h-8.872c0,0,0,0-0.233-1.634c-0.233-1.634-6.537,3.035-6.537,3.035s0.934-0.934,2.802-3.269
		c1.868-2.335-10.039,3.502-10.039,3.502s1.634-1.401,2.335-4.669c0.7-3.269-7.471,4.436-7.471,4.436l-11.44,1.634h12.841
		l-10.272,1.634h99.03h19.805h30.178h56.058h11.211h5.114h43.843h9.099h72.551h15.767h78.839l-8.178-1.301H479.442z M213.82,375.85
		c-0.223,0.68-0.262,1.509-0.064,2.28c-0.658,1.191-0.898,2.63-0.956,3.462c-0.405-1.269-0.727-2.559-0.985-3.859
		C212.126,377.194,212.801,376.514,213.82,375.85z M213.477,383.502c0.231-0.668,0.908-1.602,2.018-2.56
		c0.753,1.119,1.216,2.047,1.367,2.684c-0.133,0.273-0.257,0.551-0.384,0.827c-0.818,0.82-1.434,1.524-1.434,1.524l-0.535-0.053
		C214.132,385.128,213.791,384.319,213.477,383.502z M199.549,382.87c-0.054,0.275-0.113,0.55-0.18,0.823
		c-0.222-0.085-0.439-0.164-0.655-0.235c-0.052-0.13-0.114-0.257-0.182-0.38c0.103-0.404,0.083-0.838-0.034-1.194
		C199.032,382.232,199.386,382.588,199.549,382.87z M194.205,386.06c0.04-0.009,0.077-0.014,0.116-0.022
		c-0.114,0.277-0.116,0.281-0.116,0.281s-0.229-0.086-0.603-0.213C193.798,386.11,194.002,386.097,194.205,386.06z M277.536,387.384
		c-0.031,0.16-0.05,0.321-0.089,0.479c-0.128-0.049-0.253-0.094-0.377-0.135c-0.03-0.075-0.063-0.147-0.103-0.218
		c0.058-0.229,0.052-0.471-0.015-0.673C277.249,387.031,277.441,387.225,277.536,387.384z M274.175,389.227
		c0.115,0.003,0.232-0.001,0.35-0.023c0.023-0.005,0.042-0.005,0.065-0.01c-0.062,0.151-0.065,0.156-0.065,0.156
		S274.392,389.3,274.175,389.227z M285.629,383.424c-0.127,0.385-0.148,0.854-0.036,1.291c-0.372,0.674-0.509,1.489-0.541,1.96
		c-0.229-0.718-0.412-1.448-0.557-2.184C284.67,384.185,285.052,383.8,285.629,383.424z M285.435,387.756
		c0.131-0.378,0.513-0.907,1.142-1.449c0.441,0.656,0.688,1.178,0.764,1.539c-0.072,0.148-0.139,0.3-0.208,0.45
		c-0.461,0.462-0.811,0.86-0.811,0.86l-0.303-0.03C285.805,388.676,285.612,388.219,285.435,387.756z M337.351,380.908
		c-0.205,1.035-0.461,2.062-0.784,3.072c-0.046-0.663-0.238-1.808-0.762-2.756c0.157-0.614,0.126-1.274-0.051-1.815
		C336.566,379.937,337.104,380.479,337.351,380.908z M334.422,383.463c0.884,0.762,1.422,1.506,1.606,2.038
		c-0.25,0.651-0.521,1.295-0.822,1.928l-0.426,0.043c0,0-0.491-0.56-1.142-1.213c-0.101-0.22-0.199-0.441-0.306-0.659
		C333.454,385.092,333.822,384.354,334.422,383.463z M347.12,385.014c0.123-0.227,0.394-0.513,0.832-0.799
		c-0.093,0.285-0.108,0.632-0.024,0.955c-0.052,0.095-0.095,0.191-0.135,0.292c-0.175,0.058-0.353,0.122-0.533,0.191
		C347.207,385.441,347.162,385.228,347.12,385.014z M351.28,387.523c0.032,0.007,0.058,0.007,0.091,0.014
		c0.167,0.031,0.332,0.037,0.493,0.032c-0.306,0.104-0.493,0.174-0.493,0.174S351.368,387.735,351.28,387.523z"/>
</g>
<g id="Plants_1">
	<g>
		<g>
			<g>
				<g>
					<path style="fill:#92E3A9;" d="M391.954,467.737c-0.282-0.116-0.432-0.432-0.335-0.727
						c8.008-24.543,28.593-43.446,53.721-49.331c0.316-0.074,0.633,0.122,0.707,0.439c0.074,0.316-0.122,0.634-0.439,0.707
						c-24.73,5.792-44.988,24.395-52.87,48.55c-0.101,0.309-0.433,0.478-0.743,0.377
						C391.981,467.748,391.968,467.743,391.954,467.737z"/>
				</g>
				<g>
					<g>
						<path style="fill:#92E3A9;" d="M411.68,451.99c-5.551-4.592-14.338,3.024-14.203,3.293c-0.622,1.07-1.218,2.159-1.789,3.267
							c1.22-1.126,5.247-1.763,10.544-0.581C411.526,458.951,417.13,456.169,411.68,451.99z"/>
					</g>
					<g>
						<path style="fill:#92E3A9;" d="M395.058,439.484c-5.605-4.308-8.346,5.043-4.686,9.403c3.442,4.391,5.298,7.971,5.224,9.619
							c0.495-1.146,1.018-2.277,1.569-3.391C396.887,455.079,400.213,443.759,395.058,439.484z"/>
					</g>
				</g>
				<g>
					<g>
						<path style="fill:#92E3A9;" d="M418.802,444.027c-4.705-5.445-14.573,0.488-14.482,0.762c-0.784,0.934-1.545,1.89-2.285,2.867
							c1.38-0.879,5.435-0.794,10.443,1.285C417.514,450.827,423.471,449.065,418.802,444.027z"/>
					</g>
					<g>
						<path style="fill:#92E3A9;" d="M404.518,428.906c-4.804-5.183-9.02,3.51-6.134,8.398c2.665,4.889,3.907,8.702,3.567,10.293
							c0.672-1.027,1.368-2.036,2.089-3.027C403.772,444.5,408.88,433.996,404.518,428.906z"/>
					</g>
				</g>
				<g>
					<g>
						<path style="fill:#92E3A9;" d="M427.121,437.398c-3.735-6.149-14.42-1.976-14.37-1.7c-0.923,0.784-1.828,1.591-2.714,2.422
							c1.499-0.624,5.469,0.153,10.05,3.047C424.724,443.881,430.879,443.148,427.121,437.398z"/>
					</g>
					<g>
						<path style="fill:#92E3A9;" d="M415.568,420.101c-3.872-5.91-9.461,1.941-7.424,7.231c1.817,5.259,2.413,9.215,1.819,10.715
							c0.827-0.891,1.677-1.763,2.547-2.612C412.253,435.329,419.011,425.856,415.568,420.101z"/>
					</g>
				</g>
				<g>
					<g>
						<path style="fill:#92E3A9;" d="M436.446,432.244c-2.659-6.686-13.911-4.346-13.9-4.069c-1.04,0.618-2.066,1.263-3.075,1.932
							c1.579-0.363,5.36,1.069,9.393,4.687C432.979,438.245,439.185,438.543,436.446,432.244z"/>
					</g>
					<g>
						<path style="fill:#92E3A9;" d="M427.955,413.255c-2.832-6.475-9.68,0.345-8.551,5.901c0.911,5.49,0.84,9.489,0.007,10.866
							c0.962-0.739,1.944-1.455,2.943-2.147C422.11,427.732,430.375,419.509,427.955,413.255z"/>
					</g>
				</g>
				<g>
					<g>
						<path style="fill:#92E3A9;" d="M446.588,428.705c-1.5-7.043-13.074-6.599-13.1-6.324c-1.135,0.438-2.259,0.904-3.371,1.397
							c1.622-0.096,5.12,1.944,8.498,6.184C442.1,434.051,448.219,435.375,446.588,428.705z"/>
					</g>
					<g>
						<path style="fill:#92E3A9;" d="M441.427,408.553c-1.703-6.862-9.689-1.268-9.512,4.404c-0.036,5.57-0.785,9.506-1.842,10.727
							c1.076-0.57,2.169-1.114,3.276-1.631C433.12,421.871,442.739,415.125,441.427,408.553z"/>
					</g>
				</g>
				<g>
					<path style="fill:#92E3A9;" d="M440.059,419.712c-0.166-0.096,8.568-5.972,14.257-6.899c5.561-1.074,7.684,2.847,6.766,5.143
						c-0.885,2.324-4.79,2.912-8.098,2.717C449.731,420.218,440.107,419.544,440.059,419.712z"/>
					<path style="fill:#92E3A9;" d="M439.91,420.075c-0.016-0.007-0.032-0.014-0.047-0.023c-0.144-0.083-0.223-0.253-0.193-0.416
						c0.002-0.011,0.006-0.024,0.013-0.037c0.03-0.106,0.055-0.186,0.197-0.238c1.403-1.347,9.485-6.139,14.373-6.935
						c2.738-0.53,5.082,0.093,6.422,1.715c0.964,1.167,1.267,2.722,0.772,3.961c-1.197,3.143-6.798,3.063-8.486,2.963
						c-3.174-0.443-11.934-1.053-12.77-0.984C440.099,420.115,439.999,420.112,439.91,420.075z M458.394,413.43
						c-0.927-0.38-2.223-0.575-4.003-0.231c-4.488,0.731-10.821,4.54-13.147,6.107c0.825,0.032,2.105,0.117,4.103,0.262
						c2.575,0.187,5.947,0.474,7.691,0.718c3.17,0.186,6.875-0.362,7.677-2.468c0.393-0.983,0.138-2.227-0.646-3.176
						C459.752,414.256,459.22,413.769,458.394,413.43z"/>
				</g>
			</g>
			<g>
				<g>
					<path style="fill:#92E3A9;" d="M392.379,467.259c-0.277,0.128-0.61,0.022-0.761-0.249
						c-12.534-22.57-12.377-50.517,0.411-72.934c0.16-0.282,0.52-0.381,0.803-0.22c0.282,0.161,0.381,0.521,0.22,0.803
						c-12.585,22.062-12.74,49.566-0.404,71.779c0.158,0.284,0.055,0.643-0.229,0.801
						C392.406,467.247,392.393,467.253,392.379,467.259z"/>
				</g>
				<g>
					<g>
						<path style="fill:#92E3A9;" d="M394.265,442.089c-7.142,0.943-7.542,12.564-7.252,12.648c0.361,1.183,0.753,2.362,1.177,3.534
							c0.006-1.661,2.278-5.045,6.75-8.121C399.26,446.939,401.035,440.94,394.265,442.089z"/>
					</g>
					<g>
						<path style="fill:#92E3A9;" d="M373.789,445.758c-6.971,1.175-1.984,9.547,3.701,9.832c5.56,0.466,9.446,1.542,10.603,2.719
							c-0.503-1.143-0.975-2.295-1.417-3.457C386.461,455.031,380.43,444.89,373.789,445.758z"/>
					</g>
				</g>
				<g>
					<g>
						<path style="fill:#92E3A9;" d="M393.277,431.451c-7.192-0.258-9.559,11.011-9.297,11.13c0.151,1.21,0.333,2.419,0.546,3.626
							c0.295-1.61,3.117-4.523,8.048-6.778C397.382,437.023,400.145,431.459,393.277,431.451z"/>
					</g>
					<g>
						<path style="fill:#92E3A9;" d="M372.477,431.628c-7.067-0.007-3.567,8.998,1.979,10.21c5.396,1.374,9.035,3.059,9.969,4.391
							c-0.296-1.191-0.561-2.388-0.796-3.591C383.394,442.787,379.174,431.896,372.477,431.628z"/>
					</g>
				</g>
				<g>
					<g>
						<path style="fill:#92E3A9;" d="M394.08,420.845c-7.047-1.448-11.261,9.222-11.025,9.373c-0.054,1.21-0.078,2.422-0.072,3.637
							c0.563-1.523,3.834-3.903,9.072-5.29C397.2,427.013,400.851,422.004,394.08,420.845z"/>
					</g>
					<g>
						<path style="fill:#92E3A9;" d="M373.544,417.539c-6.966-1.185-5.016,8.253,0.247,10.361c5.09,2.248,8.394,4.503,9.089,5.959
							c-0.09-1.213-0.15-2.428-0.181-3.645C382.447,430.331,380.104,418.933,373.544,417.539z"/>
					</g>
				</g>
				<g>
					<g>
						<path style="fill:#92E3A9;" d="M396.65,410.505c-6.709-2.602-12.651,7.235-12.44,7.415c-0.255,1.183-0.481,2.373-0.677,3.568
							c0.809-1.404,4.431-3.201,9.826-3.693C398.688,417.129,403.129,412.784,396.65,410.505z"/>
					</g>
					<g>
						<path style="fill:#92E3A9;" d="M376.957,403.804c-6.671-2.331-6.334,7.328-1.495,10.282c4.642,3.068,7.525,5.842,7.967,7.389
							c0.113-1.208,0.257-2.414,0.43-3.618C383.587,417.939,383.186,406.287,376.957,403.804z"/>
					</g>
				</g>
				<g>
					<g>
						<path style="fill:#92E3A9;" d="M400.958,400.665c-6.181-3.693-13.733,5.089-13.548,5.295c-0.452,1.13-0.875,2.27-1.27,3.42
							c1.033-1.253,4.909-2.429,10.314-2.018C401.821,407.591,406.955,404.009,400.958,400.665z"/>
					</g>
					<g>
						<path style="fill:#92E3A9;" d="M382.68,390.734c-6.187-3.422-7.523,6.237-3.246,9.967c4.057,3.817,6.431,7.044,6.607,8.65
							c0.315-1.176,0.66-2.347,1.034-3.511C386.785,405.883,388.388,394.244,382.68,390.734z"/>
					</g>
				</g>
				<g>
					<path style="fill:#92E3A9;" d="M389.926,399.329c-0.183,0.057,1.455-10.342,4.647-15.141c2.998-4.806,7.315-3.693,8.373-1.458
						c1.1,2.23-1.126,5.492-3.52,7.783C396.878,392.587,389.835,399.18,389.926,399.329z"/>
					<path style="fill:#92E3A9;" d="M390.09,399.686c-0.016,0.007-0.032,0.013-0.048,0.019c-0.159,0.049-0.337-0.009-0.436-0.142
						c-0.007-0.009-0.013-0.021-0.018-0.034c-0.057-0.094-0.099-0.166-0.04-0.306c-0.032-1.945,1.956-11.128,4.699-15.251
						c1.475-2.367,3.527-3.66,5.627-3.538c1.511,0.087,2.857,0.924,3.428,2.13c1.488,3.016-2.382,7.066-3.603,8.234
						c-2.484,2.024-8.893,8.029-9.411,8.688C390.248,399.574,390.178,399.645,390.09,399.686z M397.8,381.62
						c-0.909,0.42-1.934,1.237-2.893,2.776c-2.519,3.786-4.037,11.018-4.472,13.789c0.584-0.583,1.518-1.463,2.984-2.828
						c1.889-1.76,4.394-4.036,5.76-5.147c2.293-2.196,4.413-5.284,3.416-7.305c-0.453-0.957-1.537-1.617-2.766-1.688
						C399.329,381.187,398.61,381.245,397.8,381.62z"/>
				</g>
			</g>
		</g>
		<g>
			<g>
				<g>
					<path style="fill:#92E3A9;" d="M355.64,467.759c0.148-0.061,0.226-0.226,0.176-0.381
						c-4.195-12.857-14.978-22.759-28.141-25.842c-0.165-0.039-0.332,0.064-0.371,0.23c-0.039,0.166,0.064,0.332,0.23,0.371
						c12.955,3.034,23.567,12.779,27.695,25.433c0.053,0.162,0.227,0.25,0.389,0.198
						C355.625,467.764,355.632,467.762,355.64,467.759z"/>
				</g>
				<g>
					<g>
						<path style="fill:#92E3A9;" d="M345.306,459.51c2.908-2.405,7.511,1.584,7.44,1.725c0.326,0.56,0.638,1.131,0.937,1.711
							c-0.639-0.59-2.749-0.924-5.523-0.304C345.387,463.156,342.451,461.699,345.306,459.51z"/>
					</g>
					<g>
						<path style="fill:#92E3A9;" d="M354.014,452.958c2.936-2.257,4.372,2.642,2.455,4.926c-1.803,2.3-2.775,4.175-2.736,5.039
							c-0.259-0.6-0.534-1.193-0.822-1.776C353.056,461.128,351.313,455.198,354.014,452.958z"/>
					</g>
				</g>
				<g>
					<g>
						<path style="fill:#92E3A9;" d="M341.575,455.338c2.465-2.853,7.634,0.256,7.586,0.399c0.411,0.489,0.81,0.99,1.197,1.502
							c-0.723-0.461-2.847-0.416-5.47,0.673C342.25,458.9,339.13,457.977,341.575,455.338z"/>
					</g>
					<g>
						<path style="fill:#92E3A9;" d="M349.058,447.417c2.516-2.715,4.725,1.839,3.213,4.399c-1.396,2.561-2.047,4.559-1.868,5.392
							c-0.352-0.538-0.717-1.067-1.094-1.586C349.449,455.586,346.773,450.084,349.058,447.417z"/>
					</g>
				</g>
				<g>
					<g>
						<path style="fill:#92E3A9;" d="M337.218,451.866c1.956-3.221,7.554-1.035,7.528-0.891c0.483,0.411,0.957,0.834,1.422,1.269
							c-0.785-0.327-2.865,0.08-5.264,1.596C338.473,455.262,335.249,454.878,337.218,451.866z"/>
					</g>
					<g>
						<path style="fill:#92E3A9;" d="M343.27,442.805c2.028-3.096,4.956,1.017,3.889,3.788c-0.952,2.755-1.264,4.827-0.953,5.613
							c-0.433-0.467-0.878-0.923-1.334-1.369C345.006,450.782,341.466,445.819,343.27,442.805z"/>
					</g>
				</g>
				<g>
					<g>
						<path style="fill:#92E3A9;" d="M332.333,449.166c1.393-3.503,7.287-2.277,7.281-2.132c0.545,0.324,1.082,0.661,1.611,1.012
							c-0.827-0.19-2.808,0.56-4.92,2.455C334.149,452.309,330.898,452.465,332.333,449.166z"/>
					</g>
					<g>
						<path style="fill:#92E3A9;" d="M336.781,439.218c1.483-3.392,5.071,0.181,4.479,3.091c-0.477,2.876-0.44,4.971-0.004,5.692
							c-0.504-0.387-1.018-0.762-1.542-1.125C339.843,446.802,335.513,442.494,336.781,439.218z"/>
					</g>
				</g>
				<g>
					<g>
						<path style="fill:#92E3A9;" d="M327.02,447.312c0.786-3.689,6.849-3.457,6.862-3.313c0.595,0.229,1.183,0.473,1.766,0.732
							c-0.85-0.05-2.682,1.018-4.452,3.24C329.371,450.112,326.166,450.806,327.02,447.312z"/>
					</g>
					<g>
						<path style="fill:#92E3A9;" d="M329.724,436.755c0.892-3.595,5.076-0.664,4.983,2.307c0.019,2.918,0.411,4.98,0.965,5.62
							c-0.564-0.298-1.136-0.583-1.716-0.855C334.075,443.732,329.036,440.198,329.724,436.755z"/>
					</g>
				</g>
				<g>
					<path style="fill:#92E3A9;" d="M330.44,442.601c0.087-0.05-4.488-3.128-7.469-3.614c-2.913-0.563-4.025,1.491-3.544,2.694
						c0.464,1.217,2.509,1.526,4.242,1.423C325.374,442.866,330.415,442.513,330.44,442.601z"/>
					<path style="fill:#92E3A9;" d="M330.518,442.791c0.008-0.004,0.016-0.007,0.024-0.012c0.076-0.043,0.117-0.133,0.101-0.218
						c-0.001-0.006-0.003-0.012-0.007-0.019c-0.016-0.055-0.029-0.097-0.103-0.125c-0.735-0.705-4.968-3.216-7.529-3.633
						c-1.434-0.277-2.662,0.049-3.364,0.898c-0.505,0.611-0.664,1.426-0.404,2.075c0.627,1.646,3.561,1.604,4.445,1.552
						c1.662-0.232,6.252-0.551,6.689-0.516C330.419,442.812,330.471,442.81,330.518,442.791z M320.835,439.31
						c0.485-0.199,1.164-0.301,2.097-0.121c2.351,0.383,5.668,2.378,6.887,3.199c-0.432,0.017-1.103,0.061-2.149,0.137
						c-1.349,0.098-3.116,0.248-4.029,0.376c-1.66,0.097-3.602-0.19-4.022-1.293c-0.206-0.515-0.072-1.167,0.338-1.664
						C320.124,439.743,320.403,439.488,320.835,439.31z"/>
				</g>
			</g>
			<g>
				<g>
					<path style="fill:#92E3A9;" d="M355.417,467.508c0.145,0.067,0.32,0.012,0.399-0.13c6.566-11.823,6.484-26.463-0.215-38.206
						c-0.084-0.147-0.272-0.2-0.421-0.115c-0.148,0.084-0.2,0.273-0.115,0.421c6.592,11.557,6.674,25.965,0.212,37.601
						c-0.083,0.149-0.029,0.337,0.12,0.419C355.403,467.502,355.41,467.505,355.417,467.508z"/>
				</g>
				<g>
					<g>
						<path style="fill:#92E3A9;" d="M354.429,454.323c3.741,0.494,3.951,6.582,3.799,6.626c-0.189,0.62-0.394,1.237-0.616,1.851
							c-0.003-0.87-1.194-2.643-3.536-4.254C351.812,456.864,350.882,453.721,354.429,454.323z"/>
					</g>
					<g>
						<path style="fill:#92E3A9;" d="M365.155,456.245c3.652,0.616,1.04,5.001-1.938,5.151c-2.912,0.244-4.948,0.808-5.554,1.424
							c0.263-0.599,0.511-1.202,0.742-1.811C358.517,461.103,361.676,455.79,365.155,456.245z"/>
					</g>
				</g>
				<g>
					<g>
						<path style="fill:#92E3A9;" d="M354.947,448.75c3.768-0.135,5.008,5.768,4.87,5.83c-0.079,0.634-0.175,1.267-0.286,1.899
							c-0.154-0.843-1.633-2.369-4.216-3.55C352.796,451.669,351.349,448.754,354.947,448.75z"/>
					</g>
					<g>
						<path style="fill:#92E3A9;" d="M365.843,448.843c3.702-0.004,1.868,4.714-1.037,5.348c-2.827,0.72-4.733,1.603-5.222,2.3
							c0.155-0.624,0.294-1.251,0.417-1.881C360.124,454.688,362.334,448.983,365.843,448.843z"/>
					</g>
				</g>
				<g>
					<g>
						<path style="fill:#92E3A9;" d="M354.526,443.194c3.691-0.758,5.899,4.831,5.775,4.91c0.028,0.634,0.041,1.269,0.038,1.905
							c-0.295-0.798-2.008-2.045-4.752-2.771C352.892,446.425,350.979,443.801,354.526,443.194z"/>
					</g>
					<g>
						<path style="fill:#92E3A9;" d="M365.283,441.463c3.649-0.621,2.628,4.323-0.129,5.427c-2.666,1.177-4.397,2.359-4.761,3.121
							c0.047-0.635,0.079-1.272,0.095-1.909C360.62,448.164,361.847,442.193,365.283,441.463z"/>
					</g>
				</g>
				<g>
					<g>
						<path style="fill:#92E3A9;" d="M353.18,437.778c3.514-1.363,6.627,3.79,6.517,3.885c0.133,0.62,0.252,1.243,0.355,1.869
							c-0.424-0.735-2.321-1.677-5.147-1.934C352.112,441.248,349.786,438.972,353.18,437.778z"/>
					</g>
					<g>
						<path style="fill:#92E3A9;" d="M363.496,434.268c3.495-1.221,3.318,3.839,0.783,5.386c-2.432,1.607-3.942,3.06-4.174,3.871
							c-0.059-0.633-0.134-1.265-0.225-1.895C360.022,441.672,360.232,435.568,363.496,434.268z"/>
					</g>
				</g>
				<g>
					<g>
						<path style="fill:#92E3A9;" d="M350.923,432.623c3.238-1.935,7.194,2.666,7.097,2.774c0.237,0.592,0.458,1.189,0.665,1.792
							c-0.541-0.657-2.571-1.272-5.403-1.057C350.471,436.251,347.781,434.375,350.923,432.623z"/>
					</g>
					<g>
						<path style="fill:#92E3A9;" d="M360.498,427.421c3.241-1.793,3.941,3.267,1.7,5.221c-2.125,1.999-3.369,3.69-3.461,4.531
							c-0.165-0.616-0.346-1.229-0.542-1.839C358.347,435.357,357.507,429.259,360.498,427.421z"/>
					</g>
				</g>
				<g>
					<path style="fill:#92E3A9;" d="M356.702,431.923c0.096,0.03-0.762-5.418-2.435-7.932c-1.57-2.517-3.832-1.935-4.386-0.764
						c-0.576,1.168,0.59,2.877,1.844,4.077C353.06,428.392,356.75,431.845,356.702,431.923z"/>
					<path style="fill:#92E3A9;" d="M356.616,432.11c0.008,0.004,0.017,0.007,0.025,0.01c0.083,0.026,0.176-0.005,0.229-0.074
						c0.004-0.005,0.007-0.011,0.01-0.018c0.03-0.049,0.052-0.087,0.021-0.16c0.017-1.019-1.025-5.829-2.462-7.989
						c-0.773-1.24-1.848-1.918-2.948-1.853c-0.792,0.046-1.496,0.484-1.796,1.116c-0.78,1.58,1.248,3.701,1.888,4.314
						c1.301,1.06,4.658,4.206,4.93,4.551C356.533,432.052,356.57,432.089,356.616,432.11z M352.577,422.646
						c0.476,0.22,1.013,0.648,1.516,1.454c1.319,1.983,2.115,5.772,2.342,7.223c-0.306-0.305-0.795-0.766-1.563-1.482
						c-0.99-0.922-2.302-2.114-3.017-2.696c-1.201-1.15-2.312-2.768-1.789-3.827c0.237-0.501,0.805-0.847,1.449-0.884
						C351.776,422.42,352.153,422.45,352.577,422.646z"/>
				</g>
			</g>
		</g>
		<path style="fill:#92E3A9;" d="M478.878,459.41c-7.65-2.04-19.889-1.02-19.889-1.02s14.279-7.65,5.61-7.65
			s-16.829,4.59-16.829,4.59s9.69-11.729,2.04-10.709c-7.65,1.02-8.67,10.199-8.67,10.199s-7.14-14.789-9.179-8.669
			c-2.04,6.12,2.04,12.239,2.04,12.239s-7.14-4.59-10.709-3.57c-3.57,1.02-8.67,6.12-8.67,6.12s-10.394-8.143-13.769-6.63
			c-3.375,1.513-9.18,8.16-9.18,8.16l-15.299-1.53c0,0-5.61-8.159-7.14-4.59c-1.53,3.57,2.04,7.65,2.04,7.65
			s-18.628-11.685-20.871-6.251c-2.243,5.434-2.243,5.434-2.243,5.434s-14.114-5.302-15.644-1.223c-1.53,4.08,1.02,4.59,1.02,4.59
			s-21.419-4.08-24.479-2.55c-3.06,1.53-0.51,3.57-0.51,3.57s-24.988-3.06-27.029-1.53c-2.04,1.53-2.04,1.53-2.04,1.53
			s-5.61-6.12-6.63-3.06c-1.02,3.06-4.08,4.08-4.08,4.08s3.06-17.849-1.02-18.359c-4.08-0.51-5.61,12.749-5.61,12.749
			s-11.219-14.789-12.749-10.709c-1.53,4.08,5.61,9.689,5.61,9.689s-9.689-2.55-8.16,0.51c1.53,3.06,7.649,6.63,7.649,6.63h-32.786
			l-2.747-0.541h-63.911c0,0-1.41-3.952-0.923-7.364c0.488-3.412-15.599,3.9-15.599,3.9s2.925-5.85-0.488-8.775
			c-3.412-2.925-13.649,8.775-13.649,8.775s1.95-2.925,1.463-6.825c-0.488-3.9-8.775,6.825-8.775,6.825s2.437-14.624-2.437-15.599
			c-4.875-0.975-6.825,15.112-6.825,15.112s-2.437-9.262-10.237-10.237c-7.8-0.975,2.437,11.699,2.437,11.699
			s-5.362-5.85-8.287-2.437c-2.925,3.412,2.925,4.387,2.925,4.387H76.128c0,0,0,0-0.488-3.412
			c-0.487-3.412-13.649,6.337-13.649,6.337s1.95-1.95,5.85-6.825s-20.961,7.312-20.961,7.312s3.412-2.925,4.875-9.749
			c1.462-6.825-15.599,9.262-15.599,9.262l-23.886,3.412H39.08l-21.449,3.412h206.771h41.352h214.143l-12.239-7.14l15.299-3.57
			C482.957,467.06,486.527,461.45,478.878,459.41z"/>
	</g>
</g>
<g id="Character">
	<g>
		<g>
			<path style="fill:#FFFFFF;stroke:#263238;stroke-linecap:round;stroke-linejoin:round;stroke-miterlimit:10;" d="
				M333.353,315.178c0,0,1.876,45.345,4.065,54.727c2.189,9.382,9.695,41.905,11.571,53.789c1.876,11.884,1.564,20.953,1.564,20.953
				l11.258,0.625c0,0,3.44-40.654,2.189-49.411c-1.251-8.756-4.691-31.898-4.691-36.276s7.505-43.782,7.505-43.782L333.353,315.178z
				"/>
			<path style="fill:#FFFFFF;stroke:#263238;stroke-linecap:round;stroke-linejoin:round;stroke-miterlimit:10;" d="
				M293.324,308.611c0,0-6.254,35.964-7.818,46.909c-1.564,10.945-9.694,58.48-11.884,67.549
				c-2.189,9.069-4.378,17.825-4.378,17.825l15.324,3.753l7.818-29.709c0,0,9.695-17.513,11.571-33.462
				c1.876-15.949,3.753-26.895,3.753-26.895l21.688-40.464L293.324,308.611z"/>
			<g>
				<path style="fill:#92E3A9;stroke:#263238;stroke-linecap:round;stroke-linejoin:round;stroke-miterlimit:10;" d="
					M346.424,440.651c0,0-1.515,17.608-1.893,18.744c-0.379,1.136-4.733,6.248-5.68,6.816c-0.947,0.568-11.928-0.189-14.011,2.84
					c-0.773,1.125-1.325,4.733-0.568,7.005c0.757,2.272,15.147,5.112,22.152,4.355c7.005-0.757,10.603-2.083,10.603-2.083
					s1.704,0.568,4.165,0.379c2.461-0.189,6.294-2.731,6.816-4.165c1.515-4.165-1.515-13.253-1.515-16.851s0.757-6.248,0.757-6.816
					c0-0.568,1.136-7.384,0-8.709C366.115,440.841,353.808,438.569,346.424,440.651z"/>
				<path style="fill:none;stroke:#263238;stroke-linecap:round;stroke-linejoin:round;stroke-miterlimit:10;" d="M340.366,467.726
					c0,0,4.733,1.704,6.059,1.893c1.325,0.189,8.141-5.112,8.52-8.331c0.379-3.219-0.757-2.651-3.219-3.029
					c-2.461-0.379-7.195,1.136-7.195,1.136"/>
				<path style="fill:none;stroke:#263238;stroke-linecap:round;stroke-linejoin:round;stroke-miterlimit:10;" d="M356.27,459.017
					c0,0-0.379-8.52-0.379-12.685c0-4.165,0.379-5.869,1.704-5.869"/>
				<path style="fill:none;stroke:#263238;stroke-linecap:round;stroke-linejoin:round;stroke-miterlimit:10;" d="M356.27,449.55
					c0,0,4.923,0.947,7.952,1.136c3.029,0.189,3.029,0.189,3.029,0.189s0.568-7.195,0-8.709c-0.568-1.515-7.384-2.272-7.384-2.272
					S354.565,437.811,356.27,449.55z"/>
				<path style="fill:none;stroke:#263238;stroke-linecap:round;stroke-linejoin:round;stroke-miterlimit:10;" d="M349.075,440.273
					c0,0-1.704,0.379-1.704,2.84s-0.757,14.578-0.757,14.578"/>
				<path style="fill:#263238;stroke:#263238;stroke-linecap:round;stroke-linejoin:round;stroke-miterlimit:10;" d="
					M368.008,474.542c0.284-0.498,0.302-1.769,0.213-3.353c-1.557,1.038-8.246,5.163-18.957,7.14
					c-9.931,1.833-21.215-1.88-25.202-3.383c0.033,0.38,0.091,0.756,0.21,1.111c0.757,2.272,15.147,5.112,22.152,4.355
					c7.005-0.757,10.603-2.083,10.603-2.083s1.704,0.568,4.165,0.379C363.654,478.518,367.251,475.867,368.008,474.542z"/>
			</g>
			<g>
				<path style="fill:#92E3A9;stroke:#263238;stroke-linecap:round;stroke-linejoin:round;stroke-miterlimit:10;" d="
					M263.307,437.622l-0.568,15.147c0,0-6.627,2.651-10.413,3.597c-3.787,0.947-5.491,0.947-6.627,0.947
					c-1.136,0-4.355-2.461-7.763-0.757c-3.408,1.704-6.816,5.869-5.68,7.573c1.136,1.704,3.787,6.059,11.36,8.52
					c7.573,2.461,9.845,0.189,12.685,0c2.84-0.189,5.301,0,5.301,0l-0.379,2.461c0,0,7.195,1.325,10.792,1.325
					c3.597,0,7.763-1.515,7.763-1.515l1.136-9.277l0.947-9.467c0,0,5.112-12.685,4.544-13.821c-0.568-1.136-8.52-3.597-14.2-4.923
					C266.526,436.107,264.443,435.35,263.307,437.622z"/>
				<path style="fill:#263238;stroke:#263238;stroke-linecap:round;stroke-linejoin:round;stroke-miterlimit:10;" d="
					M272.017,476.435c3.597,0,7.763-1.515,7.763-1.515l0.479-3.915c-7.54,1.78-13.612-0.251-18.087-0.251
					c-5.112,0-9.088,1.704-17.986-0.379c-5.745-1.345-9.821-5.285-11.997-7.915c-0.215,0.659-0.215,1.24,0.069,1.667
					c1.136,1.704,3.787,6.059,11.36,8.52c7.573,2.461,9.845,0.189,12.685,0c2.84-0.189,5.301,0,5.301,0l-0.379,2.461
					C261.225,475.11,268.419,476.435,272.017,476.435z"/>
				<path style="fill:none;stroke:#263238;stroke-linecap:round;stroke-linejoin:round;stroke-miterlimit:10;" d="M269.934,437.243
					l-0.947,9.845l14.768,3.976l2.651-8.709C286.406,442.355,275.425,437.622,269.934,437.243z"/>
				<polyline style="fill:none;stroke:#263238;stroke-linecap:round;stroke-linejoin:round;stroke-miterlimit:10;" points="
					268.23,448.793 265.958,455.419 264.254,454.094 				"/>
				<path style="fill:none;stroke:#263238;stroke-linecap:round;stroke-linejoin:round;stroke-miterlimit:10;" d="M265.39,457.502
					c0,0-5.68,3.787-9.088,4.544c-3.408,0.757-5.112,0.757-5.112,0.757s-1.515-1.704-1.704-3.597"/>
			</g>
		</g>
		<g>
			<path style="fill:#263238;stroke:#263238;stroke-linecap:round;stroke-linejoin:round;stroke-miterlimit:10;" d="
				M357.749,123.261c0,0,37.479,4.877,47.49,11.038c10.012,6.161,11.552,13.862,6.931,22.847
				c-4.621,8.985-9.241,15.659-9.241,15.659l-4.107,40.046c0,0,2.054,15.146,2.824,30.034c0.77,14.889,6.161,17.199-0.513,29.008
				c-6.674,11.808-20.239,13.569-26.184,12.322c-5.944-1.247-10.782-8.728-11.295-9.498c-0.513-0.77-11.808-38.762-13.092-63.149
				c-1.283-24.387-1.54-30.034-8.214-48.26c-6.674-18.226,2.054-32.345,3.851-36.452
				C347.994,122.748,357.749,123.261,357.749,123.261z"/>
			<path style="fill:#A8A8A8;stroke:#263238;stroke-linecap:round;stroke-linejoin:round;stroke-miterlimit:10;" d="
				M414.994,143.027c0,0-6.161-7.701-16.172-4.364c-10.011,3.337-21.05,13.348-23.103,21.306c-2.054,7.958-2.658,8.915,0.725,10.233
				c3.382,1.318,26.486,2.602,26.486,2.602S420.898,158.43,414.994,143.027z"/>
			
				<line style="fill:none;stroke:#C2C2C2;stroke-linecap:round;stroke-linejoin:round;stroke-miterlimit:10;" x1="398.822" y1="212.851" x2="384.703" y2="213.621"/>
			
				<line style="fill:none;stroke:#C2C2C2;stroke-linecap:round;stroke-linejoin:round;stroke-miterlimit:10;" x1="397.795" y1="217.215" x2="385.986" y2="217.985"/>
		</g>
		<g>
			<path style="fill:#FFFFFF;stroke:#263238;stroke-linecap:round;stroke-linejoin:round;stroke-miterlimit:10;" d="
				M301.933,196.156l-19.255,25.45c0,0-19.59-15.237-23.441-20.092c-3.851-4.856-5.693-7.702-5.693-7.702s2.846-6.195,2.679-7.702
				c-0.168-1.507-1.005-4.019-0.335-6.028c0.67-2.009,2.846-4.688,2.512-5.525c-0.335-0.837-4.353,0.67-5.693,2.344
				c-1.339,1.674-1.507,3.181-1.674,3.851c-0.167,0.67-1.34,2.846-1.34,2.846s-7.2-6.195-8.204-6.53
				c-1.005-0.335-2.679,0.837-3.181,1.842c-0.502,1.005-5.358,13.897-4.856,14.902c0.502,1.005,7.032,4.353,9.209,5.023
				c2.177,0.67,6.028,2.512,6.028,2.512s12.725,20.595,17.246,25.785c4.521,5.19,16.409,16.409,18.92,15.237
				c2.512-1.172,18.083-17.246,18.083-17.246s-0.67-9.711,0.168-17.748c0.837-8.037,1.842-13.395,1.842-13.395L301.933,196.156z"/>
			<path style="fill:#FFFFFF;stroke:#263238;stroke-linecap:round;stroke-linejoin:round;stroke-miterlimit:10;" d="
				M239.003,175.555c-0.278-0.28-0.734-0.258-0.986,0.045c-0.904,1.091-2.813,3.505-2.557,4.147
				c0.335,0.837,4.353,4.688,5.525,5.023c1.172,0.335,3.684-2.177,2.846-3.516C243.117,180.109,240.323,176.886,239.003,175.555z"/>
			<path style="fill:#FFFFFF;stroke:#263238;stroke-linecap:round;stroke-linejoin:round;stroke-miterlimit:10;" d="
				M235.683,180.255c0,0-1.911,1.557-2.194,2.477c-0.283,0.92-0.637,3.044,0,3.61c0.637,0.566,4.742,2.69,5.521,2.477
				c0.779-0.212,1.911-1.699,1.911-2.407c0-0.708-2.265-2.76-3.397-3.822C236.391,181.529,235.683,180.255,235.683,180.255z"/>
			<path style="fill:#FFFFFF;stroke:#263238;stroke-linecap:round;stroke-linejoin:round;stroke-miterlimit:10;" d="
				M233.631,186.837c0,0-1.345,0.425-1.416,1.628c-0.071,1.203-0.354,2.69,0.212,3.327c0.566,0.637,4.459,1.345,5.521,0.849
				c1.062-0.495,0.991-2.407,0.637-2.76S233.631,186.837,233.631,186.837z"/>
			<path style="fill:#FFFFFF;stroke:#263238;stroke-linecap:round;stroke-linejoin:round;stroke-miterlimit:10;" d="M232.569,192.5
				c0,0-0.141,1.982,0.354,2.548c0.495,0.566,4.601,0.92,5.379,0.637c0.779-0.283-0.354-3.043-0.354-3.043L232.569,192.5z"/>
			<path style="fill:none;stroke:#263238;stroke-linecap:round;stroke-linejoin:round;stroke-miterlimit:10;" d="M249.693,183.598
				c0,0-1.269,1.54-1.694,1.824c-0.425,0.283-3.398,2.619-3.256,4.388c0.141,1.77,0.991,2.619,0.991,2.619"/>
		</g>
		<g>
			<path style="fill:#A8A8A8;stroke:#263238;stroke-linecap:round;stroke-linejoin:round;stroke-miterlimit:10;" d="
				M297.915,272.675l-6.791,20.138l-4.968,15.689c0,0,15.689,4.184,23.795,5.491c8.106,1.307,18.827,1.307,18.827,1.307l0.523,3.399
				c0,0,33.732,1.569,37.915,1.046c4.184-0.523,7.583-1.83,7.583-1.83s-0.262-23.011-1.046-26.672
				c-0.785-3.661-2.166-11.034-2.166-11.034l-0.711-6.485c0,0-38.177-2.353-52.82-4.184c-14.643-1.83-17.52-2.615-17.52-2.615
				L297.915,272.675z"/>
			<polyline style="fill:none;stroke:#263238;stroke-linecap:round;stroke-linejoin:round;stroke-miterlimit:10;" points="
				317.657,292.483 329.732,298.521 329.397,314.117 			"/>
			<path style="fill:#D1D1D1;stroke:#263238;stroke-linecap:round;stroke-linejoin:round;stroke-miterlimit:10;" d="M329.061,310.26
				l0.239,8.44c0,0,7.643,1.12,22.066,1.791c14.423,0.671,23.647-1.174,23.647-1.174l-0.671-7.044c0,0-28.175-1.006-34.045-0.839
				C336.679,311.538,329.061,310.26,329.061,310.26z"/>
			<path style="fill:#D1D1D1;stroke:#263238;stroke-linecap:round;stroke-linejoin:round;stroke-miterlimit:10;" d="
				M286.631,302.043l-2.516,7.379c0,0,5.87,3.186,17.274,5.702c11.404,2.516,27.911,3.576,27.911,3.576l-0.407-7.098
				C328.894,311.602,294.346,306.235,286.631,302.043z"/>
			<path style="fill:none;stroke:#263238;stroke-linecap:round;stroke-linejoin:round;stroke-miterlimit:10;" d="M359.622,283.28
				c0,0,2.502,5.629,10.007,5.942"/>
			<path style="fill:none;stroke:#263238;stroke-linecap:round;stroke-linejoin:round;stroke-miterlimit:10;" d="M369.004,282.967
				c0,0,5.004,16.262,2.815,26.895"/>
		</g>
		<path style="fill:#92E3A9;stroke:#263238;stroke-linecap:round;stroke-linejoin:round;stroke-miterlimit:10;" d="M332.394,169.998
			c0,0-13.55,5.395-18.405,8.409s-9.879,27.962-10.381,37.673c-0.502,9.711,3.684,18.586,3.851,19.59
			c0.167,1.005-0.335,6.865-1.172,9.209c-0.837,2.344-5.023,16.074-5.86,18.251c-0.837,2.177-2.512,9.544-2.512,9.544
			s21.265,7.367,39.515,9.209c18.251,1.842,34.157-1.674,34.157-1.674s0.837-6.028-1.842-14.567
			c-2.679-8.539-7.367-27.292-7.367-29.971s6.53-23.776,9.209-36.501c2.679-12.725,1.842-17.413-1.005-19.925
			c-2.846-2.512-16.11-6.192-16.11-6.192L332.394,169.998z"/>
		<g>
			<path style="fill:#FFFFFF;stroke:#263238;stroke-linecap:round;stroke-linejoin:round;stroke-miterlimit:10;" d="
				M370.583,179.245c0,0,5.693,0.502,8.707,10.214c3.014,9.711,8.204,48.892,8.539,52.408s-8.539,0.67-8.539,0.67
				s-6.028-4.521-8.037-11.218c-2.009-6.698-3.684-15.404-3.684-15.404s-6.53,3.684-11.051-1.172
				c-4.521-4.856-2.344-21.599,0.167-28.297c2.512-6.698,7.535-10.214,7.535-10.214L370.583,179.245z"/>
			
				<line style="fill:none;stroke:#263238;stroke-linecap:round;stroke-linejoin:round;stroke-miterlimit:10;" x1="367.569" y1="215.913" x2="364.053" y2="205.365"/>
		</g>
		<path style="fill:#263238;stroke:#263238;stroke-linecap:round;stroke-linejoin:round;stroke-miterlimit:10;" d="M319.57,209
			c0,0-0.816,14.235-0.865,18.451c-0.049,4.216,1.74,7.799,4.082,8.147c3.937,0.584,7.963-4.231,7.53-8.226
			c-0.433-3.995-1.243-5.255-4.199-6.113c-2.956-0.859-5.916-0.201-5.916-0.201l0.328-4.751c0,0,4.819,2.51,7.689,1.02
			c2.87-1.49,3.391-9.125,1.181-12.422C327.19,201.606,321.755,201.184,319.57,209z"/>
		<path style="fill:#263238;stroke:#263238;stroke-linecap:round;stroke-linejoin:round;stroke-miterlimit:10;" d="M332.24,168.864
			c0,0-2.254-2.083-6.028-1.005c-4.377,1.251-14.124,6.921-16.911,8.539c-5.191,3.014-7.87,18.083-10.046,26.79
			c-2.177,8.707-3.181,16.074-0.67,19.925c2.512,3.851,8.874,12.558,8.874,12.558s-3.349-9.711-3.349-13.562
			c0-3.851,1.172-12.055,2.846-20.092c1.674-8.037,6.698-20.427,7.87-21.432C315.998,179.58,332.24,168.864,332.24,168.864z"/>
		<path style="fill:#263238;stroke:#263238;stroke-linecap:round;stroke-linejoin:round;stroke-miterlimit:10;" d="M364.053,168.026
			c0,0-11.218,12.558-13.73,21.432c-2.512,8.874,0,32.818,1.507,36.669c1.507,3.851,8.037,14.4,10.046,17.079
			c2.009,2.679,9.376,11.051,10.046,11.051c0.67,0,2.344-2.177,2.344-2.177s-12.223-24.446-13.228-30.641
			c-1.005-6.195-0.335-25.953,0.837-29.971c1.172-4.019,13.897-20.427,14.567-21.265
			C377.113,169.366,366.229,167.524,364.053,168.026z"/>
		<g>
			<path style="fill:#FFFFFF;stroke:#263238;stroke-linecap:round;stroke-linejoin:round;stroke-miterlimit:10;" d="
				M328.923,164.305c0,0,0,3.888-0.278,5.693c-0.278,1.805-6.249,5.971-10.275,15.829c-4.027,9.859-0.278,21.106,11.525,17.635
				c11.803-3.471,18.607-18.607,20.551-23.189c1.944-4.582,4.027-7.221,4.027-7.221s-4.999-0.833-7.359-6.11
				c-2.361-5.276-3.888-14.857-3.888-14.857L328.923,164.305z"/>
			<path style="fill:#263238;stroke:#263238;stroke-linecap:round;stroke-linejoin:round;stroke-miterlimit:10;" d="
				M328.645,169.998c0,0-0.278,5.138-1.944,7.637c0,0,4.166-2.638,5.693-7.637c1.528-4.999,6.674-11.032,6.674-11.032l-10.284,6.589
				L328.645,169.998z"/>
			<g>
				<path style="fill:#6E6E6E;stroke:#263238;stroke-linecap:round;stroke-linejoin:round;stroke-miterlimit:10;" d="
					M351.973,112.512c0,0,1.111-2.777,7.359-0.694c6.249,2.083,10.831,14.858,9.581,21.384s-8.47,12.219-8.47,13.747
					c0,1.527,1.111,1.944,1.111,1.944s-4.563,1.209-6.804-4.582c-2.241-5.791-0.694-10.553-0.555-11.525
					c0.139-0.972,0.417-12.08-0.972-15.83C351.834,113.206,351.973,112.512,351.973,112.512z"/>
				<path style="fill:#FFFFFF;stroke:#263238;stroke-linecap:round;stroke-linejoin:round;stroke-miterlimit:10;" d="
					M321.286,110.013c0,0-8.054,5.832-9.165,17.773c-0.823,8.853,0.694,8.887,0.278,13.052c-0.417,4.166,0.139,9.026,2.777,13.747
					c2.638,4.721,6.943,12.636,9.581,12.775c2.638,0.139,6.11-1.944,6.11-1.944s10.692-7.776,13.191-11.247
					c2.499-3.471,2.638-7.776,2.638-7.776s3.332-2.222,6.943-9.72c3.079-6.394,2.916-14.858,0.833-20.273
					c-2.083-5.415-4.999-10.136-15.968-11.247C327.534,104.042,321.286,110.013,321.286,110.013z"/>
				<path style="fill:#6E6E6E;stroke:#263238;stroke-linecap:round;stroke-linejoin:round;stroke-miterlimit:10;" d="M354.473,116.4
					c-2.083-5.415-4.999-10.136-15.968-11.247c-5.332-0.54-9.538,0.595-12.464,1.903l-0.866,5.595l7.082,5.693
					c0,0-1.666,3.61,1.944,7.776c3.61,4.166,9.859,8.748,9.859,8.748s-0.139,3.749,0.694,3.888c0.833,0.139,4.166-3.194,4.166-3.194
					l3.591,2.957c0.372-0.589,0.749-1.2,1.131-1.846C357.25,130.563,356.555,121.815,354.473,116.4z"/>
				<path style="fill:#6E6E6E;stroke:#263238;stroke-linecap:round;stroke-linejoin:round;stroke-miterlimit:10;" d="
					M330.867,118.483c0,0-4.582,2.361-11.664,5.832c-7.082,3.471-9.581,5.971-9.859,1.25c-0.278-4.721,3.61-8.887,7.915-9.72
					C321.564,115.011,327.812,115.845,330.867,118.483z"/>
				<path style="fill:#92E3A9;stroke:#263238;stroke-linecap:round;stroke-linejoin:round;stroke-miterlimit:10;" d="
					M315.732,117.094c0,0,2.361-5.693,15.413,2.777c13.053,8.47,19.717,21.245,19.717,21.245l2.777-4.443
					c0,0-3.332-11.247-9.859-19.579c-7.227-9.226-18.094-11.313-17.496-10.275C325.587,106.718,317.964,110.072,315.732,117.094z"/>
				<path style="fill:none;stroke:#263238;stroke-linecap:round;stroke-linejoin:round;stroke-miterlimit:10;" d="M312.816,134.035
					c0,0,2.499-3.055,4.999-0.278"/>
				<path style="fill:none;stroke:#263238;stroke-linecap:round;stroke-linejoin:round;stroke-miterlimit:10;" d="M326.563,134.59
					c0,0,3.471-2.083,6.249,2.222"/>
				<path style="fill:none;stroke:#263238;stroke-linecap:round;stroke-linejoin:round;stroke-miterlimit:10;" d="M319.897,134.729
					c0,0,2.361,6.526,1.805,8.748c-0.556,2.222-4.582,4.166-4.443,5.554c0.139,1.389,1.111,2.777,3.749,1.805"/>
				<path style="fill:none;stroke:#263238;stroke-linecap:round;stroke-linejoin:round;stroke-miterlimit:10;" d="M320.314,154.585
					c0,0,5.415,2.222,10.137-2.638"/>
				<path style="fill:#263238;" d="M317.398,140.214c0,1.035-0.435,1.875-0.972,1.875c-0.537,0-0.972-0.839-0.972-1.875
					c0-1.035,0.435-1.875,0.972-1.875C316.963,138.339,317.398,139.178,317.398,140.214z"/>
				<path style="fill:#263238;" d="M329.062,141.533c0,1.035-0.435,1.875-0.972,1.875c-0.537,0-0.972-0.839-0.972-1.875
					c0-1.035,0.435-1.874,0.972-1.874C328.627,139.658,329.062,140.498,329.062,141.533z"/>
			</g>
		</g>
		
			<line style="fill:none;stroke:#263238;stroke-linecap:round;stroke-linejoin:round;stroke-miterlimit:10;" x1="347.994" y1="164.334" x2="361.343" y2="167.158"/>
		<g>
			<path style="fill:#A8A8A8;stroke:#263238;stroke-linecap:round;stroke-linejoin:round;stroke-miterlimit:10;" d="
				M402.159,248.276c0,0-12.322,5.391-20.793,6.931c-8.471,1.54-15.659-2.31-22.333,2.054c-6.674,4.364-6.161,13.862-0.513,17.456
				c5.647,3.594,13.349,6.931,22.59,5.647c9.241-1.284,14.119-2.567,18.483-5.904c4.364-3.337,5.391-9.241,5.134-13.349
				C404.469,257.004,402.159,248.276,402.159,248.276z"/>
			<path style="fill:#263238;stroke:#263238;stroke-linecap:round;stroke-linejoin:round;stroke-miterlimit:10;" d="
				M302.301,258.031c0,0,24.763,10.603,67.445,7.612l1.131,8.082c0,0-47.783,1.249-70.886-9.019L302.301,258.031z"/>
			<polygon style="fill:#263238;stroke:#263238;stroke-linecap:round;stroke-linejoin:round;stroke-miterlimit:10;" points="
				341.32,265.988 339.266,298.846 343.63,297.306 344.144,265.732 			"/>
			<polygon style="fill:#A8A8A8;stroke:#263238;stroke-linecap:round;stroke-linejoin:round;stroke-miterlimit:10;" points="
				333.784,265.151 333.034,271.899 340.408,272.774 341.32,265.988 			"/>
		</g>
		<path style="fill:#FFFFFF;stroke:#263238;stroke-linecap:round;stroke-linejoin:round;stroke-miterlimit:10;" d="M362.378,215.913
			c0,0-1.172-7.2-1.674-8.707c-0.502-1.507-9.879-7.367-12.056-8.204c-2.177-0.837-3.181,0.67-3.349,2.009
			c-0.167,1.339,0.335,2.512,0.335,2.512s-3.014,8.037-2.679,9.376c0.335,1.34,2.846,5.191,4.856,6.195
			c2.009,1.005,6.53,2.511,7.535,3.181c1.005,0.67,12.223,21.097,12.223,21.097s11.218,13.73,14.065,14.902
			c2.847,1.172,5.191-2.009,6.698-6.865c1.507-4.856-0.335-12.558-2.512-14.4c-2.177-1.842-13.228-10.214-17.246-13.228
			C364.555,220.769,362.378,215.913,362.378,215.913z"/>
	</g>
</g>
</svg>
