<?xml version="1.0" encoding="utf-8"?>
<!-- Generator: Adobe Illustrator 27.5.0, SVG Export Plug-In . SVG Version: 6.00 Build 0)  -->
<svg version="1.1" xmlns="http://www.w3.org/2000/svg" xmlns:xlink="http://www.w3.org/1999/xlink" x="0px" y="0px"
	 viewBox="0 0 500 500" style="enable-background:new 0 0 500 500;" xml:space="preserve">
<g id="Background_Simple">
	<g>
		<path style="fill:#92E3A9;" d="M452.573,220.564c0,0-39.256-124.309-124.559-162.701c-75.299-33.89-159.581-19.03-194.818,58.71
			c-12.555,27.7-28.875,57.588-48.438,80.343c-21.935,25.514-51.373,43.29-52.272,105.164
			c-0.899,61.874,53.733,134.967,105.053,150.767c51.32,15.8,113.964-15.831,166.868-45.876
			C357.311,376.925,496.253,376.396,452.573,220.564z"/>
		<path style="opacity:0.7;fill:#FFFFFF;" d="M452.573,220.564c0,0-39.256-124.309-124.559-162.701
			c-75.299-33.89-159.581-19.03-194.818,58.71c-12.555,27.7-28.875,57.588-48.438,80.343
			c-21.935,25.514-51.373,43.29-52.272,105.164c-0.899,61.874,53.733,134.967,105.053,150.767
			c51.32,15.8,113.964-15.831,166.868-45.876C357.311,376.925,496.253,376.396,452.573,220.564z"/>
	</g>
</g>
<g id="Floor_3">
	
		<line style="fill:none;stroke:#263238;stroke-linecap:round;stroke-linejoin:round;stroke-miterlimit:10;" x1="30.047" y1="211.499" x2="326.733" y2="211.499"/>
</g>
<g id="Floor_2">
	
		<line style="fill:none;stroke:#263238;stroke-linecap:round;stroke-linejoin:round;stroke-miterlimit:10;" x1="220.569" y1="369.672" x2="491.49" y2="369.672"/>
</g>
<g id="Floor_1">
	
		<line style="fill:none;stroke:#263238;stroke-linecap:round;stroke-linejoin:round;stroke-miterlimit:10;" x1="8.861" y1="444.163" x2="279.782" y2="444.163"/>
</g>
<g id="Hurdle">
	<g>
		
			<rect x="322.086" y="365.427" style="fill:#92E3A9;stroke:#263238;stroke-linecap:round;stroke-linejoin:round;stroke-miterlimit:10;" width="84.994" height="4.244"/>
		
			<rect x="322.086" y="270.917" style="fill:#FFFFFF;stroke:#263238;stroke-linecap:round;stroke-linejoin:round;stroke-miterlimit:10;" width="5.338" height="98.755"/>
	</g>
</g>
<g id="Character_1">
	<g>
		<g>
			<path style="fill:#FFFFFF;stroke:#263238;stroke-linecap:round;stroke-linejoin:round;stroke-miterlimit:10;" d="
				M213.432,306.689c0,0,1.185,4.91,5.587,10.158c4.402,5.248,8.634,11.682,8.634,11.682s15.068-5.926,17.946-6.941
				c2.878-1.016,14.899-6.603,14.899-6.603s1.185-7.449,2.709-7.449c1.524,0,5.926-1.016,5.926-1.016s4.063,0.339,5.079,1.185
				c1.016,0.846,0.846,2.032,0.846,4.402c0,2.37-0.508,6.772-1.016,7.28c-0.508,0.508-6.772,2.37-8.296,2.878
				c-1.524,0.508-3.894,0.677-4.402,0.846c-0.508,0.169-7.957,4.571-11.513,7.957c-3.555,3.386-13.714,8.634-20.486,11.174
				c-6.772,2.54-8.635,2.878-9.481,0.677c-0.846-2.201-5.079-6.772-5.079-6.772s-10.836-10.497-13.206-13.883
				c-2.37-3.386-4.402-8.465-4.402-8.465s5.756-8.804,8.126-11.851C207.675,298.901,213.432,306.689,213.432,306.689z"/>
			<polygon style="fill:#263238;stroke:#263238;stroke-linecap:round;stroke-linejoin:round;stroke-miterlimit:10;" points="
				206.475,306.537 201.198,320.721 197.899,315.938 			"/>
			<g>
				<path style="fill:none;stroke:#263238;stroke-linecap:round;stroke-linejoin:round;stroke-miterlimit:10;" d="M265.577,309.229
					c0,0-0.508,5.079,0.339,5.248c0.847,0.169,2.37-0.677,2.54-1.355c0.169-0.677,0.677-6.603,0.677-6.603"/>
				<polyline style="fill:none;stroke:#263238;stroke-linecap:round;stroke-linejoin:round;stroke-miterlimit:10;" points="
					268.625,318.71 268.455,313.123 274.042,313.461 				"/>
				
					<line style="fill:none;stroke:#263238;stroke-linecap:round;stroke-linejoin:round;stroke-miterlimit:10;" x1="268.794" y1="310.245" x2="273.534" y2="310.245"/>
				
					<line style="fill:none;stroke:#263238;stroke-linecap:round;stroke-linejoin:round;stroke-miterlimit:10;" x1="268.794" y1="316.17" x2="273.365" y2="315.831"/>
				<path style="fill:none;stroke:#263238;stroke-linecap:round;stroke-linejoin:round;stroke-miterlimit:10;" d="M266.593,315.662
					c0,0-4.063,1.862-4.233,2.709c-0.169,0.846-0.169,0.846-0.169,0.846"/>
			</g>
		</g>
		<path style="fill:#92E3A9;stroke:#263238;stroke-linecap:round;stroke-linejoin:round;stroke-miterlimit:10;" d="M60.245,444.143
			c0,0-4.991-1.503-5.668-14.54h10.835c0,0-0.211,11.661,6.053,14.54H60.245z"/>
		<g>
			<path style="fill:#FFFFFF;stroke:#263238;stroke-linecap:round;stroke-linejoin:round;stroke-miterlimit:10;" d="
				M113.374,331.577c0,0-4.063,15.406-5.756,22.856c-1.693,7.449-2.878,20.655-3.725,23.195
				c-0.847,2.539-13.883,7.111-18.623,14.052c-4.74,6.941-12.19,20.147-12.528,20.655s-12.698,1.016-13.544,2.201
				c-0.847,1.185,1.862,10.666,2.37,13.206c0.508,2.539,2.709,7.788,4.402,10.327c1.693,2.539,4.402,3.725,5.587,3.555
				c1.185-0.169,2.201,0,2.201-1.693s-1.693-8.296-2.032-10.328c-0.339-2.032,0.339-3.555,3.894-7.619
				c3.555-4.063,11.343-11.513,18.454-17.438c7.111-5.926,15.576-5.926,23.533-17.608c7.957-11.682,15.068-38.093,15.068-38.093
				L113.374,331.577z"/>
			<path style="fill:#263238;stroke:#263238;stroke-linecap:round;stroke-linejoin:round;stroke-miterlimit:10;" d="
				M123.837,374.839c5.094-12.093,8.838-25.994,8.838-25.994l-19.3-17.269c0,0-4.063,15.406-5.756,22.856
				c-0.921,4.051-1.691,9.803-2.339,14.617C108.69,371.469,114.916,374.715,123.837,374.839z"/>
			<path style="fill:#92E3A9;stroke:#263238;stroke-linecap:round;stroke-linejoin:round;stroke-miterlimit:10;" d="M73.757,439.931
				c0-1.693-1.693-8.296-2.032-10.328c-0.268-1.609,0.107-2.905,2.04-5.392l-0.008-0.026c0,0,1.693-4.063,0.339-4.571
				c-1.354-0.508-1.354-0.508-1.354-0.508s-1.524-1.862-1.693-5.249c-0.021-0.42-0.031-0.813-0.034-1.18
				c-3.505,0.421-11.158,0.934-11.817,1.857c-0.847,1.185,1.862,10.666,2.37,13.206c0.508,2.54,2.709,7.788,4.402,10.328
				c1.693,2.539,4.402,3.725,5.587,3.555C72.741,441.454,73.757,441.624,73.757,439.931z"/>
		</g>
		<path style="fill:#FFFFFF;stroke:#263238;stroke-linecap:round;stroke-linejoin:round;stroke-miterlimit:10;" d="M201.073,282.14
			c0,0-8.804-5.418-14.899-7.788c-6.095-2.37-8.465-1.016-11.343-2.878c-2.878-1.862-9.65-4.233-13.036-5.079
			c-3.386-0.846-11.851-3.217-14.899-4.91c-3.048-1.693-8.465,2.709-8.465,2.709l-24.888,24.38c0,0-10.327,7.957-11.682,10.158
			c-1.354,2.201,1.354,4.74,1.354,4.74s-0.169,2.709,1.185,3.386c1.354,0.677,3.894-0.846,3.894-0.846s0,1.185,1.354,1.016
			c1.354-0.169,3.386-1.354,5.079-3.555c1.693-2.201,1.693-9.481,1.693-9.481s15.237-10.158,19.131-10.835
			c3.894-0.677,12.528-4.741,12.528-4.741s6.434,3.555,9.65,4.571s7.28,2.032,7.28,2.032s-16.422,4.74-24.21,9.65
			c-7.788,4.91-9.312,6.095-9.65,6.941c-0.339,0.847-13.206,6.941-18.285,16.253s2.032,22.517,5.756,25.903
			c3.725,3.386,22.856,25.057,22.856,25.057s-5.756,0.677-13.544,4.402s-20.824,10.328-24.549,12.19
			c-3.725,1.862-15.068,5.079-15.407,7.28c-0.339,2.201,4.233,14.729,7.619,17.269c3.386,2.54,6.603,4.741,7.111,3.217
			c0.508-1.524-1.016-7.619-0.508-11.343c0.508-3.725,1.524-7.619,1.524-7.619s24.549-4.402,35.892-7.28
			c11.343-2.878,20.994-5.587,25.395-10.327c4.402-4.741,3.725-4.91,3.048-9.312c-0.677-4.402-22.348-32.845-22.348-32.845
			s4.571-6.772,6.434-8.634c1.862-1.862,15.237-4.063,17.607-4.063c2.37,0,20.655-2.709,23.702-3.217
			c3.047-0.508,13.036-9.142,15.745-16.084c2.709-6.941-1.862-13.714-3.725-16.422C203.612,283.325,201.073,282.14,201.073,282.14z"
			/>
		<path style="fill:none;stroke:#263238;stroke-linecap:round;stroke-linejoin:round;stroke-miterlimit:10;" d="M165.011,285.018
			c0,0,3.045,6.033,9.073,7.588"/>
		<g>
			<path style="fill:#263238;stroke:#263238;stroke-linecap:round;stroke-linejoin:round;stroke-miterlimit:10;" d="
				M145.711,334.455c0,0,2.917-4.32,5.04-7.008c-2.29-1.831-6.303-5.746-11.135-13.478c-4.144-6.631-6.326-10.943-7.462-13.51
				c-0.616,0.518-0.885,0.857-1.003,1.151c-0.339,0.847-13.206,6.941-18.285,16.253c-5.079,9.312,2.032,22.517,5.756,25.904
				c1.679,1.526,6.486,6.765,11.261,12.061c4.222-4.303,13.256-11.441,24.979-9.049
				C150.024,340.117,145.711,334.455,145.711,334.455z"/>
			<path style="fill:none;stroke:#8A8A8A;stroke-linecap:round;stroke-linejoin:round;stroke-miterlimit:10;" d="M144.018,332.423
				c0,0-6.941-10.158-12.02-12.528"/>
			<path style="fill:none;stroke:#263238;stroke-linecap:round;stroke-linejoin:round;stroke-miterlimit:10;" d="M149.318,375.443
				c0.857,0.656,1.567,1.15,1.979,1.337"/>
			<path style="fill:none;stroke:#263238;stroke-linecap:round;stroke-linejoin:round;stroke-miterlimit:10;" d="M141.478,368.823
				c0,0,2.571,2.298,5.133,4.436"/>
			<path style="fill:#92E3A9;stroke:#263238;stroke-linecap:round;stroke-linejoin:round;stroke-miterlimit:10;" d="
				M103.723,394.219c0,0-1.354-0.169-2.54-0.169c-1.185,0-2.37,1.354-2.37,1.354s-1.185-2.032-2.539-4.063
				c-0.582-0.872-0.975-1.838-1.236-2.656c-3.597,1.387-6.88,2.842-7.06,4.011c-0.339,2.201,4.233,14.729,7.619,17.269
				c3.386,2.54,6.603,4.741,7.111,3.217c0.508-1.524-1.016-7.619-0.508-11.343C102.708,398.113,103.723,394.219,103.723,394.219z"/>
		</g>
		<g>
			<path style="fill:#92E3A9;stroke:#263238;stroke-linecap:round;stroke-linejoin:round;stroke-miterlimit:10;" d="M201.073,282.14
				c0,0-3.587-2.206-7.766-4.418c0.05,3.119-0.584,8.714-5.101,12.884c-6.603,6.095-15.914,4.741-19.639,1.016
				c-3.725-3.725-3.555-6.603-3.555-6.603s-16.422,4.74-24.21,9.65c-7.788,4.91-9.312,6.095-9.65,6.941
				c-0.052,0.13-0.402,0.385-0.972,0.756c1.576,5.379,6.883,19.625,20.061,25.739c0.734-0.959,1.414-1.794,1.905-2.284
				c1.862-1.862,15.237-4.063,17.608-4.063c2.37,0,20.655-2.709,23.702-3.217c3.047-0.508,13.036-9.142,15.745-16.084
				c2.709-6.941-1.862-13.714-3.725-16.422C203.612,283.325,201.073,282.14,201.073,282.14z"/>
			<g>
				<path style="fill:none;stroke:#263238;stroke-linecap:round;stroke-linejoin:round;stroke-miterlimit:10;" d="M167.589,317.279
					c1.057,0.056,2.108,0.087,3.143,0.087"/>
				<path style="fill:none;stroke:#263238;stroke-linecap:round;stroke-linejoin:round;stroke-miterlimit:10;" d="M141.26,312.215
					c0,0,10.743,3.453,22.018,4.704"/>
				<path style="fill:none;stroke:#263238;stroke-linecap:round;stroke-linejoin:round;stroke-miterlimit:10;" d="M137.254,304.776
					c0,0,3.72,5.437,16.596,8.298"/>
			</g>
		</g>
		<polygon style="fill:#B0B0B0;stroke:#263238;stroke-linecap:round;stroke-linejoin:round;stroke-miterlimit:10;" points="
			47.613,436.027 47.613,439.626 48.742,439.626 48.742,437.58 56.576,437.58 56.576,439.626 57.846,439.626 57.846,436.027 		"/>
		
			<rect x="26.86" y="439.761" style="fill:#B0B0B0;stroke:#263238;stroke-linecap:round;stroke-linejoin:round;stroke-miterlimit:10;" width="61.288" height="4.402"/>
		<path style="fill:#92E3A9;stroke:#263238;stroke-linecap:round;stroke-linejoin:round;stroke-miterlimit:10;" d="M38.792,444.143
			c0,0-4.991-1.503-5.668-14.54h10.835c0,0-0.211,11.661,6.053,14.54H38.792z"/>
		<path style="fill:#FFFFFF;stroke:#263238;stroke-linecap:round;stroke-linejoin:round;stroke-miterlimit:10;" d="M48.037,439.979"
			/>
		<g>
			<path style="fill:#FFFFFF;stroke:#263238;stroke-linecap:round;stroke-linejoin:round;stroke-miterlimit:10;" d="
				M236.457,304.827c0,0-5.418,4.402-7.449,4.91s-3.725-0.677-4.91-0.339c-1.185,0.339-2.54,1.862-4.402,2.201
				c-1.862,0.339-3.047-2.54-3.047-2.54s-4.571,1.524-7.111,1.016c-2.54-0.508-2.54-6.434-2.54-6.434s-7.28,3.555-13.036,4.063
				c-5.756,0.508-7.619-4.063-4.571-8.804c3.048-4.741,7.111-8.465,8.973-11.513c1.862-3.048,2.709-5.248,2.709-5.248
				s6.095,3.047,7.957,3.217c1.862,0.169,6.434-1.693,6.434-1.693s7.957-2.878,9.312-4.233s11.513,11.851,13.544,17.608
				C240.351,302.795,236.457,304.827,236.457,304.827z"/>
			<polygon style="fill:#263238;stroke:#263238;stroke-linecap:round;stroke-linejoin:round;stroke-miterlimit:10;" points="
				206.998,303.642 208.148,297.342 200.502,304.278 			"/>
			<path style="fill:none;stroke:#263238;stroke-linecap:round;stroke-linejoin:round;stroke-miterlimit:10;" d="M224.436,302.118
				c0.508-0.339,2.709,0.339,1.355,4.402"/>
			<path style="fill:#263238;" d="M221.999,306.181c-0.888,0.014-1.616-0.467-1.625-1.075c-0.009-0.608,0.703-1.112,1.591-1.126
				c0.888-0.014,1.616,0.468,1.625,1.075C223.599,305.663,222.887,306.167,221.999,306.181z"/>
			<path style="fill:#263238;stroke:#263238;stroke-linecap:round;stroke-linejoin:round;stroke-miterlimit:10;" d="M219.696,291.79
				c0,0,4.402-2.032,3.386-4.233c-1.016-2.201-5.079-1.693-6.941,0.508c-1.862,2.201-1.862,2.201-1.862,2.201
				s-1.862-2.709-1.185-4.571c0.677-1.862,3.217-2.37,4.571-4.232c1.354-1.862,1.185-6.434,5.587-8.635
				c4.402-2.201,17.607,0.508,21.332,8.804c3.725,8.296,1.524,14.221,1.016,17.269c-0.508,3.047-1.354,7.28-3.048,8.973
				c-1.693,1.693-4.063,3.047-4.063,3.047l0.339-5.926c0,0-0.339,4.233-2.709,5.418c-2.37,1.185-3.386,1.185-3.386,1.185
				s3.894-2.878,2.032-5.756c-1.862-2.878-2.709-3.725-3.047-5.926c-0.339-2.201-0.508-2.878-0.508-2.878s-3.048,1.693-4.402,0
				c-1.354-1.693-0.339-2.878-1.862-3.556c-1.524-0.677-1.693-0.677-3.217-0.508C220.204,293.145,219.188,293.653,219.696,291.79z"
				/>
		</g>
		
			<rect x="26.86" y="441.868" style="fill:#B0B0B0;stroke:#263238;stroke-linecap:round;stroke-linejoin:round;stroke-miterlimit:10;" width="23.815" height="2.295"/>
	</g>
</g>
<g id="Character_3">
	<g>
		<g>
			<path style="fill:#FFFFFF;stroke:#263238;stroke-linecap:round;stroke-linejoin:round;stroke-miterlimit:10;" d="M218.292,85.154
				c0,0,4.405,9.958,5.554,21.257s8.618,38.492,9.192,38.875c0.575,0.383,1.724,2.298,2.298,2.681
				c0.575,0.383,1.341,1.532,3.256,3.639c1.915,2.107,7.277,6.894,10.15,7.277c2.872,0.383,9.001,1.915,7.66,3.447
				c-1.34,1.532-5.745,2.298-10.724,3.064c-4.979,0.766-6.511-0.192-9.767-0.958c-3.256-0.766-5.937-0.766-9.001-0.766
				c-3.064,0-4.213-2.298-4.213-4.788c0-2.49,0.766-11.682,0.766-11.682s-4.979-14.171-8.809-20.682
				c-3.83-6.511-4.979-2.681-8.618-13.214c-3.639-10.533-3.83-23.363-3.83-23.363L218.292,85.154z"/>
			<path style="fill:#263238;stroke:#263238;stroke-linecap:round;stroke-linejoin:round;stroke-miterlimit:10;" d="
				M234.378,149.499c0.192,1.149,0.192,2.872,0.192,2.872s-3.256,0-5.745-0.957c-1.883-0.724-4.42-1.557-5.546-1.92
				c-0.227,2.892-0.582,7.693-0.582,9.389c0,2.49,1.149,4.788,4.213,4.788c3.064,0,5.745,0,9.001,0.766
				c3.256,0.766,4.788,1.724,9.767,0.958c4.979-0.766,9.384-1.532,10.724-3.064c1.341-1.532-4.788-3.064-7.66-3.447
				c-2.873-0.383-8.235-5.171-10.15-7.277c-1.915-2.106-2.681-3.255-3.256-3.639C235.335,147.967,234.186,148.35,234.378,149.499z"
				/>
		</g>
		<g>
			<path style="fill:#FFFFFF;stroke:#263238;stroke-linecap:round;stroke-linejoin:round;stroke-miterlimit:10;" d="M203.163,62.748
				c0,0,11.299-4.596,20.299-4.788c9.001-0.192,26.236-0.575,28.725,2.872c2.49,3.447,2.681,6.894,0.766,11.107
				c-1.915,4.213-10.533,25.853-15.512,35.045c-4.979,9.192-11.49,21.448-12.448,24.512c-0.958,3.064-3.83,10.341-3.83,10.341
				s-0.574,2.298-3.064,0.575c-2.49-1.724-5.554-5.171-5.171-7.469c0.383-2.298,4.405-10.15,4.405-10.15l7.66-30.832l2.49-11.49
				c0,0-11.873,6.702-15.129,7.852c-3.255,1.149-9.575,4.022-9.575,4.022s-4.213-2.298-5.171-6.894
				c-0.958-4.596-0.958-16.469,0.958-20.108C200.482,63.706,203.163,62.748,203.163,62.748z"/>
			<path style="fill:#FFFFFF;stroke:#263238;stroke-linecap:round;stroke-linejoin:round;stroke-miterlimit:10;" d="
				M219.441,116.317l-2.106,8.478c0,0-4.021,7.852-4.405,10.15c-0.383,2.298,2.681,5.745,5.171,7.469
				c2.489,1.723,3.064-0.575,3.064-0.575s2.873-7.277,3.83-10.341c0.471-1.509,2.293-5.251,4.612-9.755
				C225.473,120.493,221.759,118.073,219.441,116.317z"/>
			<path style="fill:#263238;stroke:#263238;stroke-linecap:round;stroke-linejoin:round;stroke-miterlimit:10;" d="M224.228,140.69
				c0,0-0.191-3.638-1.532-2.681c-1.341,0.958-2.49,1.723-2.49,1.723s-3.638-2.489-4.596-4.021
				c-0.958-1.532-2.107-2.872-2.107-2.872s-8.809,5.362-10.724,7.469c-1.915,2.107-0.383,3.639,0.958,5.171
				c1.34,1.532,5.745,8.809,11.682,13.405c5.937,4.596,11.299,8.809,12.065,7.66c0.766-1.149,1.532-1.149-0.574-5.362
				c-2.107-4.213-4.405-10.15-4.213-11.873C222.888,147.584,224.228,140.69,224.228,140.69z"/>
			<path style="fill:none;stroke:#263238;stroke-linecap:round;stroke-linejoin:round;stroke-miterlimit:10;" d="M242.349,74.152
				c2.011-1.302,3.71-2.547,4.668-3.552"/>
			<path style="fill:none;stroke:#263238;stroke-linecap:round;stroke-linejoin:round;stroke-miterlimit:10;" d="M227.484,82.473
				c0,0,5.289-2.644,10.476-5.65"/>
		</g>
		
			<rect x="52.614" y="113.068" style="fill:#92E3A9;stroke:#263238;stroke-linecap:round;stroke-linejoin:round;stroke-miterlimit:10;" width="251.283" height="4.697"/>
		<polyline style="fill:#FFFFFF;stroke:#263238;stroke-linecap:round;stroke-linejoin:round;stroke-miterlimit:10;" points="
			59.268,210.92 59.268,89.584 50.265,89.584 50.265,210.92 		"/>
		<polyline style="fill:#FFFFFF;stroke:#263238;stroke-linecap:round;stroke-linejoin:round;stroke-miterlimit:10;" points="
			307.811,210.92 307.811,89.584 298.809,89.584 298.809,210.92 		"/>
		<path style="fill:#263238;stroke:#263238;stroke-linecap:round;stroke-linejoin:round;stroke-miterlimit:10;" d="M169.076,105.453
			c0,0,7.66,1.532,10.724,2.298c3.064,0.766,4.788-2.107,7.469-2.681c2.681-0.574,13.022-6.32,13.022-6.32s5.937-2.681,7.469-4.596
			c1.532-1.915,2.681-4.405,1.724-7.277c-0.958-2.873-2.681-4.596-2.681-4.596l-3.83,0.766l3.639-3.639c0,0,3.064-2.681,2.49-7.277
			c-0.575-4.596-4.213-8.618-8.235-11.299c-4.022-2.681-11.873-0.957-13.405-1.34c-1.532-0.383-4.788-3.447-9.958-4.213
			c-5.171-0.766-10.341,0-12.448,1.149c-2.107,1.149-3.83,4.021-8.426,5.937c-4.596,1.915-6.128,2.489-7.086,4.404
			c-0.958,1.915-2.49,4.788-2.49,4.788s11.299-1.341,19.725,4.788c8.426,6.128,10.15,15.895,8.809,18.959
			c-1.34,3.064-7.852,7.851-7.852,9.001C167.735,105.453,169.076,105.453,169.076,105.453z"/>
		<path style="fill:#FFFFFF;stroke:#263238;stroke-linecap:round;stroke-linejoin:round;stroke-miterlimit:10;" d="M115.646,129.008
			c0,0,3.447-0.766,4.022-0.574c0.574,0.191,11.299,5.553,11.873,5.936c0.575,0.383,4.405,6.703,9.767,10.916
			c5.362,4.213,18.959,13.022,23.555,14.746c4.596,1.724,11.49,7.66,14.363,6.894c2.872-0.766,6.128-3.639,6.894-6.703
			c0.766-3.064,9.001-36.003,9.001-36.003s3.639-7.66,4.404-9.001c0.766-1.34,0.766-4.405,0.766-4.405s2.681-3.638,2.49-4.787
			s-7.469-4.787-8.235-5.554c-0.766-0.766-2.49-1.915-3.639-0.574c-1.149,1.341-4.405,3.447-3.638,5.171
			c0.766,1.724,2.298,13.214,2.298,13.214l-14.746,31.598c0,0-7.086-7.66-11.49-12.256c-4.405-4.596-9.958-8.809-10.533-9.192
			c-0.574-0.383,7.66-6.511,11.49-12.065c3.83-5.554,6.703-11.873,6.703-11.873s3.447-0.383,5.553-2.298
			c2.107-1.915,5.745-4.979,4.213-13.405c-1.532-8.426-2.106-11.49-13.788-16.661c-11.682-5.171-19.725-2.872-21.831-1.341
			c-2.107,1.532-11.873,6.128-11.873,6.128s-19.342,11.299-22.406,14.363c-3.064,3.064-2.298,2.681-2.298,2.681
			s-6.32-1.915-10.533,0.766c-4.213,2.681-5.745,8.809-3.638,13.214c2.106,4.405,12.065,8.618,12.065,8.618l5.745,9.384
			L115.646,129.008z"/>
		<g>
			
				<line style="fill:none;stroke:#263238;stroke-linecap:round;stroke-linejoin:round;stroke-miterlimit:10;" x1="194.546" y1="100.474" x2="190.332" y2="105.645"/>
			
				<line style="fill:none;stroke:#263238;stroke-linecap:round;stroke-linejoin:round;stroke-miterlimit:10;" x1="197.227" y1="102.964" x2="193.588" y2="107.56"/>
			
				<line style="fill:none;stroke:#263238;stroke-linecap:round;stroke-linejoin:round;stroke-miterlimit:10;" x1="200.673" y1="104.496" x2="196.46" y2="110.049"/>
		</g>
		<path style="fill:#92E3A9;stroke:#263238;stroke-linecap:round;stroke-linejoin:round;stroke-miterlimit:10;" d="M127.902,113.305
			c0,0-3.064,4.596-4.596,9.958s-3.638,5.171-3.638,5.171c0.282,0.094,3.005,1.431,5.774,2.815c0.072-0.044,0.132-0.088,0.162-0.134
			c0.383-0.575,0.957-4.596,1.915-6.894c0.958-2.298,5.362-9.767,12.639-12.831c7.277-3.064,11.49,1.34,13.788,7.277
			c2.298,5.937-0.191,8.426-0.191,8.426s0.067-0.01,0.164-0.026c2.307-2.18,7.537-6.593,10.368-10.699
			c3.83-5.554,6.703-11.873,6.703-11.873s3.447-0.383,5.553-2.298c2.107-1.915,5.745-4.979,4.213-13.405
			c-1.532-8.426-2.106-11.49-13.788-16.661c-11.682-5.17-19.725-2.872-21.831-1.34c-2.107,1.532-11.873,6.128-11.873,6.128
			s-19.342,11.299-22.406,14.363c-1.225,1.224-1.832,1.893-2.126,2.261c-0.108,0.263-0.172,0.42-0.172,0.42l-4.979,12.448
			l6.32-0.766c0,0,2.298-6.894,8.043-9.958s10.724-0.575,14.937,5.745C137.095,107.751,127.902,113.305,127.902,113.305z"/>
		<g>
			<path style="fill:#FFFFFF;stroke:#263238;stroke-linecap:round;stroke-linejoin:round;stroke-miterlimit:10;" d="M107.22,103.921
				c0,0-6.703,1.915-8.235,3.064c-1.532,1.149-12.831,8.043-12.831,8.043s-2.681,5.362,0,11.49
				c2.681,6.128,9.767,9.767,12.831,9.767c3.064,0,7.086-1.915,7.086-1.915l1.532-0.958c0,0,2.107,1.532,4.405,0
				s3.638-2.872,3.638-4.404c0-1.532,0-2.49,0-2.49s3.83-3.256,5.937-8.618c2.107-5.362,0.192-13.022-1.532-13.98
				C118.327,102.964,107.22,103.921,107.22,103.921z"/>
			<path style="fill:none;stroke:#263238;stroke-linecap:round;stroke-linejoin:round;stroke-miterlimit:10;" d="M100.709,113.88
				c0,0,7.852-5.937,8.426-5.554c0.575,0.383,1.723,3.064,1.723,3.064"/>
			<path style="fill:none;stroke:#263238;stroke-linecap:round;stroke-linejoin:round;stroke-miterlimit:10;" d="M111.816,106.602
				c0,0,3.064,2.49,3.447,4.022"/>
			<path style="fill:none;stroke:#263238;stroke-linecap:round;stroke-linejoin:round;stroke-miterlimit:10;" d="M102.433,117.326
				c0,0,0.575,3.639,2.681,5.745"/>
			<path style="fill:none;stroke:#263238;stroke-linecap:round;stroke-linejoin:round;stroke-miterlimit:10;" d="M99.177,112.922
				c0,0-1.34-0.383-3.064-1.915"/>
			<path style="fill:#263238;" d="M106.167,118.288c-0.706,0.775-0.875,1.77-0.377,2.223c0.497,0.453,1.472,0.192,2.178-0.583
				c0.706-0.775,0.875-1.77,0.378-2.223C107.848,117.253,106.872,117.514,106.167,118.288z"/>
			<path style="fill:#263238;" d="M100.383,109.23c-0.706,0.775-0.875,1.77-0.378,2.223c0.497,0.453,1.472,0.192,2.178-0.583
				c0.706-0.775,0.875-1.77,0.378-2.223C102.064,108.194,101.089,108.455,100.383,109.23z"/>
			<path style="fill:#263238;stroke:#263238;stroke-linecap:round;stroke-linejoin:round;stroke-miterlimit:10;" d="M89.027,116.369
				c0,0-0.957-3.83-4.979-3.639c-4.021,0.191-8.426,6.32-7.66,9.384c0.766,3.064,1.532,3.447,2.107,6.894
				c0.575,3.447,3.256,7.66,7.086,9.192c3.83,1.532,7.086,3.447,11.49,1.915c4.405-1.532,5.362-1.723,7.277-3.256
				c1.915-1.532,4.596-0.383,3.256-3.447c-1.341-3.064-1.341-3.447-3.639-2.872c-2.298,0.575-4.979,1.915-6.511-1.341
				c-1.532-3.256,0.766-3.639-0.575-7.086S91.9,117.71,89.027,116.369z"/>
		</g>
		<path style="fill:#FFFFFF;stroke:#263238;stroke-linecap:round;stroke-linejoin:round;stroke-miterlimit:10;" d="M126.562,84.771
			c0,0,18.576,2.106,23.172,17.044l13.022-13.022c0,0-4.979-8.426-9.767-10.724c-4.788-2.298-9.384-3.447-9.384-3.447
			L126.562,84.771z"/>
		
			<line style="fill:none;stroke:#263238;stroke-linecap:round;stroke-linejoin:round;stroke-miterlimit:10;" x1="152.798" y1="128.434" x2="150.308" y2="120.582"/>
	</g>
</g>
<g id="Character_2">
	<g>
		<path style="fill:#B0B0B0;stroke:#263238;stroke-linecap:round;stroke-linejoin:round;stroke-miterlimit:10;" d="M351,177.561
			c0,0-14.603,5.172-17.493,6.237c-2.89,1.065-13.082,2.738-16.58,4.563c-3.498,1.825-4.715,3.803-5.172,4.107
			c-0.456,0.304,12.93,2.89,16.124,1.521c3.194-1.369,37.876-3.955,37.876-3.955s0.608-9.431-2.434-11.713
			C360.279,176.039,351,177.561,351,177.561z"/>
		<path style="fill:#B0B0B0;stroke:#263238;stroke-linecap:round;stroke-linejoin:round;stroke-miterlimit:10;" d="M351.117,142.225
			c0,0-7.137,5.155-7.93,7.93c-0.793,2.776,0.198,8.525-0.396,9.318c-0.595,0.793-5.155,5.353-4.56,6.146
			c0.595,0.793,3.767,2.776,3.767,2.776s2.181,9.715,3.965,10.706c1.784,0.991,8.525-0.991,8.525-0.991l1.586-0.198
			c0,0,3.569,8.327,4.164,12.491c0.595,4.163,4.163,21.61,6.543,23.196c2.379,1.586,9.318,4.163,9.318,4.163l5.551,11.301
			c0,0-18.272-0.471-26.797,2.106c-8.525,2.577-25.746,9.806-28.522,10.599c-2.776,0.793-8.723,4.758-15.068,7.336
			c-6.344,2.577-25.774,8.525-27.162,8.525c-1.388,0-2.776,0-2.776,0s-7.137-6.543-9.517-11.103
			c-2.379-4.56-4.163-8.723-5.551-6.146c-1.388,2.577-0.198,11.896,2.181,16.059c2.379,4.163,5.75,10.904,6.939,11.103
			c1.189,0.198,10.706-2.974,10.706-2.974s20.619-2.974,27.756-3.172c7.137-0.198,16.654-5.749,16.654-5.749s5.75-3.172,6.741-3.767
			c0.991-0.595,33.113-2.396,39.458-1.206c6.344,1.189,10.706,2.181,10.706,2.181s-1.19,23.593,7.137,32.911
			c8.327,9.318,11.499,6.741,12.094,6.741c0.595,0,31.127-4.956,33.308-5.75c2.181-0.793,9.913-0.198,9.913-0.198
			s5.75,2.379,6.939,2.974c1.19,0.595,6.543,4.758,6.543,4.758s2.776,7.931,4.56,7.137c1.784-0.793,2.181-3.172,1.784-6.542
			c-0.397-3.37-3.172-9.318-3.172-9.318s0.991-6.543-2.181-7.336c-3.172-0.793-5.948,1.388-8.922,1.784
			c-2.974,0.397-5.948,1.19-12.292-0.397s-16.654-3.569-22.007-3.569c-5.353,0-13.482,2.379-13.482,2.379s0.991-17.05,1.19-17.645
			c0.198-0.595,1.388-6.939,1.388-6.939s5.551-3.965,5.155-12.094c-0.397-8.129-2.776-10.904-5.551-14.473
			c-2.776-3.569-7.336-11.499-11.301-18.438c-3.965-6.939-3.37-13.878-10.706-23.99s-20.619-12.49-20.619-12.49l-0.397-2.181
			c0,0,6.146-7.137,6.939-12.094c0.793-4.957-0.198-8.129-6.543-14.077S351.117,142.225,351.117,142.225z"/>
		<g>
			<path style="fill:#263238;stroke:#263238;stroke-linecap:round;stroke-linejoin:round;stroke-miterlimit:10;" d="M408.776,260.99
				c0.013-0.1,0.025-0.177,0.034-0.205c0.198-0.595,1.388-6.939,1.388-6.939s5.551-3.965,5.155-12.094
				c-0.397-8.129-2.776-10.904-5.551-14.473c-0.105-0.136-0.218-0.289-0.328-0.437c-2.57,2.157-9.577,4.909-28.25,1.355l0.425,0.866
				c0,0-0.664-0.01-1.79,0.003c2.939,2.031,6.82,5.856,6.93,11.945c0.094,5.182-1.648,8.761-3.318,11.001
				c2.461,0.51,3.928,0.843,3.928,0.843s-0.119,2.374-0.017,5.909C392.516,260.952,400.128,262.911,408.776,260.99z"/>
			<path style="fill:none;stroke:#8A8A8A;stroke-linecap:round;stroke-linejoin:round;stroke-miterlimit:10;" d="M389.47,253.346
				c0,0,7.508,3.039,13.587,2.145"/>
		</g>
		<g>
			<ellipse style="fill:#263238;" cx="347.014" cy="159.922" rx="1.052" ry="1.836"/>
			<path style="fill:none;stroke:#263238;stroke-linecap:round;stroke-linejoin:round;stroke-miterlimit:10;" d="M344.971,156.897
				c0,0,1.388-1.784,3.569,0"/>
			<g>
				<path style="fill:#263238;stroke:#263238;stroke-linecap:round;stroke-linejoin:round;stroke-miterlimit:10;" d="
					M371.934,141.234c0,0,3.172-4.56,8.724-7.732c5.551-3.172,9.913-2.776,10.31-0.595c0.396,2.181-2.577,2.181-5.948,3.767
					c-3.37,1.586-9.318,5.155-9.318,5.155s12.292-2.379,16.654-1.983c4.362,0.396,4.362,5.75,3.767,7.336
					c-0.595,1.586-3.767-1.784-7.93-1.983c-4.163-0.198-7.93,0-7.93,0s6.543,1.388,8.327,4.163c1.784,2.776,6.741,4.56,6.146,6.344
					c-0.595,1.784,0.198,2.776-3.172,2.776c-3.371,0-6.939-2.181-6.939-2.181s6.146,2.974,4.56,4.56
					c-1.586,1.586-2.974,3.569-4.163,2.379c-1.19-1.19-5.353-8.327-5.353-8.327s1.586,3.37,2.379,7.534
					c0.793,4.163-4.163,1.784-5.353-2.577c-1.19-4.362-3.37-12.094-3.37-12.094L371.934,141.234z"/>
				<path style="fill:#263238;stroke:#263238;stroke-linecap:round;stroke-linejoin:round;stroke-miterlimit:10;" d="
					M347.548,145.199c0,0,5.551-3.569,8.129-0.595c2.577,2.974-4.758,3.965-3.172,6.939c1.586,2.974,5.551,2.974,6.146,4.362
					c0.595,1.388,0.595,4.957,0.595,4.957s1.586-4.362,4.362-1.19c2.776,3.172,1.388,7.534,0.198,8.129
					c-1.19,0.595-2.379,1.19-2.379,1.19s1.983,0.595,5.353,1.189c0,0,6.146-7.137,6.939-12.094
					c0.793-4.957-0.198-8.129-6.543-14.077c-6.344-5.948-16.059-1.784-16.059-1.784s-1.778,1.285-3.658,2.916L347.548,145.199z"/>
				<path style="fill:none;stroke:#263238;stroke-linecap:round;stroke-linejoin:round;stroke-miterlimit:10;" d="M344.999,169.885
					c0,0,1.854,0,3.94-1.622"/>
				<path style="fill:#FFFFFF;stroke:#263238;stroke-linecap:round;stroke-linejoin:round;stroke-miterlimit:10;" d="
					M364.598,142.225c0,0,0.397-2.577,1.983-2.577s9.12,2.577,9.318,7.137c0.198,4.56-1.983,5.75-1.983,5.75
					S367.969,143.613,364.598,142.225z"/>
			</g>
		</g>
		<g>
			<path style="fill:#92E3A9;stroke:#263238;stroke-linecap:round;stroke-linejoin:round;stroke-miterlimit:10;" d="M411.21,229.109
				c-0.452-0.608-0.924-1.207-1.408-1.83c-2.776-3.569-7.336-11.499-11.301-18.438c-3.965-6.939-3.37-13.878-10.706-23.99
				c-3.918-5.4-9.53-8.593-13.911-10.398c-0.223,0.575-0.723,1.609-1.751,3.459c-2.974,5.353-3.371,14.671-4.163,19.033
				c-0.793,4.362-2.181,7.534-5.155,5.551c-0.036-0.024-0.072-0.047-0.108-0.071c1.292,5.279,2.842,10.353,4.073,11.174
				c2.379,1.586,9.318,4.163,9.318,4.163l5.551,11.301c0,0,9.12,1.586,13.68,2.379C399.329,232.138,408.057,232.831,411.21,229.109z
				"/>
			<g>
				<path style="fill:none;stroke:#263238;stroke-linecap:round;stroke-linejoin:round;stroke-miterlimit:10;" d="M381.727,227.606
					c0,0,8.518-2.282,14.146-1.825"/>
				<path style="fill:none;stroke:#263238;stroke-linecap:round;stroke-linejoin:round;stroke-miterlimit:10;" d="M383.096,224.715
					c0,0,9.431-4.411,14.451-3.803"/>
			</g>
		</g>
		<g>
			<path style="fill:#B0B0B0;stroke:#263238;stroke-linecap:round;stroke-linejoin:round;stroke-miterlimit:10;" d="
				M382.442,179.498c0,0-6.939,3.37-7.336,7.732c-0.397,4.362,2.776,12.49,8.327,14.473c5.551,1.983,6.344,1.586,8.129,0.396
				c1.784-1.19,4.758-4.956,4.758-4.956s5.155,0.991,8.723,0.396c3.569-0.595,14.869-2.181,14.869-2.181s9.913,2.181,13.284,2.181
				c3.37,0,16.456-2.379,17.645-2.379c1.19,0,13.878,0.991,13.878,0.991l6.939,3.965c0,0,1.784-0.595,3.172-0.198
				c1.388,0.396,2.776,3.172,3.569,2.379c0.793-0.793,0.793-0.793,0.396-1.983c-0.396-1.189-1.586-2.379-2.776-2.577
				c-1.19-0.198-1.388-1.784-1.388-1.784s7.683,1.735,8.185,1.484c0.502-0.251,0.837-0.67,0.754-0.921
				c-0.084-0.251-6.756-2.216-6.756-2.216l0.335-1.005l8.376,1.671c0,0,0.712-1.058,0.293-1.226
				c-0.419-0.167-8.502-2.371-8.502-2.371l0.251-1.005l7.551,0.81c0,0,0.711-0.687,0.293-0.938c-0.419-0.251-7.174-1.63-7.174-1.63
				s5.918,0.792,6.002,0.541c0.084-0.251-0.251-0.753-0.251-0.753c-3.849,0.888-4.638-0.655-7.653-0.655
				c-4.604,0-5.944,0.753-8.121,1.423c-2.177,0.67-4.353,1.256-4.688,1.423c-0.335,0.167-13.73-1.423-22.102-3.265
				c-8.372-1.842-16.911-4.102-20.762-3.767c-3.851,0.335-14.818,0.67-14.818,0.67s-5.944-1.507-10.297-2.763
				C391.195,180.206,386.498,177.953,382.442,179.498z"/>
			<path style="fill:none;stroke:#263238;stroke-linecap:round;stroke-linejoin:round;stroke-miterlimit:10;" d="M396.32,197.143
				c0,0-10.253,2.576-10.782,2.787"/>
		</g>
		<g>
			<path style="fill:#B0B0B0;stroke:#263238;stroke-linecap:round;stroke-linejoin:round;stroke-miterlimit:10;" d="
				M345.828,186.383c0,0,2.282-2.586,3.651-4.411c1.369-1.825,3.651-5.02,3.651-5.02l1.357,1.158c0,0-2.574,4.014-3.031,4.622
				C351,183.341,351,183.341,351,183.341s1.825-0.152,2.434-0.913c0.608-0.761,3.042-4.868,3.803-6.237
				c0.761-1.369,2.13-1.065,2.13-0.456c0,0.608-4.259,8.366-4.259,8.366s3.499-3.194,4.868-5.02
				c1.369-1.826,2.586-2.586,3.042-1.977c0.456,0.608,0.304,0.761-1.065,3.346c-1.369,2.586-5.02,5.476-5.02,5.476
				s5.78-3.498,6.693-4.259c0.913-0.76,1.369,0,0.456,1.369c-0.913,1.369-5.324,5.02-5.324,5.02l-2.13,1.825
				c0,0,0.761,0.304,1.825,0.608c1.065,0.304,2.586-0.304,3.955-0.304c1.369,0,3.194,0,1.977,1.217
				c-1.217,1.217-2.129,1.978-3.651,1.978c-1.521,0-2.738-0.152-4.107,0c-1.369,0.152-3.194,0.913-5.324,0.913
				c-2.13,0-6.845-1.825-6.845-1.825s-21.904,8.975-25.251,10.191c-3.346,1.217-10.039-0.608-11.865-1.369
				c-1.825-0.76-2.738-2.89-2.434-4.107c0.304-1.217,4.868-7.301,10.039-8.518c5.172-1.217,19.471-2.13,22.361-1.825
				C340.2,187.144,345.828,186.383,345.828,186.383z"/>
			<path style="fill:none;stroke:#263238;stroke-linecap:round;stroke-linejoin:round;stroke-miterlimit:10;" d="M346.437,190.946
				c0,0,1.065,0.456,2.586,0c1.521-0.456,3.346-2.738,3.346-2.738"/>
		</g>
		<path style="fill:#92E3A9;stroke:#263238;stroke-linecap:round;stroke-linejoin:round;stroke-miterlimit:10;" d="M271.809,246.527
			c-2.379-4.56-4.163-8.723-5.551-6.146c-1.388,2.577-0.198,11.896,2.181,16.059c2.379,4.163,5.75,10.904,6.939,11.103
			c0.749,0.125,4.792-1.085,7.689-1.999l-3.813-5.607l2.071-2.307C281.325,257.629,274.188,251.087,271.809,246.527z"/>
		<path style="fill:#92E3A9;stroke:#263238;stroke-linecap:round;stroke-linejoin:round;stroke-miterlimit:10;" d="M469.676,294.886
			c-0.397-3.37-3.172-9.318-3.172-9.318s0.991-6.543-2.181-7.336c-2.032-0.508-3.901,0.204-5.764,0.886
			c0.748,1.26,2.149,3.684,2.97,5.533c1.159,2.609,1.159,2.609,1.159,2.609s-2.609-0.58-3.478,1.739
			c-0.167,0.446-0.313,1.098-0.439,1.857c1.977,1.426,4.561,3.436,4.561,3.436s2.776,7.931,4.56,7.137
			C469.676,300.635,470.073,298.256,469.676,294.886z"/>
	</g>
</g>
</svg>
