<?xml version="1.0" encoding="utf-8"?>
<!-- Generator: Adobe Illustrator 27.5.0, SVG Export Plug-In . SVG Version: 6.00 Build 0)  -->
<svg version="1.1" xmlns="http://www.w3.org/2000/svg" xmlns:xlink="http://www.w3.org/1999/xlink" x="0px" y="0px"
	 viewBox="0 0 750 500" style="enable-background:new 0 0 750 500;" xml:space="preserve">
<g id="Background_Simple">
	<g>
		<path style="fill:#92E3A9;" d="M677.274,161.096c-27.779-34.755-65.948-65.13-106.008-88.602
			c-40.533-23.75-88.653-41.632-139.671-44.43c-50.698-2.781-101.556,4.409-147.497,21.574
			c-33.341,12.457-63.133,29.779-85.238,53.16c-3.538,3.742-5.729,7.551-8.113,11.839c-0.415,0.752-0.819,1.508-1.21,2.268
			c-5.871,11.407-10.422,23.172-13.525,35.226c-1.766,6.859-2.51,14.264-5.948,20.784c-10.151,19.249-42.428,24.798-62.839,35.321
			c-48.862,25.191-93.802,68.831-84.301,117.411c0.012,0.059,0.023,0.117,0.035,0.176c8.653,43.478,32.45,47.995,32.45,47.995
			h636.745c0,0,30.287-36.702,28.845-105.589C720.196,229.892,703.043,193.336,677.274,161.096z"/>
		<path style="opacity:0.7;fill:#FFFFFF;" d="M677.274,161.096c-27.779-34.755-65.948-65.13-106.008-88.602
			c-40.533-23.75-88.653-41.632-139.671-44.43c-50.698-2.781-101.556,4.409-147.497,21.574
			c-33.341,12.457-63.133,29.779-85.238,53.16c-3.538,3.742-5.729,7.551-8.113,11.839c-0.415,0.752-0.819,1.508-1.21,2.268
			c-5.871,11.407-10.422,23.172-13.525,35.226c-1.766,6.859-2.51,14.264-5.948,20.784c-10.151,19.249-42.428,24.798-62.839,35.321
			c-48.862,25.191-93.802,68.831-84.301,117.411c0.012,0.059,0.023,0.117,0.035,0.176c8.653,43.478,32.45,47.995,32.45,47.995
			h636.745c0,0,30.287-36.702,28.845-105.589C720.196,229.892,703.043,193.336,677.274,161.096z"/>
	</g>
</g>
<g id="Floor">
	
		<line style="fill:none;stroke:#263238;stroke-linecap:round;stroke-linejoin:round;stroke-miterlimit:10;" x1="38.803" y1="373.818" x2="709.566" y2="373.818"/>
</g>
<g id="Character_5">
	<g>
		<path style="fill:#263238;stroke:#263238;stroke-linecap:round;stroke-linejoin:round;stroke-miterlimit:10;" d="M680.077,100.133
			c-0.861-3.864-4.881-6.355-7.732-8.69c1.871-0.16,3.325-2.177,3.082-4.04c-0.205-1.576-11.296-13.227-16.541-10.954
			c-5.466,2.368-5.704,4.5-5.704,4.5s-5.942-4.5-9.744-3.553c-3.803,0.947-3.803,3.079-3.09,3.079s2.852,1.421,2.852,1.421
			s-5.995,2.641-8.088,4.526c-0.95,0.539-1.545,1.371-1.147,2.695c0.389,1.293,1.979,2.253,3.294,2.253c0,0-7.843,4.974-8.794,8.763
			c-0.951,3.79,1.426,3.316,1.426,3.316s0.238,13.737,1.901,15.395s3.565-0.237,3.565-0.237s0.475,5.684,3.803,9
			c3.327,3.316,2.377,0.711,2.377,0.711l14.26,6.869l12.668-6.869c0,0-0.844,2.605,2.111-0.711c2.956-3.316,3.378-9,3.378-9
			s1.689,1.895,3.167,0.237c1.478-1.658,1.689-15.395,1.689-15.395S680.921,103.923,680.077,100.133z"/>
		<g>
			<path style="fill:#CCCCCC;stroke:#263238;stroke-linecap:round;stroke-linejoin:round;stroke-miterlimit:10;" d="
				M713.156,219.657c-0.545-4.363-3.954-14.179-3.954-14.179l-3.272-19.087c0,0-0.136-12.815,0.136-15.951
				c0.273-3.136,0.682-9.543-3.136-14.997c-3.817-5.453-15.27-5.999-15.27-5.999s-6.953-2.863-11.997-5.59
				c-5.044-2.727-7.362-7.089-7.362-7.089l-0.818-11.316l-11.188,0.12l-11.188-0.12l-0.818,11.316c0,0-2.318,4.363-7.362,7.089
				c-5.044,2.727-11.997,5.59-11.997,5.59s-11.452,0.545-15.269,5.999c-3.817,5.453-3.408,11.861-3.136,14.997
				c0.273,3.136,0.136,15.951,0.136,15.951l-3.272,19.087c0,0-3.408,9.816-3.954,14.179c-0.545,4.363-2.863,34.239-2.454,36.421
				c0.409,2.181,1.5,4.772,1.909,6.408c0.409,1.636,2.999,11.861,3.272,12.679c0.273,0.818,5.317,1.091,6.135,2.318
				c0.818,1.227,3.681-1.909,5.044-3.545c1.363-1.636,3.272-0.409,3.817-3.136c0.545-2.727,0.273-4.09,0.136-6.408
				c-0.136-2.318-2.318-4.09-4.226-5.181c-1.909-1.091-5.453-1.636-5.59-8.589c-0.136-6.953,9.68-25.65,10.498-31.649
				c0.818-5.999,0-13.633,0.273-14.042c0.273-0.409,5.999-16.087,5.999-16.087s2.727,7.635,3.408,10.361
				c0.19,0.761,0.656,1.75,1.227,2.778c2.21,3.978,5.141,19.342,3.899,23.244l-0.001,0.004h24.176h2.953h19.895l0,0
				c-1.246-3.905,1.692-19.273,3.903-23.255c0.57-1.027,1.034-2.012,1.224-2.772c0.682-2.727,3.408-10.361,3.408-10.361
				s5.726,15.678,5.999,16.087c0.273,0.409-0.545,8.044,0.273,14.042s10.634,24.696,10.498,31.649
				c-0.136,6.953-3.681,7.498-5.59,8.589c-1.909,1.091-4.09,2.863-4.226,5.181c-0.136,2.318-0.409,3.681,0.136,6.408
				c0.545,2.727,2.454,1.5,3.817,3.136c1.363,1.636,4.226,4.772,5.044,3.545c0.818-1.227,5.862-1.5,6.135-2.318
				c0.273-0.818,2.863-11.043,3.272-12.679c0.409-1.636,1.5-4.226,1.909-6.408C716.019,253.897,713.702,224.02,713.156,219.657z"/>
			<g>
				
					<line style="fill:none;stroke:#263238;stroke-linecap:round;stroke-linejoin:round;stroke-miterlimit:10;" x1="630.997" y1="149.884" x2="645.363" y2="151.738"/>
				
					<line style="fill:none;stroke:#263238;stroke-linecap:round;stroke-linejoin:round;stroke-miterlimit:10;" x1="682.437" y1="149.421" x2="666.68" y2="151.506"/>
				<polyline style="fill:none;stroke:#263238;stroke-linecap:round;stroke-linejoin:round;stroke-miterlimit:10;" points="
					624.25,188.846 620.57,175.373 617.094,170.275 				"/>
				<polyline style="fill:none;stroke:#263238;stroke-linecap:round;stroke-linejoin:round;stroke-miterlimit:10;" points="
					688.344,188.846 691.01,173.982 694.949,169.116 				"/>
				<path style="fill:none;stroke:#263238;stroke-linecap:round;stroke-linejoin:round;stroke-miterlimit:10;" d="M625.204,180.934
					c0,0,5.793,4.402,8.573,5.098c2.78,0.695,13.903,0.927,19.464-3.707"/>
				<path style="fill:none;stroke:#263238;stroke-linecap:round;stroke-linejoin:round;stroke-miterlimit:10;" d="M686.144,180.934
					c0,0-5.793,4.402-8.573,5.098c-2.781,0.695-13.903,0.927-19.464-3.707"/>
				<path style="fill:none;stroke:#263238;stroke-linecap:round;stroke-linejoin:round;stroke-miterlimit:10;" d="M613.754,266.867
					c0,0-2.893,2.893-3.492,5.088"/>
				<path style="fill:none;stroke:#263238;stroke-linecap:round;stroke-linejoin:round;stroke-miterlimit:10;" d="M611.858,269.262
					c0,0,0.998-0.299,1.497,1.197c0.499,1.496,0.676,2.968-0.011,3.479"/>
				<path style="fill:none;stroke:#263238;stroke-linecap:round;stroke-linejoin:round;stroke-miterlimit:10;" d="M699.777,265.333
					c0,0,2.661,2.217,1.922,4.878"/>
				<path style="fill:none;stroke:#263238;stroke-linecap:round;stroke-linejoin:round;stroke-miterlimit:10;" d="M698.447,272.872
					c0,0-0.296-2.217,0.296-3.252c0.591-1.035,2.809-1.035,2.809-1.035"/>
			</g>
		</g>
		<path style="fill:#CCCCCC;stroke:#263238;stroke-linecap:round;stroke-linejoin:round;stroke-miterlimit:10;" d="M681.999,261.958
			c0.359-15.595-2.197-36.724-2.197-36.724h-21.397h-25.678c0,0-2.556,21.128-2.196,36.724c0.359,15.595,9.167,55.593,9.346,58.289
			c0.18,2.696-3.954,15.595-1.977,22.912c1.977,7.316,3.267,19.446,3.806,22.334c0.539,2.888,0.899,13.477,0.899,13.477
			s-3.954,6.739-6.651,10.397c-2.696,3.658-3.774,6.161-3.055,7.701c0.719,1.54,3.774,4.428,8.268,2.118
			c4.494-2.31,6.83-3.658,7.19-8.857c0.359-5.198,3.595-5.006,3.954-9.819c0.359-4.813-0.18-7.124-0.18-9.434
			s2.876-23.489,2.876-23.489l1.258-16.75l1.258,16.75c0,0,2.876,21.179,2.876,23.489s-0.539,4.621-0.18,9.434
			c0.359,4.813,3.595,4.621,3.954,9.819s2.696,6.546,7.19,8.857c4.494,2.31,7.549-0.578,8.268-2.118
			c0.719-1.54-0.359-4.043-3.056-7.701c-2.696-3.658-6.65-10.397-6.65-10.397s0.359-10.589,0.899-13.477
			c0.539-2.888,1.829-15.018,3.806-22.334c1.977-7.316-2.157-20.216-1.977-22.912C672.832,317.551,681.64,277.553,681.999,261.958z"
			/>
		<path style="fill:#92E3A9;stroke:#263238;stroke-linecap:round;stroke-linejoin:round;stroke-miterlimit:10;" d="M658.405,225.234
			h-25.678c0,0-2.556,21.128-2.197,36.724c0.039,1.682,0.181,3.551,0.394,5.536c3.919,2.012,10.943,5.074,25.271,1.492
			c0,0,12.951,5.273,25.144,0.744c0.366-2.831,0.606-5.472,0.659-7.773c0.359-15.595-2.197-36.724-2.197-36.724H658.405z"/>
		<g>
			
				<line style="fill:none;stroke:#263238;stroke-linecap:round;stroke-linejoin:round;stroke-miterlimit:10;" x1="656.196" y1="315.607" x2="656.196" y2="255.104"/>
			
				<line style="fill:none;stroke:#263238;stroke-linecap:round;stroke-linejoin:round;stroke-miterlimit:10;" x1="656.196" y1="328.705" x2="656.196" y2="322.718"/>
			<path style="fill:none;stroke:#263238;stroke-linecap:round;stroke-linejoin:round;stroke-miterlimit:10;" d="M651.623,250.278
				c0,0,2.287,4.157,5.82,5.404"/>
		</g>
		<g>
			<path style="fill:#CCCCCC;stroke:#263238;stroke-linecap:round;stroke-linejoin:round;stroke-miterlimit:10;" d="M640.89,109.202
				c0,0-2.512-3.391-3.266-0.251c-0.754,3.14,4.02,6.281,4.02,6.281L640.89,109.202z"/>
			<path style="fill:#CCCCCC;stroke:#263238;stroke-linecap:round;stroke-linejoin:round;stroke-miterlimit:10;" d="
				M669.781,109.202c0,0,2.512-3.391,3.266-0.251c0.754,3.14-4.02,6.281-4.02,6.281L669.781,109.202z"/>
			<path style="fill:#CCCCCC;stroke:#263238;stroke-linecap:round;stroke-linejoin:round;stroke-miterlimit:10;" d="M640.326,98.407
				c0,0,1.277,22.005,2.727,25.546c1.45,3.541,7.904,8.419,9.654,8.95c1.75,0.531,5.397,0.339,6.154,0.1
				c0.758-0.239,7.88-5.651,8.798-8.023c0.918-2.372,3.052-25.579,3.052-25.579s-0.767-6.922-8.001-10.179
				c-7.234-3.258-11.899-2.202-16.475,1.115C641.659,93.654,640.326,98.407,640.326,98.407z"/>
			<g>
				<path style="fill:none;stroke:#263238;stroke-linecap:round;stroke-linejoin:round;stroke-miterlimit:10;" d="M652.822,122.479
					c0,0,2.984,0.563,5.045-0.102"/>
				<path style="fill:none;stroke:#263238;stroke-linecap:round;stroke-linejoin:round;stroke-miterlimit:10;" d="M644.156,106.188
					c0,0,3.266-2.889,7.16-1.131"/>
				<path style="fill:none;stroke:#263238;stroke-linecap:round;stroke-linejoin:round;stroke-miterlimit:10;" d="M666.891,106.188
					c0,0-3.266-2.889-7.16-1.131"/>
				<path style="fill:#263238;" d="M662.858,111.058c-1.039,0.412-2.1,0.195-2.37-0.485c-0.27-0.68,0.354-1.565,1.393-1.978
					c1.039-0.412,2.1-0.195,2.37,0.485C664.52,109.76,663.897,110.646,662.858,111.058z"/>
				<path style="fill:#263238;" d="M647.729,111.058c1.039,0.412,2.1,0.195,2.37-0.485c0.27-0.68-0.354-1.565-1.393-1.978
					s-2.1-0.195-2.37,0.485C646.066,109.76,646.69,110.646,647.729,111.058z"/>
				<path style="fill:none;stroke:#263238;stroke-linecap:round;stroke-linejoin:round;stroke-miterlimit:10;" d="M653.491,116.897
					c0,0,0.82,1.231,1.914,1.231c1.094,0,1.504,0,2.051-1.094"/>
			</g>
		</g>
		
			<line style="fill:none;stroke:#263238;stroke-linecap:round;stroke-linejoin:round;stroke-miterlimit:10;" x1="655.818" y1="156.146" x2="655.818" y2="178.184"/>
		<path style="fill:#263238;stroke:#263238;stroke-linecap:round;stroke-linejoin:round;stroke-miterlimit:10;" d="M640.867,105.94
			l13.136-14.128c0,0-5.948,9.666-2.479,9.171c3.47-0.496,11.897-4.957,11.897-4.957l6.358,13.177c0,0,2.564-9.211,2.317-12.681
			c-0.248-3.47-12.393-12.393-18.837-11.649c-6.444,0.744-12.393,6.444-13.88,11.897C637.893,102.222,640.867,105.94,640.867,105.94
			z"/>
	</g>
</g>
<g id="Character_4">
	<g>
		<path style="fill:#E5E5E5;stroke:#263238;stroke-linecap:round;stroke-linejoin:round;stroke-miterlimit:10;" d="M562.358,237.518
			c1.794-11.79-2.307-23.836-2.307-23.836l-4.357-26.143c0,0,1.025-21.017-3.076-29.731c-4.101-8.714-19.735-10.509-22.298-14.609
			c-2.563-4.101-3.332-14.866-3.332-14.866l-9.996,1.794l-8.971-1.794c0,0-0.769,10.765-3.332,14.866
			c-2.563,4.101-19.223,5.895-23.324,14.609c-4.101,8.714-3.076,29.731-3.076,29.731l-4.357,26.143c0,0-4.101,12.046-2.307,23.836
			s2.819,23.58,3.076,24.605c0.256,1.025-0.769,5.639,0.513,8.714c1.281,3.076,5.639,6.92,5.639,6.92l1.538,2.563
			c0,0,5.382,20.761,6.151,27.168c0.769,6.408-2.819,12.815-1.282,20.761c1.538,7.945,4.101,41.778,4.101,42.546
			c0,0.769,1.025,6.408,1.025,6.408s-4.357,10.765-5.895,13.584c-1.538,2.819-0.37,5.846,2.706,7.64
			c3.076,1.794,6.526,1.95,10.115-2.407c3.588-4.357,2.683-5.05,4.096-8.497c0.977-2.383,2.05-3.076,2.05-7.433
			c0-4.357-0.769-4.357-0.769-8.971c0-4.613,4.87-32.875,6.151-44.665c1.281-11.79,1.538-21.273,1.538-21.273l4.614-35.626
			l4.613,35.626c0,0,0.256,9.483,1.538,21.273c1.281,11.79,6.151,32.807,6.151,37.421c0,4.613,0.003,10.388,0.003,14.745
			c0,4.357,0.583,5.767,1.278,8.247c1.301,4.639,1.18,6.23,3.93,9.469c3.653,4.303,8.488,3.598,11.564,1.804
			c3.076-1.794,2.961-4.533,1.423-7.353c-1.538-2.819-5.895-13.584-5.895-13.584s1.025-5.639,1.025-6.408
			c0-0.769,2.563-34.601,4.101-42.546c1.538-7.945-2.05-14.353-1.281-20.761c0.769-6.408,6.151-27.168,6.151-27.168l1.538-2.563
			c0,0,4.357-3.845,5.639-6.92c1.281-3.076,0.256-7.689,0.512-8.714C559.539,261.098,560.564,249.308,562.358,237.518z"/>
		<path style="fill:#92E3A9;stroke:#263238;stroke-linecap:round;stroke-linejoin:round;stroke-miterlimit:10;" d="M485.775,226.477
			c0,0,31.586,3.651,61.903,0c0,0,3.492,14.285,3.651,18.253c0.159,3.968,0.317,16.349,0.317,16.349l0.159,6.19l-33.491,6.032
			h-1.905l-34.443-5.397l0.159-9.047c0,0-0.476-9.365,0.317-13.492C483.236,241.239,485.775,226.477,485.775,226.477z"/>
		<path style="fill:none;stroke:#263238;stroke-linecap:round;stroke-linejoin:round;stroke-miterlimit:10;" d="M508.853,264.335
			c0,0,4.527,4.415,8.139,5.22c3.612,0.806,9.336-4.618,9.336-4.618"/>
		
			<line style="fill:none;stroke:#263238;stroke-linecap:round;stroke-linejoin:round;stroke-miterlimit:10;" x1="495.301" y1="244.891" x2="503.189" y2="253.305"/>
		
			<line style="fill:none;stroke:#263238;stroke-linecap:round;stroke-linejoin:round;stroke-miterlimit:10;" x1="531.06" y1="254.356" x2="536.319" y2="246.994"/>
		<g>
			<path style="fill:none;stroke:#263238;stroke-linecap:round;stroke-linejoin:round;stroke-miterlimit:10;" d="M500.708,152.534
				c0,0,10.869-0.604,12.479-0.604c1.61,0,3.623,1.61,3.623,1.61"/>
			<path style="fill:none;stroke:#263238;stroke-linecap:round;stroke-linejoin:round;stroke-miterlimit:10;" d="M536.334,152.534
				c0,0-10.869-0.604-12.479-0.604c-1.61,0-3.623,1.61-3.623,1.61"/>
			
				<line style="fill:none;stroke:#263238;stroke-linecap:round;stroke-linejoin:round;stroke-miterlimit:10;" x1="517.852" y1="161.298" x2="517.852" y2="183.336"/>
			<path style="fill:none;stroke:#263238;stroke-linecap:round;stroke-linejoin:round;stroke-miterlimit:10;" d="M493.238,188.488
				c0,0,3.148,0.286,10.017-2.576"/>
			<path style="fill:none;stroke:#263238;stroke-linecap:round;stroke-linejoin:round;stroke-miterlimit:10;" d="M540.749,188.488
				c0,0-3.148,0.286-10.017-2.576"/>
			<path style="fill:none;stroke:#263238;stroke-linecap:round;stroke-linejoin:round;stroke-miterlimit:10;" d="M490.602,168.463
				c0,0-2.462,9.623-2.238,13.427c0.224,3.804,1.119,7.161,1.119,7.161s-2.909,28.645-3.357,35.134
				c-0.448,6.49-4.252,16.784-4.252,30.659s0.517,25.476,0.517,25.476"/>
			<path style="fill:none;stroke:#263238;stroke-linecap:round;stroke-linejoin:round;stroke-miterlimit:10;" d="M543.029,168.463
				c0,0,2.462,9.623,2.238,13.427c-0.224,3.804-1.119,7.161-1.119,7.161s2.909,28.645,3.357,35.134
				c0.448,6.49,4.252,16.784,4.252,30.659s-0.164,25.476-0.164,25.476"/>
			<path style="fill:none;stroke:#263238;stroke-linecap:round;stroke-linejoin:round;stroke-miterlimit:10;" d="M482.705,216.353
				c0,0,3.96,6.621,3.07,10.124"/>
			<path style="fill:none;stroke:#263238;stroke-linecap:round;stroke-linejoin:round;stroke-miterlimit:10;" d="M547.678,226.477
				c0,0,0.985-7.399,2.893-12.032"/>
		</g>
		<g>
			<g>
				<g>
					<path style="fill:#E5E5E5;stroke:#263238;stroke-linecap:round;stroke-linejoin:round;stroke-miterlimit:10;" d="
						M503.168,113.242c0,0-2.512-3.392-3.266-0.251c-0.754,3.14,4.02,6.281,4.02,6.281L503.168,113.242z"/>
					<path style="fill:#E5E5E5;stroke:#263238;stroke-linecap:round;stroke-linejoin:round;stroke-miterlimit:10;" d="
						M532.058,113.242c0,0,2.512-3.392,3.266-0.251c0.754,3.14-4.019,6.281-4.019,6.281L532.058,113.242z"/>
					<path style="fill:#E5E5E5;stroke:#263238;stroke-linecap:round;stroke-linejoin:round;stroke-miterlimit:10;" d="
						M502.604,102.447c0,0,1.277,19.883,2.727,23.425c1.45,3.541,7.904,10.541,9.654,11.072c1.75,0.531,5.396,0.339,6.154,0.1
						c0.758-0.239,7.88-8.441,8.798-10.813c0.918-2.372,3.052-22.789,3.052-22.789s-0.768-6.922-8.001-10.18
						c-7.234-3.258-11.899-2.202-16.475,1.115S502.604,102.447,502.604,102.447z"/>
					<g>
						<path style="fill:none;stroke:#263238;stroke-linecap:round;stroke-linejoin:round;stroke-miterlimit:10;" d="
							M513.163,126.431c0,0,5.276,1.382,8.918-0.251"/>
						<path style="fill:none;stroke:#263238;stroke-linecap:round;stroke-linejoin:round;stroke-miterlimit:10;" d="
							M506.434,110.228c0,0,3.266-2.889,7.16-1.13"/>
						<path style="fill:none;stroke:#263238;stroke-linecap:round;stroke-linejoin:round;stroke-miterlimit:10;" d="
							M529.169,110.228c0,0-3.266-2.889-7.16-1.13"/>
						<path style="fill:#263238;" d="M513.217,113.808c0,0.937-0.506,1.696-1.13,1.696c-0.624,0-1.13-0.759-1.13-1.696
							c0-0.937,0.506-1.696,1.13-1.696C512.711,112.112,513.217,112.871,513.217,113.808z"/>
						<path style="fill:#263238;" d="M525.401,113.808c0,0.937-0.506,1.696-1.131,1.696c-0.624,0-1.13-0.759-1.13-1.696
							c0-0.937,0.506-1.696,1.13-1.696C524.895,112.112,525.401,112.871,525.401,113.808z"/>
					</g>
				</g>
			</g>
			<path style="fill:#263238;stroke:#263238;stroke-linecap:round;stroke-linejoin:round;stroke-miterlimit:10;" d="
				M508.816,103.328c0,0-0.301,5.109,1.653,4.508c1.954-0.601,8.115-6.011,8.115-6.011s-0.301,5.41,0.902,4.358
				c1.202-1.052,3.306-6.161,3.306-6.161s1.503,7.363,3.005,5.86c1.503-1.503,2.254-3.907,2.254-3.907s1.803,6.311,2.705,7.814
				c0.902,1.503,1.303,3.452,1.303,3.452l2.604-2.1c0,0,0.601-2.404,0.451-2.855c-0.15-0.451,1.953-0.15,1.803-2.104
				c-0.15-1.953-3.306-7.964-3.306-7.964s1.803,0.15,0.601-2.555c-1.202-2.705-8.415-7.964-13.975-8.866
				c-5.56-0.902-14.103,1.245-18.633,7.213c-3.251,4.282-2.104,7.814-1.503,8.115c0,0-0.601,3.907,0.15,4.358
				c0.751,0.451,0.751,0.451,0.751,0.451l2.166,6.308l2.192-6.308C505.36,106.935,506.712,107.836,508.816,103.328z"/>
			<path style="fill:none;stroke:#263238;stroke-linecap:round;stroke-linejoin:round;stroke-miterlimit:10;" d="M520.537,111.292
				c0,0-1.202,5.56-0.902,7.814c0.3,2.254,0.902,4.208-0.902,4.508c-1.803,0.301-2.555-0.15-3.156-2.254"/>
		</g>
	</g>
</g>
<g id="Character_3">
	<g>
		<path style="fill:#E5E5E5;stroke:#263238;stroke-linecap:round;stroke-linejoin:round;stroke-miterlimit:10;" d="M431.752,213.631
			c-0.556-2.285-4.17-22.85-4.448-27.705c-0.278-4.855,0.556-11.996,0.556-17.137c0-5.141-3.614-9.997-8.062-13.995
			c-4.448-3.999-25.365-11.752-27.491-15.636c-2.127-3.884-1.107-8.885-1.107-8.885l-12.823,1.386h-0.156l-12.823-1.386
			c0,0,1.02,5.001-1.107,8.885c-2.127,3.885-23.043,11.638-27.491,15.636c-4.448,3.999-8.062,8.854-8.062,13.995
			c0,5.141,0.834,12.282,0.556,17.137c-0.278,4.856-3.892,25.42-4.448,27.705c-0.556,2.285-5.838,15.138-3.892,26.563
			c1.946,11.425,0.834,23.421,1.946,26.563c1.112,3.142,3.614,6.284,4.448,6.284c0.834,0,3.892,2.285,5.56,1.143
			c1.668-1.143,3.892-4.57,5.282-6.855c1.39-2.285,1.39-1.142-0.278-5.427c-1.668-4.284-5.282-7.426-5.282-9.14
			s4.726-21.136,4.726-21.136s0.834,14.852,2.224,26.277c1.39,11.425,9.73,43.7,9.73,43.7s1.668,6.284,1.668,7.426
			c0,1.142-1.668,8.283-0.834,15.709c0.834,7.426,6.394,16.852,8.896,27.705c2.502,10.854,3.336,19.993,3.614,23.421
			c0.278,3.427-3.336,8.569-4.726,13.71c-1.39,5.141-1.668,7.141,1.112,8.854c2.78,1.714,8.062,2.285,10.286-0.857
			c2.224-3.142,2.78-5.998,3.336-11.139c0.556-5.141,2.224-7.141,2.78-13.424c0.556-6.284,0.556-9.14,0.556-10.282
			c0-1.142-1.39-11.139,0.556-20.279c0.984-4.62,1.469-9.457,1.746-13.814c0.276,4.357,0.762,9.194,1.746,13.814
			c1.946,9.14,0.556,19.137,0.556,20.279c0,1.142,0,3.999,0.556,10.282c0.556,6.284,2.224,8.283,2.78,13.424
			c0.556,5.141,1.112,7.997,3.336,11.139c2.224,3.142,7.506,2.571,10.286,0.857c2.78-1.714,2.502-3.713,1.112-8.854
			c-1.39-5.141-5.004-10.282-4.726-13.71c0.278-3.427,1.112-12.567,3.614-23.421c2.502-10.854,8.062-20.279,8.896-27.705
			c0.834-7.426-0.834-14.567-0.834-15.709c0-1.143,1.668-7.426,1.668-7.426s8.34-32.275,9.73-43.7
			c1.39-11.425,2.224-26.277,2.224-26.277s4.726,19.422,4.726,21.136s-3.614,4.856-5.282,9.14c-1.668,4.284-1.668,3.142-0.278,5.427
			c1.39,2.285,3.614,5.712,5.282,6.855c1.668,1.142,4.726-1.143,5.56-1.143c0.834,0,3.336-3.142,4.448-6.284
			c1.112-3.142,0-15.138,1.946-26.563C437.59,228.769,432.308,215.916,431.752,213.631z"/>
		<path style="fill:#92E3A9;stroke:#263238;stroke-linecap:round;stroke-linejoin:round;stroke-miterlimit:10;" d="M338.207,217.91
			c0,0,14.585,8.278,40.403,7.884c25.819-0.394,40.009-6.504,40.009-6.504s1.921,20.464-1.602,38.613c0,0-9.502,15.213-38.801,9.131
			c0,0-26.589,5.502-38.636-9.131C339.58,257.903,335.645,229.933,338.207,217.91z"/>
		<g>
			<path style="fill:none;stroke:#263238;stroke-linecap:round;stroke-linejoin:round;stroke-miterlimit:10;" d="M337.401,264.798
				c0,0-1.271,0.908-2.361,2.905"/>
			<path style="fill:none;stroke:#263238;stroke-linecap:round;stroke-linejoin:round;stroke-miterlimit:10;" d="M336.312,266.614
				c0,0,1.523-0.005,1.349,1.294"/>
		</g>
		<g>
			<path style="fill:none;stroke:#263238;stroke-linecap:round;stroke-linejoin:round;stroke-miterlimit:10;" d="M419.145,264.798
				c0,0,1.271,0.908,2.361,2.905"/>
			<path style="fill:none;stroke:#263238;stroke-linecap:round;stroke-linejoin:round;stroke-miterlimit:10;" d="M420.234,266.614
				c0,0-1.522-0.005-1.349,1.294"/>
		</g>
		<g>
			<path style="fill:#E5E5E5;stroke:#263238;stroke-linecap:round;stroke-linejoin:round;stroke-miterlimit:10;" d="
				M363.454,114.204c0,0-2.617-3.533-3.402-0.262s4.187,6.543,4.187,6.543L363.454,114.204z"/>
			<path style="fill:#E5E5E5;stroke:#263238;stroke-linecap:round;stroke-linejoin:round;stroke-miterlimit:10;" d="
				M393.551,114.204c0,0,2.617-3.533,3.402-0.262c0.785,3.271-4.187,6.543-4.187,6.543L393.551,114.204z"/>
			<path style="fill:#E5E5E5;stroke:#263238;stroke-linecap:round;stroke-linejoin:round;stroke-miterlimit:10;" d="
				M362.867,101.832c0,0,1.331,25.174,2.841,28.863c1.511,3.689,4.257,6.608,10.057,8.2c1.837,0.505,5.606,0.295,6.411,0.104
				c5.8-1.375,8.21-5.459,9.165-7.93c0.956-2.471,3.18-28.201,3.18-28.201s-0.799-7.211-8.335-10.605
				c-7.536-3.394-12.396-2.295-17.163,1.162C364.255,96.881,362.867,101.832,362.867,101.832z"/>
			<g>
				<path style="fill:none;stroke:#263238;stroke-linecap:round;stroke-linejoin:round;stroke-miterlimit:10;" d="M373.912,126.135
					c0,0,5.922,1.827,10.138,0.151"/>
				<path style="fill:none;stroke:#263238;stroke-linecap:round;stroke-linejoin:round;stroke-miterlimit:10;" d="M365.78,110.455
					c0,0,3.711-3.283,8.137-1.285"/>
				<path style="fill:none;stroke:#263238;stroke-linecap:round;stroke-linejoin:round;stroke-miterlimit:10;" d="M391.618,110.455
					c0,0-3.711-3.283-8.137-1.285"/>
				<path style="fill:#263238;" d="M373.489,114.524c0,1.064-0.575,1.927-1.285,1.927c-0.71,0-1.285-0.863-1.285-1.927
					c0-1.064,0.575-1.927,1.285-1.927C372.914,112.597,373.489,113.459,373.489,114.524z"/>
				<path style="fill:#263238;" d="M387.335,114.524c0,1.064-0.575,1.927-1.285,1.927c-0.71,0-1.285-0.863-1.285-1.927
					c0-1.064,0.575-1.927,1.285-1.927C386.76,112.597,387.335,113.459,387.335,114.524z"/>
			</g>
			<g>
				<path style="fill:#263238;stroke:#263238;stroke-linecap:round;stroke-linejoin:round;stroke-miterlimit:10;" d="
					M392.785,98.128c-1.206-2.061-3.223-4.345-6.599-5.865c-7.536-3.394-12.396-2.295-17.163,1.162
					c-1.803,1.307-3.121,2.827-4.065,4.214C369.597,99.237,379.844,101.663,392.785,98.128z"/>
				<path style="fill:#263238;stroke:#263238;stroke-linecap:round;stroke-linejoin:round;stroke-miterlimit:10;" d="
					M364.957,97.638c0,0,2.082,5.134,1.125,8.245c-0.957,3.111-2.393,6.221-2.393,6.221l-0.823-10.273
					C362.867,101.832,363.354,100.161,364.957,97.638z"/>
				<path style="fill:#263238;stroke:#263238;stroke-linecap:round;stroke-linejoin:round;stroke-miterlimit:10;" d="
					M392.448,97.638c0,0-2.082,5.134-1.125,8.245c0.957,3.111,2.393,6.221,2.393,6.221l0.823-10.273
					C394.538,101.832,394.051,100.161,392.448,97.638z"/>
			</g>
			<path style="fill:none;stroke:#263238;stroke-linecap:round;stroke-linejoin:round;stroke-miterlimit:10;" d="M375.829,119.996
				c0,0,1.863,3.415,3.726,2.794c1.863-0.621,2.484-2.018,2.639-2.949"/>
		</g>
		<path style="fill:none;stroke:#263238;stroke-linecap:round;stroke-linejoin:round;stroke-miterlimit:10;" d="M341.515,175.484
			c0,0-1.138,9.384,1.137,13.649c0,0-5.457,24.64-4.888,39.711"/>
		<path style="fill:none;stroke:#263238;stroke-linecap:round;stroke-linejoin:round;stroke-miterlimit:10;" d="M329.164,206.195
			c0,0-0.854,8.824,2.562,10.247c3.416,1.423,3.416,1.423,3.416,1.423"/>
		<path style="fill:none;stroke:#263238;stroke-linecap:round;stroke-linejoin:round;stroke-miterlimit:10;" d="M428.504,206.195
			c0,0-0.285,6.547-3.131,9.393c-2.846,2.846-5.408,1.708-5.408,1.708"/>
		<path style="fill:none;stroke:#263238;stroke-linecap:round;stroke-linejoin:round;stroke-miterlimit:10;" d="M342.652,189.133
			c0,0-6.941-3.717-9.787-9.125"/>
		<path style="fill:none;stroke:#263238;stroke-linecap:round;stroke-linejoin:round;stroke-miterlimit:10;" d="M414.03,189.133
			c0,0,6.504-3.148,9.066-9.125"/>
		<path style="fill:none;stroke:#263238;stroke-linecap:round;stroke-linejoin:round;stroke-miterlimit:10;" d="M415.167,175.484
			c0,0,1.138,9.384-1.137,13.649c0,0,5.457,24.64,4.888,39.711"/>
		
			<line style="fill:none;stroke:#263238;stroke-linecap:round;stroke-linejoin:round;stroke-miterlimit:10;" x1="378.02" y1="313.891" x2="378.02" y2="260.313"/>
		
			<line style="fill:none;stroke:#263238;stroke-linecap:round;stroke-linejoin:round;stroke-miterlimit:10;" x1="378.02" y1="325.127" x2="378.02" y2="319.568"/>
		<path style="fill:none;stroke:#263238;stroke-linecap:round;stroke-linejoin:round;stroke-miterlimit:10;" d="M369.515,256.114
			c0,0,2.127,2.707,7.717,4.198c5.59,1.491,9.456-5.519,9.456-5.519"/>
		<path style="fill:none;stroke:#263238;stroke-linecap:round;stroke-linejoin:round;stroke-miterlimit:10;" d="M355.257,249.243
			c0.877,0.386,1.812,0.769,2.809,1.147"/>
		<path style="fill:none;stroke:#263238;stroke-linecap:round;stroke-linejoin:round;stroke-miterlimit:10;" d="M342.654,239.822
			c0,0,1.6,3.466,8.326,7.286"/>
		<path style="fill:none;stroke:#263238;stroke-linecap:round;stroke-linejoin:round;stroke-miterlimit:10;" d="M413.989,239.822
			c0,0-2.642,5.725-15.412,10.568"/>
		<path style="fill:none;stroke:#263238;stroke-linecap:round;stroke-linejoin:round;stroke-miterlimit:10;" d="M360.852,153.406
			c0,0,10.985-0.61,12.613-0.61c1.627,0,3.662,1.627,3.662,1.627"/>
		<path style="fill:none;stroke:#263238;stroke-linecap:round;stroke-linejoin:round;stroke-miterlimit:10;" d="M396.859,153.406
			c0,0-10.985-0.61-12.613-0.61c-1.627,0-3.662,1.627-3.662,1.627"/>
		
			<line style="fill:none;stroke:#263238;stroke-linecap:round;stroke-linejoin:round;stroke-miterlimit:10;" x1="378.18" y1="180.622" x2="378.18" y2="184.538"/>
		
			<line style="fill:none;stroke:#263238;stroke-linecap:round;stroke-linejoin:round;stroke-miterlimit:10;" x1="378.18" y1="162.264" x2="378.18" y2="176.439"/>
		<path style="fill:none;stroke:#263238;stroke-linecap:round;stroke-linejoin:round;stroke-miterlimit:10;" d="M353.302,189.745
			c0,0,3.182,0.289,10.125-2.604"/>
		<path style="fill:none;stroke:#263238;stroke-linecap:round;stroke-linejoin:round;stroke-miterlimit:10;" d="M401.322,189.745
			c0,0-3.182,0.289-10.125-2.604"/>
	</g>
</g>
<g id="Character_2">
	<g>
		<path style="fill:#CCCCCC;stroke:#263238;stroke-linecap:round;stroke-linejoin:round;stroke-miterlimit:10;" d="M272.063,255.826
			c0.436-17.328-5.26-40.804-5.26-40.804H238.49h-28.313c0,0-5.696,23.476-5.26,40.804c0.436,17.328,11.118,51.77,11.336,54.765
			s-4.796,17.328-2.398,25.457c2.398,8.129,6.322,21.607,6.976,24.816c0.654,3.209,1.09,14.975,1.09,14.975
			s-4.796,7.487-8.066,11.552s-4.578,6.846-3.706,8.557c0.872,1.711,4.578,4.92,10.028,2.353c5.45-2.567,8.284-4.065,8.72-9.841
			c0.436-5.776,4.36-5.562,4.796-10.91c0.436-5.348-0.218-7.915-0.218-10.482c0-2.567,3.488-26.099,3.488-26.099l1.526-18.612
			l1.526,18.612c0,0,3.488,23.532,3.488,26.099c0,2.567-0.654,5.134-0.218,10.482c0.436,5.348,4.36,5.134,4.796,10.91
			c0.436,5.776,3.27,7.273,8.72,9.841c5.45,2.567,9.156-0.642,10.028-2.353c0.872-1.711-0.436-4.492-3.706-8.557
			s-8.066-11.552-8.066-11.552s0.436-11.766,1.09-14.975c0.654-3.209,4.578-16.686,6.976-24.816
			c2.398-8.129-2.616-22.462-2.398-25.457C260.944,307.597,271.626,273.154,272.063,255.826z"/>
		<path style="fill:#92E3A9;stroke:#263238;stroke-linecap:round;stroke-linejoin:round;stroke-miterlimit:10;" d="M238.49,215.022
			h-28.313c0,0-5.696,23.476-5.26,40.804c0.047,1.869,0.219,3.945,0.479,6.152c4.754,2.235,15.632,5.638,33.011,1.658
			c0,0,18.068,5.859,32.857,0.827c0.444-3.145,0.736-6.08,0.8-8.636c0.436-17.328-5.26-40.804-5.26-40.804H238.49z"/>
		<g>
			
				<line style="fill:none;stroke:#263238;stroke-linecap:round;stroke-linejoin:round;stroke-miterlimit:10;" x1="238.406" y1="319.99" x2="238.406" y2="248.212"/>
			<path style="fill:none;stroke:#263238;stroke-linecap:round;stroke-linejoin:round;stroke-miterlimit:10;" d="M232.859,242.849
				c0,0,2.773,4.619,7.059,6.005"/>
		</g>
		<g>
			<path style="fill:#CCCCCC;stroke:#263238;stroke-linecap:round;stroke-linejoin:round;stroke-miterlimit:10;" d="M293.08,219.657
				c-0.545-4.363-3.954-14.179-3.954-14.179l-3.592-20.089c0,0-0.129-12.175,0.13-15.154c0.259-2.979,0.648-9.066-2.979-14.247
				c-3.626-5.181-14.506-5.699-14.506-5.699s-6.605-2.72-11.398-5.31c-4.792-2.59-6.394-8.214-6.394-8.214l-0.818-11.316
				l-11.188,0.12l-11.188-0.12l-0.818,11.316c0,0-1.601,5.624-6.394,8.214c-4.792,2.59-11.398,5.31-11.398,5.31
				s-10.88,0.518-14.506,5.699c-3.626,5.181-3.238,11.268-2.979,14.247c0.259,2.979,0.129,15.154,0.129,15.154l-3.592,20.089
				c0,0-3.408,9.816-3.954,14.179c-0.545,4.363-2.863,34.239-2.454,36.421c0.409,2.181,1.5,4.772,1.909,6.408
				c0.409,1.636,2.999,11.861,3.272,12.679c0.273,0.818,5.317,1.091,6.135,2.318c0.818,1.227,3.681-1.909,5.044-3.545
				c1.363-1.636,3.272-0.409,3.817-3.136c0.545-2.727,0.273-4.09,0.136-6.408c-0.136-2.318-2.318-4.09-4.226-5.181
				c-1.909-1.091-5.453-1.636-5.59-8.589c-0.136-6.953,9.68-25.65,10.498-31.649c0.818-5.999,0-13.633,0.273-14.042
				c0.273-0.409,5.439-17.212,5.439-17.212s1.196,9.105,1.434,13.301c0.242,4.271,0.508,8.273,0.508,8.273v5.999l27.011-0.273h2.983
				l27.011,0.273v-5.999c0,0,0.19-5.511,0.497-9.041c0.243-2.8,1.445-12.534,1.445-12.534s5.166,16.803,5.439,17.212
				c0.273,0.409-0.545,8.044,0.273,14.042c0.818,5.999,10.634,24.696,10.498,31.649c-0.136,6.953-3.681,7.498-5.59,8.589
				c-1.909,1.091-4.09,2.863-4.226,5.181c-0.136,2.318-0.409,3.681,0.136,6.408c0.545,2.727,2.454,1.5,3.817,3.136
				c1.363,1.636,4.226,4.772,5.044,3.545c0.818-1.227,5.862-1.5,6.135-2.318c0.273-0.818,2.863-11.043,3.272-12.679
				c0.409-1.636,1.5-4.226,1.909-6.408C295.943,253.897,293.625,224.02,293.08,219.657z"/>
			<g>
				
					<line style="fill:none;stroke:#263238;stroke-linecap:round;stroke-linejoin:round;stroke-miterlimit:10;" x1="214.347" y1="150.708" x2="227.995" y2="152.469"/>
				
					<line style="fill:none;stroke:#263238;stroke-linecap:round;stroke-linejoin:round;stroke-miterlimit:10;" x1="263.215" y1="150.267" x2="248.247" y2="152.249"/>
				<polyline style="fill:none;stroke:#263238;stroke-linecap:round;stroke-linejoin:round;stroke-miterlimit:10;" points="
					207.938,187.721 204.442,174.921 201.14,170.079 				"/>
				<polyline style="fill:none;stroke:#263238;stroke-linecap:round;stroke-linejoin:round;stroke-miterlimit:10;" points="
					268.827,187.721 271.36,173.601 275.102,168.978 				"/>
				<path style="fill:none;stroke:#263238;stroke-linecap:round;stroke-linejoin:round;stroke-miterlimit:10;" d="M208.844,180.204
					c0,0,5.503,4.182,8.145,4.843s13.208,0.88,18.491-3.522"/>
				<path style="fill:none;stroke:#263238;stroke-linecap:round;stroke-linejoin:round;stroke-miterlimit:10;" d="M260.518,184.257
					c-0.715,0.368-1.381,0.654-1.926,0.79c-2.641,0.66-13.208,0.88-18.491-3.522"/>
				<path style="fill:none;stroke:#263238;stroke-linecap:round;stroke-linejoin:round;stroke-miterlimit:10;" d="M266.737,180.204
					c0,0-1.376,1.046-3.082,2.174"/>
				<path style="fill:none;stroke:#263238;stroke-linecap:round;stroke-linejoin:round;stroke-miterlimit:10;" d="M198.001,266.867
					c0,0-2.893,2.893-3.492,5.088"/>
				<path style="fill:none;stroke:#263238;stroke-linecap:round;stroke-linejoin:round;stroke-miterlimit:10;" d="M196.106,269.262
					c0,0,0.998-0.299,1.496,1.197c0.499,1.496,0.676,2.968-0.011,3.479"/>
				<path style="fill:none;stroke:#263238;stroke-linecap:round;stroke-linejoin:round;stroke-miterlimit:10;" d="M279.701,265.333
					c0,0,2.661,2.217,1.922,4.878"/>
				<path style="fill:none;stroke:#263238;stroke-linecap:round;stroke-linejoin:round;stroke-miterlimit:10;" d="M278.37,272.872
					c0,0-0.296-2.217,0.296-3.252c0.591-1.035,2.809-1.035,2.809-1.035"/>
			</g>
		</g>
		<g>
			<g>
				<path style="fill:#CCCCCC;stroke:#263238;stroke-linecap:round;stroke-linejoin:round;stroke-miterlimit:10;" d="
					M223.732,113.242c0,0-2.512-3.392-3.266-0.251c-0.754,3.14,4.02,6.281,4.02,6.281L223.732,113.242z"/>
				<path style="fill:#CCCCCC;stroke:#263238;stroke-linecap:round;stroke-linejoin:round;stroke-miterlimit:10;" d="
					M252.622,113.242c0,0,2.512-3.392,3.266-0.251c0.754,3.14-4.02,6.281-4.02,6.281L252.622,113.242z"/>
				<path style="fill:#CCCCCC;stroke:#263238;stroke-linecap:round;stroke-linejoin:round;stroke-miterlimit:10;" d="
					M223.168,102.447c0,0,1.277,22.005,2.727,25.546c1.45,3.541,7.904,8.419,9.654,8.95c1.75,0.531,5.396,0.339,6.154,0.1
					s7.88-5.651,8.798-8.023c0.918-2.372,3.052-25.578,3.052-25.578s-0.767-6.922-8.001-10.18
					c-7.234-3.258-11.899-2.202-16.475,1.115C224.501,97.695,223.168,102.447,223.168,102.447z"/>
				<g>
					<path style="fill:none;stroke:#263238;stroke-linecap:round;stroke-linejoin:round;stroke-miterlimit:10;" d="M233.727,126.431
						c0,0,5.276,1.382,8.918-0.251"/>
					<path style="fill:none;stroke:#263238;stroke-linecap:round;stroke-linejoin:round;stroke-miterlimit:10;" d="M226.998,110.228
						c0,0,3.266-2.889,7.16-1.13"/>
					<path style="fill:none;stroke:#263238;stroke-linecap:round;stroke-linejoin:round;stroke-miterlimit:10;" d="M249.734,110.228
						c0,0-3.266-2.889-7.16-1.13"/>
					<path style="fill:#263238;" d="M233.781,113.808c0,0.937-0.506,1.696-1.131,1.696s-1.13-0.759-1.13-1.696
						c0-0.937,0.506-1.696,1.13-1.696S233.781,112.871,233.781,113.808z"/>
					<path style="fill:#263238;" d="M245.965,113.808c0,0.937-0.506,1.696-1.13,1.696c-0.624,0-1.131-0.759-1.131-1.696
						c0-0.937,0.506-1.696,1.131-1.696C245.459,112.112,245.965,112.871,245.965,113.808z"/>
				</g>
			</g>
			<polyline style="fill:none;stroke:#263238;stroke-linecap:round;stroke-linejoin:round;stroke-miterlimit:10;" points="
				240.354,112.609 240.741,122.08 235.908,121.694 			"/>
			<path style="fill:#263238;stroke:#263238;stroke-linecap:round;stroke-linejoin:round;stroke-miterlimit:10;" d="
				M223.732,113.242l1.351-5.466c0,0,3.479-2.126,3.479-4.833c0-2.706-0.387-6.572-0.387-6.572s7.346,2.9,10.052,2.706
				c2.706-0.193,10.245-2.126,10.245-2.126s-0.193,5.799,0.387,6.572c0.58,0.773,2.706,4.059,2.706,4.059l1.057,5.66l1.456-1.214
				c0,0,0.773-11.598,0.773-12.371c0-0.773,0.966-2.32-1.353-6.379c-2.32-4.059-12.565-9.858-16.817-8.892
				s-14.691,7.732-15.078,10.632C221.217,97.918,223.732,113.242,223.732,113.242z"/>
		</g>
		
			<line style="fill:none;stroke:#263238;stroke-linecap:round;stroke-linejoin:round;stroke-miterlimit:10;" x1="237.399" y1="156.146" x2="237.399" y2="178.184"/>
	</g>
</g>
<g id="Character_1">
	<g>
		<g>
			<path style="fill:#E5E5E5;stroke:#263238;stroke-linecap:round;stroke-linejoin:round;stroke-miterlimit:10;" d="
				M155.937,219.657c-0.545-4.363-3.954-14.179-3.954-14.179l-3.272-19.087c0,0-0.136-12.815,0.136-15.951
				c0.273-3.136,0.682-9.543-3.136-14.997c-3.817-5.453-15.27-5.999-15.27-5.999s-6.953-2.863-11.997-5.59
				c-5.044-2.727-7.362-7.089-7.362-7.089l-0.818-11.316l-11.188,0.12l-11.188-0.12l-0.818,11.316c0,0-2.318,4.363-7.362,7.089
				c-5.044,2.727-11.997,5.59-11.997,5.59s-11.452,0.545-15.27,5.999c-3.817,5.453-3.408,11.861-3.136,14.997
				c0.273,3.136,0.136,15.951,0.136,15.951l-3.272,19.087c0,0-3.408,9.816-3.954,14.179c-0.545,4.363-2.863,34.239-2.454,36.421
				c0.409,2.181,1.5,4.772,1.909,6.408c0.409,1.636,2.999,11.861,3.272,12.679c0.273,0.818,5.317,1.091,6.135,2.318
				c0.818,1.227,3.681-1.909,5.044-3.545c1.364-1.636,3.272-0.409,3.817-3.136c0.545-2.727,0.273-4.09,0.136-6.408
				c-0.136-2.318-2.318-4.09-4.226-5.181s-5.453-1.636-5.59-8.589c-0.136-6.953,9.68-25.65,10.498-31.649
				c0.818-5.999,0-13.633,0.273-14.042c0.273-0.409,5.999-16.087,5.999-16.087s2.727,7.635,3.408,10.361
				c0.682,2.727,2.727,10.361,2.727,10.361l-2.588,10.453h27.008h2.983h27.014l-2.594-10.453c0,0,2.045-7.635,2.727-10.361
				c0.682-2.727,3.408-10.361,3.408-10.361s5.726,15.678,5.999,16.087c0.273,0.409-0.545,8.044,0.273,14.042
				c0.818,5.999,10.634,24.696,10.498,31.649c-0.136,6.953-3.681,7.498-5.59,8.589c-1.909,1.091-4.09,2.863-4.226,5.181
				c-0.136,2.318-0.409,3.681,0.136,6.408c0.545,2.727,2.454,1.5,3.817,3.136c1.363,1.636,4.226,4.772,5.044,3.545
				c0.818-1.227,5.862-1.5,6.135-2.318c0.273-0.818,2.863-11.043,3.272-12.679c0.409-1.636,1.5-4.226,1.909-6.408
				C158.8,253.897,156.482,224.02,155.937,219.657z"/>
			<g>
				
					<line style="fill:none;stroke:#263238;stroke-linecap:round;stroke-linejoin:round;stroke-miterlimit:10;" x1="73.777" y1="149.884" x2="88.144" y2="151.738"/>
				
					<line style="fill:none;stroke:#263238;stroke-linecap:round;stroke-linejoin:round;stroke-miterlimit:10;" x1="125.217" y1="149.421" x2="109.461" y2="151.506"/>
				<polyline style="fill:none;stroke:#263238;stroke-linecap:round;stroke-linejoin:round;stroke-miterlimit:10;" points="
					67.031,188.846 63.35,175.373 59.875,170.275 				"/>
				<polyline style="fill:none;stroke:#263238;stroke-linecap:round;stroke-linejoin:round;stroke-miterlimit:10;" points="
					131.124,188.846 133.791,173.982 137.73,169.116 				"/>
				<path style="fill:none;stroke:#263238;stroke-linecap:round;stroke-linejoin:round;stroke-miterlimit:10;" d="M67.985,180.934
					c0,0,5.793,4.402,8.573,5.098c2.781,0.695,13.903,0.927,19.464-3.707"/>
				<path style="fill:none;stroke:#263238;stroke-linecap:round;stroke-linejoin:round;stroke-miterlimit:10;" d="M128.925,180.934
					c0,0-5.793,4.402-8.573,5.098c-2.781,0.695-13.903,0.927-19.464-3.707"/>
				<path style="fill:none;stroke:#263238;stroke-linecap:round;stroke-linejoin:round;stroke-miterlimit:10;" d="M56.534,266.867
					c0,0-2.893,2.893-3.492,5.088"/>
				<path style="fill:none;stroke:#263238;stroke-linecap:round;stroke-linejoin:round;stroke-miterlimit:10;" d="M54.639,269.262
					c0,0,0.998-0.299,1.496,1.197c0.499,1.496,0.676,2.968-0.011,3.479"/>
				<path style="fill:none;stroke:#263238;stroke-linecap:round;stroke-linejoin:round;stroke-miterlimit:10;" d="M142.558,265.333
					c0,0,2.661,2.217,1.922,4.878"/>
				<path style="fill:none;stroke:#263238;stroke-linecap:round;stroke-linejoin:round;stroke-miterlimit:10;" d="M141.228,272.872
					c0,0-0.296-2.217,0.296-3.252c0.591-1.035,2.809-1.035,2.809-1.035"/>
			</g>
		</g>
		<path style="fill:#E5E5E5;stroke:#263238;stroke-linecap:round;stroke-linejoin:round;stroke-miterlimit:10;" d="M129.801,255.826
			c0.4-17.328-2.225-35.804-2.225-35.804H99.046H70.514c0,0-2.624,18.476-2.224,35.804c0.399,17.328,10.185,51.77,10.385,54.765
			c0.2,2.995-4.394,17.328-2.197,25.457c2.197,8.129,5.792,21.607,6.391,24.816s0.999,14.975,0.999,14.975
			s-4.394,7.487-7.389,11.552c-2.996,4.065-4.194,6.846-3.395,8.557c0.799,1.711,4.194,4.92,9.187,2.353
			c4.993-2.567,7.589-4.065,7.989-9.841c0.399-5.776,3.994-5.562,4.394-10.91c0.399-5.348-0.2-7.915-0.2-10.482
			c0-2.567,3.195-26.099,3.195-26.099l1.398-18.612l1.398,18.612c0,0,3.195,23.532,3.195,26.099c0,2.567-0.599,5.134-0.2,10.482
			c0.399,5.348,3.994,5.134,4.394,10.91c0.399,5.776,2.996,7.273,7.989,9.841c4.993,2.567,8.388-0.642,9.187-2.353
			c0.799-1.711-0.399-4.492-3.395-8.557c-2.996-4.065-7.389-11.552-7.389-11.552s0.399-11.766,0.998-14.975
			c0.599-3.209,4.194-16.686,6.391-24.816c2.197-8.129-2.397-22.462-2.197-25.457S129.402,273.154,129.801,255.826z"/>
		<path style="fill:#92E3A9;stroke:#263238;stroke-linecap:round;stroke-linejoin:round;stroke-miterlimit:10;" d="M99.046,220.022
			H70.514c0,0-2.624,18.476-2.224,35.804c0.043,1.869,0.201,3.945,0.438,6.152c4.355,2.235,14.321,5.638,30.241,1.658
			c0,0,16.552,5.859,30.1,0.827c0.407-3.145,0.674-6.08,0.733-8.636c0.4-17.328-2.225-35.804-2.225-35.804H99.046z"/>
		<g>
			
				<line style="fill:none;stroke:#263238;stroke-linecap:round;stroke-linejoin:round;stroke-miterlimit:10;" x1="98.969" y1="319.99" x2="98.969" y2="248.212"/>
			<path style="fill:none;stroke:#263238;stroke-linecap:round;stroke-linejoin:round;stroke-miterlimit:10;" d="M93.888,242.849
				c0,0,2.541,4.619,6.467,6.005"/>
		</g>
		<g>
			<path style="fill:#E5E5E5;stroke:#263238;stroke-linecap:round;stroke-linejoin:round;stroke-miterlimit:10;" d="M83.671,109.202
				c0,0-2.512-3.391-3.266-0.251c-0.754,3.14,4.02,6.281,4.02,6.281L83.671,109.202z"/>
			<path style="fill:#E5E5E5;stroke:#263238;stroke-linecap:round;stroke-linejoin:round;stroke-miterlimit:10;" d="
				M112.561,109.202c0,0,2.512-3.391,3.266-0.251c0.754,3.14-4.019,6.281-4.019,6.281L112.561,109.202z"/>
			<path style="fill:#E5E5E5;stroke:#263238;stroke-linecap:round;stroke-linejoin:round;stroke-miterlimit:10;" d="M83.107,98.407
				c0,0,1.277,22.005,2.727,25.546c1.45,3.541,7.904,8.419,9.654,8.95c1.75,0.531,5.396,0.339,6.154,0.1
				c0.758-0.239,7.88-5.651,8.798-8.023c0.918-2.372,3.052-25.579,3.052-25.579s-0.767-6.922-8.001-10.179
				c-7.234-3.258-11.899-2.202-16.475,1.115C84.44,93.654,83.107,98.407,83.107,98.407z"/>
			<g>
				<path style="fill:none;stroke:#263238;stroke-linecap:round;stroke-linejoin:round;stroke-miterlimit:10;" d="M95.048,117.492
					c0,0,1.759,1.633,3.14,1.884c1.382,0.251,3.894-2.01,3.894-2.01"/>
				<path style="fill:none;stroke:#263238;stroke-linecap:round;stroke-linejoin:round;stroke-miterlimit:10;" d="M93.666,122.391
					c0,0,5.276,1.382,8.918-0.251"/>
				<path style="fill:none;stroke:#263238;stroke-linecap:round;stroke-linejoin:round;stroke-miterlimit:10;" d="M86.937,106.188
					c0,0,3.266-2.889,7.16-1.131"/>
				<path style="fill:none;stroke:#263238;stroke-linecap:round;stroke-linejoin:round;stroke-miterlimit:10;" d="M109.672,106.188
					c0,0-3.266-2.889-7.16-1.131"/>
				<ellipse style="fill:#263238;" cx="92.589" cy="109.767" rx="1.13" ry="1.696"/>
				<path style="fill:#263238;" d="M105.904,109.767c0,0.937-0.506,1.696-1.131,1.696c-0.624,0-1.13-0.759-1.13-1.696
					s0.506-1.696,1.13-1.696C105.398,108.072,105.904,108.831,105.904,109.767z"/>
			</g>
		</g>
		<path style="fill:#263238;stroke:#263238;stroke-linecap:round;stroke-linejoin:round;stroke-miterlimit:10;" d="M83.671,109.202
			l-1.142-0.981c0,0-1.537-8.326-2.434-11.272c-0.897-2.946,2.178-5.38,2.818-5.892c0.641-0.512,0.384-6.149,8.326-8.582
			c7.942-2.434,15.243-0.769,12.297-0.128c-2.946,0.641-3.33,1.281-3.33,1.281s12.169,3.202,15.243,7.814
			c3.074,4.611,1.025,5.892-0.128,6.917c-1.153,1.025-0.641,1.665-0.641,1.665l-1.153,7.942l-0.967,1.237
			c0,0,0.07-2.646-0.826-3.799c-0.897-1.153-1.537-1.921-1.793-3.587c-0.256-1.665-0.256-2.306-0.256-2.306
			s-9.863-0.897-14.09-2.562c-4.227-1.665-7.43-2.818-7.43-2.818s1.793,1.922,0.769,2.306c-1.025,0.384-2.434,0-2.434,0
			s1.153,4.483-0.128,6.917C85.091,105.787,83.671,109.202,83.671,109.202z"/>
		
			<line style="fill:none;stroke:#263238;stroke-linecap:round;stroke-linejoin:round;stroke-miterlimit:10;" x1="98.599" y1="163.889" x2="98.599" y2="178.184"/>
		
			<line style="fill:none;stroke:#263238;stroke-linecap:round;stroke-linejoin:round;stroke-miterlimit:10;" x1="98.599" y1="156.146" x2="98.599" y2="160.303"/>
	</g>
</g>
<g id="Shape_5">
	<polygon style="fill:#263238;" points="656.106,452.095 680.884,409.178 631.327,409.178 	"/>
</g>
<g id="Shape_4">
	<polygon style="fill:#263238;" points="514.338,409.178 489.559,452.095 539.116,452.095 	"/>
</g>
<g id="Shape_3">
	<circle style="fill:#263238;" cx="377.042" cy="432.131" r="22.954"/>
</g>
<g id="Shape_2">
	<rect x="226.066" y="408.824" style="fill:#263238;" width="25.916" height="42.685"/>
</g>
<g id="Shape_1">
	<polygon style="fill:#263238;" points="111.113,450.986 126.081,409.178 76.524,409.178 91.492,450.986 	"/>
</g>
</svg>
